<svg width="28" height="26" viewBox="0 0 28 26" fill="none" xmlns="http://www.w3.org/2000/svg">
<path d="M25.0902 13.755C25.0902 14.0152 25.0902 14.2164 25.0902 14.4057C25.0902 17.5054 25.0902 20.6051 25.0902 23.7048C25.0902 25.2547 24.3652 26 22.8691 26C21.1774 26 19.4857 26 17.7134 26C17.7134 25.7989 17.7134 25.6332 17.7134 25.4558C17.7134 23.4682 17.7134 21.4924 17.7134 19.5048C17.7134 17.6473 16.6201 16.1566 14.9974 15.6952C12.6036 15.0209 10.325 16.8192 10.2905 19.4457C10.2674 21.4096 10.2905 23.3735 10.2905 25.3493C10.2905 25.5386 10.2905 25.7279 10.2905 25.9645C10.1178 25.9763 9.96822 26 9.81861 26C8.21894 26 6.61928 26 5.00811 26C3.67313 26 2.91358 25.2073 2.91358 23.8113C2.91358 20.6761 2.91358 17.5409 2.91358 14.4057C2.91358 14.2164 2.91358 14.0271 2.91358 13.755C2.63738 13.755 2.38419 13.755 2.1195 13.755C1.09526 13.7313 0.393244 13.2699 0.117043 12.4181C-0.170667 11.5662 0.0710095 10.8091 0.85358 10.1347C4.39816 7.08231 7.93124 4.02992 11.4758 0.989368C13.0064 -0.323867 14.9859 -0.335698 16.5165 0.989368C20.0841 4.05359 23.6402 7.12963 27.2078 10.1938C27.9328 10.8209 28.163 11.5781 27.8868 12.4181C27.6336 13.2226 26.9661 13.7076 26.0339 13.7668C25.7462 13.7786 25.447 13.7668 25.0902 13.7668V13.755Z" fill="white"/>
</svg>
