<svg width="59" height="36" viewBox="0 0 59 36" fill="none" xmlns="http://www.w3.org/2000/svg">
<rect width="59" height="36" rx="5" fill="#F7B23A"/>
<path d="M25.4261 14.5966L24.7727 16.017H15.5114L16.0227 14.5966H25.4261ZM24.2045 17.4375L23.5511 18.858H15.5114L16.0227 17.4375H24.2045ZM27.1023 10.7614L26.4205 12.2386C26.1174 11.964 25.7978 11.7273 25.4616 11.5284C25.1255 11.3295 24.7727 11.1757 24.4034 11.0668C24.0341 10.9579 23.6458 10.9034 23.2386 10.9034C22.4337 10.9034 21.7093 11.1259 21.0653 11.571C20.4214 12.0161 19.9124 12.6719 19.5384 13.5384C19.1643 14.4048 18.9773 15.4678 18.9773 16.7273C18.9773 17.9867 19.1643 19.0497 19.5384 19.9162C19.9124 20.7827 20.4214 21.4384 21.0653 21.8835C21.7093 22.3286 22.4337 22.5511 23.2386 22.5511C23.6553 22.5511 24.0483 22.4967 24.4176 22.3878C24.7917 22.2789 25.1397 22.1297 25.4616 21.9403C25.7884 21.7509 26.089 21.5379 26.3636 21.3011L27.0739 22.7784C26.5767 23.2472 25.9943 23.6023 25.3267 23.8438C24.6591 24.0805 23.9631 24.1989 23.2386 24.1989C22.0739 24.1989 21.0417 23.8958 20.142 23.2898C19.2472 22.6837 18.544 21.822 18.0327 20.7045C17.526 19.5871 17.2727 18.2614 17.2727 16.7273C17.2727 15.1932 17.526 13.8674 18.0327 12.75C18.544 11.6326 19.2472 10.7708 20.142 10.1648C21.0417 9.55871 22.0739 9.25568 23.2386 9.25568C23.9915 9.25568 24.6946 9.38589 25.348 9.64631C26.0062 9.90672 26.5909 10.2784 27.1023 10.7614Z" fill="white"/>
<path d="M42.4261 14.5966L41.7727 16.017H32.5114L33.0227 14.5966H42.4261ZM41.2045 17.4375L40.5511 18.858H32.5114L33.0227 17.4375H41.2045ZM44.1023 10.7614L43.4205 12.2386C43.1174 11.964 42.7978 11.7273 42.4616 11.5284C42.1255 11.3295 41.7727 11.1757 41.4034 11.0668C41.0341 10.9579 40.6458 10.9034 40.2386 10.9034C39.4337 10.9034 38.7093 11.1259 38.0653 11.571C37.4214 12.0161 36.9124 12.6719 36.5384 13.5384C36.1643 14.4048 35.9773 15.4678 35.9773 16.7273C35.9773 17.9867 36.1643 19.0497 36.5384 19.9162C36.9124 20.7827 37.4214 21.4384 38.0653 21.8835C38.7093 22.3286 39.4337 22.5511 40.2386 22.5511C40.6553 22.5511 41.0483 22.4967 41.4176 22.3878C41.7917 22.2789 42.1397 22.1297 42.4616 21.9403C42.7884 21.7509 43.089 21.5379 43.3636 21.3011L44.0739 22.7784C43.5767 23.2472 42.9943 23.6023 42.3267 23.8438C41.6591 24.0805 40.9631 24.1989 40.2386 24.1989C39.0739 24.1989 38.0417 23.8958 37.142 23.2898C36.2472 22.6837 35.544 21.822 35.0327 20.7045C34.526 19.5871 34.2727 18.2614 34.2727 16.7273C34.2727 15.1932 34.526 13.8674 35.0327 12.75C35.544 11.6326 36.2472 10.7708 37.142 10.1648C38.0417 9.55871 39.0739 9.25568 40.2386 9.25568C40.9915 9.25568 41.6946 9.38589 42.348 9.64631C43.0062 9.90672 43.5909 10.2784 44.1023 10.7614Z" fill="white"/>
</svg>
