<svg width="28" height="26" viewBox="0 0 28 26" fill="none" xmlns="http://www.w3.org/2000/svg">
<path d="M13.8558 5.13794C13.908 5.23623 14.0571 5.23623 14.1168 5.13794C14.3851 4.65404 14.6237 4.20038 14.8771 3.75428C15.8612 1.97744 17.3298 0.797924 19.2755 0.245971C21.9443 -0.510129 24.8592 0.518167 26.5365 2.76378C27.8635 4.54062 28.2586 6.53672 27.8411 8.72185C27.4385 10.8163 26.5067 12.6763 25.381 14.4455C23.6664 17.1372 21.5865 19.5265 19.2904 21.7117C17.8516 23.0802 16.3383 24.358 14.8473 25.6661C14.3628 26.097 13.6396 26.1122 13.1402 25.7039C10.8441 23.8136 8.64491 21.8099 6.63956 19.6021C4.56712 17.3263 2.65122 14.9294 1.30935 12.1167C0.698056 10.8767 0.235856 9.59893 0.0569403 8.25307C-0.397805 4.80526 1.92065 1.06256 5.2455 0.23841C8.32435 -0.525251 11.4405 0.888656 12.9836 3.57281C13.2744 4.0794 13.5502 4.59355 13.8558 5.1455V5.13794Z" fill="white"/>
</svg>
