<svg width="693" height="617" viewBox="0 0 693 617" fill="none" xmlns="http://www.w3.org/2000/svg">
<path d="M346.48 616.4C332.87 605.5 319.35 594.69 305.84 583.86C245.01 535.08 183.79 486.76 123.47 437.36C71.35 394.68 32.03 342.38 11.85 277.34C-3.51002 227.82 -4.79002 178 13.1 128.61C41.05 51.4 116.46 -1.19004 197.94 0.0199637C249.6 0.789964 293.13 21.45 330.61 56.06C335.98 61.02 341.05 66.3 346.4 71.58C353.2 65.06 359.78 58.28 366.84 52.05C397.96 24.58 433.55 6.35996 475.14 1.49996C524.54 -4.27004 569.79 7.70996 609.49 37.25C669.84 82.15 696.42 143.54 692.42 218.06C689.17 278.65 663.94 330.72 627.37 378C603.62 408.71 574.56 433.76 544.35 457.8C479.29 509.57 414.66 561.86 349.84 613.94C348.82 614.76 347.73 615.49 346.48 616.4ZM346.32 141.02C344.59 138.73 343.05 136.79 341.61 134.76C327.98 115.6 313.97 96.77 295.93 81.36C270.01 59.23 240.69 44.66 206.31 42.5C142.37 38.49 83.43 74.47 57.04 133.17C38.4 174.65 38.37 217.35 50.73 260.2C67.6 318.66 102.69 365.31 148.94 403.55C198.87 444.84 249.87 484.84 300.42 525.39C315.74 537.68 331.08 549.94 346.58 562.36C348.86 560.56 350.94 558.93 353.01 557.27C410.42 511.16 467.65 464.83 525.3 419.04C555.76 394.85 583.6 368.33 605.72 336.16C631.09 299.27 648.46 259.4 650.53 213.99C652.84 163.31 637.24 119.1 599.97 84.22C560.64 47.42 513.98 33.75 461.07 46.81C426.04 55.46 398.34 76.29 375.32 103.43C365.21 115.34 356.17 128.17 346.31 141L346.32 141.02Z" fill="black"/>
</svg>
