<svg width="15" height="20" viewBox="0 0 15 20" fill="none" xmlns="http://www.w3.org/2000/svg">
<path d="M7.67638 20H7.35344C7.20222 19.8861 7.02536 19.7945 6.90234 19.6558C6.3846 19.0665 5.87198 18.4722 5.37731 17.8656C3.72414 15.8327 2.23243 13.7008 1.1175 11.341C0.658708 10.3704 0.287063 9.37006 0.120464 8.31029C0.0692028 7.97849 0.038446 7.64422 0 7.30994V7.19356C0.0179415 6.97319 0.0281937 6.75529 0.0538244 6.53492C0.189667 5.39591 0.553622 4.33366 1.19695 3.3655C2.04789 2.08535 3.19614 1.14195 4.64684 0.562545C6.27695 -0.0886719 7.95319 -0.177812 9.63969 0.312458C11.5159 0.857202 12.9666 1.95412 13.961 3.58587C14.9324 5.17801 15.2221 6.89148 14.8325 8.70647C14.5531 10.0089 14.0148 11.2172 13.3843 12.3884C11.9644 15.0181 10.1472 17.3852 8.15311 19.6286C8.0224 19.7772 7.83529 19.8787 7.67382 20H7.67638ZM7.51491 10.8879C9.5833 10.8879 11.2724 9.25864 11.2749 7.25547C11.2775 5.25229 9.60637 3.62797 7.52516 3.60816C5.47471 3.58835 3.76002 5.23744 3.75489 7.23566C3.74977 9.24873 5.4337 10.8879 7.51491 10.8904V10.8879Z" fill="#F7B23A"/>
</svg>
