<svg width="694" height="617" viewBox="0 0 694 617" fill="none" xmlns="http://www.w3.org/2000/svg">
<path d="M292.6 65L353.3 99.9L377.1 94L439.4 42.5L526.6 30.1L632.3 99.9L663.8 226.5L603 373.3L468.8 490.7L395.4 549.4L347.1 567.7L166.3 446.7L42.9 274.7V121.9L101.8 56.6L162.6 31.5H215L292.6 65Z" fill="#E81A1A"/>
<mask id="mask0_414_1731" style="mask-type:luminance" maskUnits="userSpaceOnUse" x="0" y="0" width="694" height="617">
<path d="M347.2 616.9C333.6 606 320.1 595.2 306.6 584.4C245.8 535.6 184.6 487.3 124.2 437.9C72.1 395.2 32.8 342.9 12.6 277.9C-2.80001 228.4 -3.99999 178.6 13.8 129.2C41.8 52 117.2 -0.600051 198.7 0.599949C250.4 1.39995 293.9 21.9999 331.4 56.5999C336.8 61.5999 341.8 66.7999 347.2 72.0999C354 65.5999 360.6 58.7999 367.6 52.5999C398.7 25.0999 434.3 6.89994 475.9 1.99994C525.3 -3.80006 570.5 8.19993 610.3 37.7999C670.6 82.6999 697.2 144.1 693.2 218.6C689.9 279.2 664.7 331.3 628.1 378.5C604.4 409.2 575.3 434.3 545.1 458.3C480 510.1 415.4 562.4 350.6 614.4C349.6 615.2 348.5 616 347.2 616.9ZM347 141.5C345.3 139.2 343.7 137.3 342.3 135.2C328.7 116 314.7 97.1999 296.6 81.7999C270.7 59.6999 241.4 45.1 207 42.9C143.1 38.9 84.1 74.8999 57.7 133.6C39.1 175.1 39 217.8 51.4 260.6C68.3 319.1 103.4 365.7 149.6 403.9C199.5 445.2 250.5 485.2 301.1 525.7C316.4 538 331.8 550.2 347.3 562.7C349.6 560.9 351.7 559.3 353.7 557.6C411.1 511.5 468.3 465.2 526 419.4C556.5 395.2 584.3 368.7 606.4 336.5C631.8 299.6 649.1 259.7 651.2 214.3C653.5 163.6 637.9 119.4 600.6 84.4999C561.3 47.6999 514.6 33.9999 461.7 47.0999C426.7 55.6999 399 76.6 375.9 103.7C365.9 115.9 356.9 128.7 347 141.5Z" fill="white"/>
</mask>
<g mask="url(#mask0_414_1731)">
<path d="M857.8 -121.7H-163.5V710.8H857.8V-121.7Z" fill="black"/>
</g>
</svg>
