<svg width="21" height="28" viewBox="0 0 21 28" fill="none" xmlns="http://www.w3.org/2000/svg">
<path d="M10.7469 28H10.2948C10.0831 27.8405 9.83551 27.7123 9.66327 27.5181C8.93844 26.6931 8.22078 25.8611 7.52824 25.0118C5.21379 22.1658 3.1254 19.1811 1.5645 15.8775C0.922191 14.5186 0.401889 13.1181 0.16865 11.6344C0.0968839 11.1699 0.0538244 10.7019 0 10.2339V10.071C0.0251181 9.76247 0.0394712 9.45741 0.0753542 9.14889C0.265534 7.55427 0.775071 6.06712 1.67573 4.7117C2.86705 2.91949 4.4746 1.59874 6.50558 0.787563C8.78773 -0.124141 11.1345 -0.248936 13.4956 0.437441C16.1222 1.20008 18.1532 2.73576 19.5454 5.02022C20.9054 7.24922 21.3109 9.64807 20.7655 12.1891C20.3743 14.0125 19.6208 15.7041 18.7381 17.3438C16.7501 21.0253 14.2061 24.3393 11.4144 27.48C11.2314 27.688 10.9694 27.8301 10.7433 28H10.7469ZM10.5209 15.2431C13.4166 15.2431 15.7813 12.9621 15.7849 10.1577C15.7885 7.35321 13.4489 5.07915 10.5352 5.05142C7.66459 5.02369 5.26403 7.33241 5.25685 10.1299C5.24967 12.9482 7.60718 15.2431 10.5209 15.2466V15.2431Z" fill="white"/>
</svg>
