<svg width="22" height="29" viewBox="0 0 22 29" fill="none" xmlns="http://www.w3.org/2000/svg">
<path d="M10.8171 28.7202C6.95716 28.6724 3.78516 27.5259 1.0431 25.2425C0.307429 24.631 -0.0269678 23.8284 0.00169479 22.873C0.116345 19.4431 2.75331 16.6246 6.17371 16.4717C8.93488 16.3475 11.7056 16.4144 14.4763 16.4239C15.04 16.4239 15.6133 16.529 16.1674 16.6723C19.005 17.4176 21.0305 20.045 21.0496 22.9781C21.0496 23.8666 20.7343 24.631 20.0464 25.2138C17.8298 27.0673 15.3075 28.2234 12.4317 28.5769C11.8011 28.6533 11.161 28.6915 10.8171 28.7297V28.7202Z" fill="white"/>
<path d="M17.1231 6.5735C17.1517 10.185 14.1995 13.1564 10.5498 13.1946C6.93829 13.2328 3.92871 10.2328 3.92871 6.58306C3.94782 2.95246 6.8523 0.0288716 10.4829 0.00020896C14.1422 -0.0284537 17.0944 2.89513 17.1231 6.5735Z" fill="white"/>
</svg>
