<svg width="314" height="219" viewBox="0 0 314 219" fill="none" xmlns="http://www.w3.org/2000/svg">
<path d="M160.449 160.597C217.582 160.597 263.898 147.446 263.898 131.223C263.898 115 217.582 101.848 160.449 101.848C103.316 101.848 57 115 57 131.223C57 147.446 103.316 160.597 160.449 160.597Z" fill="url(#paint0_radial_500_1834)" fill-opacity="0.6"/>
<path d="M103.196 112.792C103.113 116.47 103.57 121.223 106.029 125.283C106.029 125.283 106.376 125.838 106.722 126.372C114.17 136.524 157.394 136.781 157.394 136.781C165.756 136.628 177.021 136.962 178.96 136.781C191.431 135.81 180.658 137.572 204.788 134.984C205.481 134.914 215.97 132.833 217.854 131.07C220.916 128.218 221.561 120.453 219.746 116.692C219.434 116.04 219.004 115.452 218.478 114.957" fill="#F8952D"/>
<path d="M103.154 112.077C103.057 115.012 103.487 118.801 105.925 122C105.925 122 106.258 122.444 106.618 122.868C114.017 130.931 157.234 131.007 157.234 131.007C165.589 130.855 176.854 131.091 178.801 130.959C191.272 130.14 180.492 131.59 204.636 129.446C205.287 129.384 215.824 127.684 217.723 126.282C220.792 123.999 221.471 117.809 219.676 114.818C219.35 114.278 218.922 113.806 218.415 113.43" fill="#F7B23A"/>
<path d="M103.445 100.155C100.272 101.508 99.8913 102.736 99.5657 103.375C98.389 105.608 98.0287 108.183 98.5472 110.654C99.0192 113.149 100.459 115.355 102.552 116.789C104.023 117.704 105.68 118.277 107.401 118.468C145.505 123.506 158.17 123.936 158.17 123.936C163.151 124.103 181.164 124.186 196.017 123.013C200.658 122.921 205.273 122.306 209.776 121.181C216.476 119.551 219.863 118.69 221.692 116.324C224.505 112.681 222.981 107.393 220.134 103.833C219.23 102.898 218.123 102.186 216.898 101.751" fill="#A83C27"/>
<path d="M103.494 100.155C100.307 101.244 99.9121 102.237 99.5865 102.729C99.0086 103.558 98.6138 104.5 98.4286 105.493C98.2435 106.486 98.2722 107.508 98.5127 108.489C98.7755 109.54 99.2662 110.52 99.9499 111.36C100.634 112.199 101.494 112.878 102.469 113.347C103.992 114.073 105.636 114.511 107.318 114.637C145.36 118.329 158.024 118.572 158.024 118.572C162.999 118.662 181.011 118.572 195.865 117.545C200.503 117.435 205.121 116.911 209.666 115.977C216.372 114.631 219.767 113.895 221.616 112.028C224.457 109.128 223.002 104.957 220.162 102.14C219.212 101.383 218.114 100.835 216.94 100.53" fill="#BD5E48"/>
<path d="M98.9837 93.0421C97.4865 96.1303 96.6893 99.5118 96.649 102.945C96.625 103.287 96.625 103.63 96.649 103.972C97.6051 109.933 172.067 117.621 199.606 112.25C199.606 112.25 207.774 111.258 213.905 109.822C215.859 109.364 223.085 108.795 223.91 103.75C224.228 101.786 224.831 100.405 223.646 99.1349" fill="#E24747"/>
<path d="M100.217 93.0213C98.7499 95.4393 97.9425 98.2007 97.8752 101.029C97.8511 101.302 97.8511 101.576 97.8752 101.848C98.8036 106.657 172.434 112.625 199.717 108.191C199.717 108.191 207.809 107.365 213.878 106.185C215.811 105.811 222.967 105.325 223.799 101.244C224.117 99.6623 224.72 98.545 223.549 97.525" fill="#F25855"/>
<path d="M101.138 88.0665C98.7274 91.1754 96.7806 93.6736 95.1941 95.5958C94.9794 95.8456 94.7023 96.1925 94.7785 96.4493C95.1318 97.5874 103.93 91.7722 105.718 94.2703C107.214 96.3522 102.649 102.598 104.013 104.228C105.274 105.727 110.768 102.403 113.914 99.5651C114.325 99.1528 114.772 98.7789 115.251 98.4478C116.2 97.8302 117.96 97.0045 123.072 97.8233C126.661 98.3993 128.546 99.2112 129.945 97.858C130.201 97.5235 130.51 97.2328 130.859 96.9975C131.698 96.5118 132.862 96.5603 135.169 97.9274C138.273 99.7663 138.002 100.759 139.561 101.154C141.584 101.675 141.993 99.9745 145.104 99.7178C146.967 99.6226 148.826 99.9897 150.514 100.786C153.071 101.918 153.119 102.945 154.754 103.174C157.2 103.521 157.525 101.3 160.207 101.057C163.109 100.793 166.442 103.083 168.479 105.464C169.428 106.588 170.01 107.656 170.73 107.483C172.053 107.157 171.929 103.132 173.321 102.799C173.869 102.667 174.236 103.201 175.469 104.367C177.928 106.72 179.162 107.892 180.194 107.754C182.078 107.497 181.801 103.507 184.094 102.396C185.923 101.515 188.085 103.09 191.355 105.491C194.348 107.677 194.535 108.614 196.994 109.988C198.276 110.682 201.948 112.764 203.16 111.244C204.587 109.475 201.082 104.749 202.606 102.341C203.888 100.301 208.245 100.752 211.176 102.785C213.254 104.228 214.176 106.171 214.993 105.741C216.171 105.117 214.945 100.752 216.31 99.8704C217.099 99.3569 218.021 100.509 221.478 102.396C223.702 103.611 224.824 104.214 225.337 103.819C226.14 103.208 226.251 100.516 223.563 91.8277" fill="#9BB841"/>
<path d="M106.002 87.9763C105.157 88.8785 104.478 89.6002 103.923 90.1553C103.847 90.2317 103.75 90.3288 103.771 90.4121C103.847 90.7729 106.792 89.2046 107.297 90.0304C107.72 90.7243 106.106 92.5286 106.494 93.0699C106.882 93.6111 108.683 92.6882 109.757 91.8902C109.896 91.7706 110.047 91.666 110.207 91.5779C110.526 91.4113 111.108 91.2032 112.708 91.5779C113.83 91.8485 114.405 92.1677 114.883 91.7722C114.975 91.6767 115.08 91.5949 115.195 91.5293C115.479 91.4044 115.84 91.453 116.539 91.9318C117.475 92.5911 117.364 92.8894 117.842 93.049C118.472 93.2642 118.645 92.7437 119.643 92.7507C120.236 92.772 120.815 92.9337 121.333 93.2225C122.116 93.6458 122.102 93.965 122.615 94.0761C123.384 94.2496 123.543 93.5695 124.396 93.5626C124.903 93.633 125.389 93.8112 125.821 94.0853C126.254 94.3594 126.623 94.723 126.904 95.1517C127.181 95.5195 127.333 95.8456 127.562 95.8456C127.991 95.7762 128.054 94.5271 128.511 94.4577C128.691 94.4577 128.788 94.6035 129.148 94.999C129.841 95.797 130.229 96.1926 130.534 96.1787C131.137 96.144 131.157 94.9019 131.919 94.6243C132.522 94.3953 133.166 94.9435 134.136 95.7693C134.658 96.3216 135.219 96.8364 135.813 97.3098C136.201 97.5666 137.309 98.3022 137.732 97.865C138.155 97.4278 137.247 95.7832 137.787 95.0892C138.252 94.4924 139.623 94.7492 140.496 95.457C141.113 95.9636 141.362 96.5881 141.632 96.4771C142.02 96.3175 141.75 94.9296 142.201 94.6937C142.464 94.5549 142.727 94.9366 143.773 95.6166C144.466 96.0538 144.785 96.2689 144.958 96.1579C145.131 96.0469 145.339 95.1586 144.708 92.3967" fill="#8DA43F"/>
<path d="M172.234 94.4161C171.541 96.2342 170.966 97.6915 170.495 98.8295C170.411 98.9744 170.377 99.1424 170.398 99.3084C170.64 99.8982 173.689 96.2342 174.638 97.4625C175.427 98.4895 174.125 102.119 174.825 102.903C175.524 103.687 177.395 101.515 178.42 99.7941C178.543 99.549 178.689 99.3165 178.857 99.1002C179.189 98.7116 179.827 98.1633 181.967 98.2813C183.471 98.3646 184.309 98.6977 184.739 97.8649C184.812 97.6794 184.91 97.5044 185.03 97.3445C185.335 97.0322 185.799 96.9837 186.859 97.5735C188.244 98.3646 188.244 98.9128 188.937 99.0308C189.796 99.1834 189.81 98.2466 191.057 97.9135C191.823 97.7495 192.62 97.8321 193.336 98.1495C194.473 98.5936 194.583 99.1418 195.269 99.1626C196.288 99.1973 196.225 97.9829 197.285 97.6845C198.345 97.3861 200.008 98.3785 201.026 99.5304C201.511 100.072 201.837 100.613 202.114 100.467C202.62 100.217 202.211 98.0662 202.751 97.7956C202.959 97.6915 203.153 97.9552 203.756 98.4895C204.962 99.5998 205.564 100.155 205.966 100.009C206.707 99.7525 206.243 97.636 207.075 96.8934C207.767 96.3105 208.751 97.0184 210.289 98.094C211.675 99.0794 211.848 99.5721 212.963 100.176C213.545 100.481 215.215 101.349 215.575 100.467C215.998 99.4333 214.19 97.1155 214.564 95.7276C214.903 94.5549 216.704 94.5202 218.069 95.4362C219.032 96.0815 219.58 97.0669 219.871 96.7824C220.293 96.3799 219.413 94.1107 219.871 93.5556C220.148 93.2294 220.626 93.7915 222.185 94.5826C223.189 95.0961 223.695 95.346 223.875 95.1031C224.145 94.7214 223.958 93.278 222.101 88.7882" fill="#8DA43F"/>
<path d="M100.716 68.5946C97.3555 69.9825 96.9259 71.3704 96.5588 72.0643C95.2793 74.5102 94.8548 77.3149 95.3533 80.0307C95.7953 82.7442 97.258 85.1852 99.4408 86.8521C100.955 87.8856 102.689 88.5509 104.505 88.7952C144.404 95.1516 157.698 95.8942 157.698 95.8942C162.922 96.1856 181.836 96.6644 197.451 95.6999C202.352 95.6991 207.236 95.1168 212 93.965C219.06 92.3204 222.628 91.446 224.602 88.8784C227.616 84.9369 226.113 79.1008 223.217 75.1107C222.296 74.075 221.145 73.2714 219.857 72.7652" fill="#A83C27"/>
<path d="M101.041 68.5946C97.7228 69.691 97.3002 70.725 96.9468 71.2593C96.3316 72.142 95.9057 73.1428 95.6958 74.1986C95.4859 75.2544 95.4967 76.3423 95.7275 77.3937C95.9809 78.5036 96.4696 79.5458 97.1606 80.4498C97.8515 81.3538 98.7284 82.0984 99.7319 82.633C101.282 83.44 102.974 83.9395 104.713 84.1041C144.016 88.8437 157.117 89.3642 157.117 89.3642C162.264 89.5654 180.907 89.8638 196.301 89.0519C201.105 89.0322 205.896 88.5676 210.615 87.6641C217.584 86.3733 221.104 85.6794 223.085 83.6947C226.078 80.6553 224.616 76.1724 221.762 73.1052C220.799 72.2829 219.676 71.6708 218.464 71.3079" fill="#BD5E48"/>
<mask id="mask0_500_1834" style="mask-type:luminance" maskUnits="userSpaceOnUse" x="99" y="33" width="123" height="54">
<path d="M163.906 33.0025C163.906 33.0025 202.426 32.0587 220.716 67.0957C236.366 97.0877 92.9078 89.3017 99.7665 67.63C104.699 52.0164 128.857 32.8567 163.906 33.0025Z" fill="white"/>
</mask>
<g mask="url(#mask0_500_1834)">
<path d="M212.631 76.9982H206.312C206.129 76.9982 205.952 77.0713 205.822 77.2014C205.692 77.3316 205.62 77.5081 205.62 77.6921V77.9766C205.64 78.1704 205.733 78.3493 205.879 78.4779C206.026 78.6064 206.215 78.6752 206.409 78.6706H212.7C212.794 78.6763 212.889 78.6625 212.978 78.6302C213.067 78.5979 213.148 78.5477 213.217 78.4827C213.286 78.4177 213.341 78.3392 213.378 78.2522C213.415 78.1651 213.434 78.0714 213.434 77.9766V77.6921C213.415 77.4952 213.321 77.3133 213.171 77.1841C213.022 77.0549 212.828 76.9883 212.631 76.9982Z" fill="#FDD869"/>
<path d="M171.43 82.1681H165.139C164.955 82.1681 164.779 82.2412 164.649 82.3713C164.519 82.5015 164.446 82.6779 164.446 82.862V83.1465C164.467 83.3403 164.56 83.5192 164.706 83.6477C164.853 83.7763 165.042 83.845 165.236 83.8404H171.527C171.621 83.8461 171.716 83.8324 171.805 83.8001C171.894 83.7677 171.975 83.7175 172.044 83.6525C172.113 83.5875 172.167 83.5091 172.205 83.422C172.242 83.335 172.261 83.2413 172.261 83.1465V82.862C172.242 82.6599 172.144 82.4737 171.988 82.3438C171.832 82.2138 171.632 82.1507 171.43 82.1681Z" fill="#FDD869"/>
<path d="M124.202 77.0606H117.911C117.817 77.055 117.722 77.0687 117.633 77.101C117.544 77.1333 117.463 77.1835 117.394 77.2485C117.325 77.3136 117.27 77.392 117.233 77.479C117.196 77.566 117.176 77.6598 117.177 77.7546V78.0391C117.196 78.2335 117.288 78.4134 117.435 78.5422C117.581 78.671 117.771 78.7392 117.966 78.733H124.25C124.345 78.7387 124.439 78.725 124.528 78.6926C124.617 78.6603 124.698 78.6101 124.767 78.5451C124.836 78.4801 124.891 78.4017 124.928 78.3146C124.965 78.2276 124.985 78.1338 124.984 78.0391V77.7476C124.964 77.5557 124.872 77.3786 124.727 77.2513C124.582 77.1241 124.394 77.056 124.202 77.0606Z" fill="#FDD869"/>
<path d="M117.551 71.6132H113.269C113.214 71.6104 113.158 71.6189 113.106 71.6382C113.054 71.6575 113.007 71.6872 112.967 71.7255C112.926 71.7638 112.894 71.8099 112.873 71.861C112.851 71.9121 112.84 71.9671 112.84 72.0227V72.217C112.848 72.3305 112.901 72.436 112.987 72.5112C113.072 72.5864 113.183 72.6252 113.297 72.6194H117.578C117.633 72.6223 117.689 72.6138 117.74 72.5944C117.792 72.575 117.839 72.5452 117.879 72.5068C117.918 72.4684 117.95 72.4222 117.971 72.3712C117.992 72.3201 118.002 72.2652 118.001 72.21V72.0157C117.989 71.9047 117.936 71.8021 117.853 71.7277C117.77 71.6534 117.662 71.6126 117.551 71.6132Z" fill="#FDD869"/>
<path d="M192.331 71.0442H188.05C187.996 71.0414 187.941 71.0497 187.89 71.0686C187.839 71.0876 187.792 71.1168 187.752 71.1544C187.713 71.1921 187.681 71.2374 187.66 71.2877C187.638 71.3379 187.627 71.392 187.627 71.4467V71.6479C187.638 71.7608 187.691 71.8653 187.776 71.9401C187.861 72.015 187.972 72.0544 188.085 72.0504H192.366C192.421 72.0533 192.476 72.0447 192.528 72.0254C192.58 72.006 192.627 71.9762 192.666 71.9378C192.706 71.8993 192.737 71.8532 192.758 71.8021C192.779 71.7511 192.79 71.6962 192.789 71.641V71.4467C192.778 71.3338 192.725 71.2292 192.64 71.1544C192.555 71.0796 192.445 71.0401 192.331 71.0442Z" fill="#FDD869"/>
<path d="M218.325 68.3309H214.044C213.99 68.3281 213.935 68.3364 213.884 68.3554C213.833 68.3743 213.786 68.4035 213.746 68.4412C213.707 68.4789 213.675 68.5242 213.654 68.5744C213.632 68.6247 213.621 68.6788 213.621 68.7334V68.9346C213.632 69.0475 213.685 69.1521 213.77 69.2269C213.855 69.3017 213.965 69.3412 214.079 69.3371H218.36C218.415 69.34 218.47 69.3315 218.522 69.3121C218.574 69.2927 218.621 69.2629 218.66 69.2245C218.7 69.1861 218.731 69.1399 218.752 69.0889C218.773 69.0378 218.784 68.983 218.783 68.9277V68.7334C218.771 68.6212 218.717 68.5176 218.632 68.4431C218.548 68.3685 218.438 68.3285 218.325 68.3309Z" fill="#FDD869"/>
<path d="M94.0301 73.2024C89.6239 59.9204 133.146 25.0083 174.977 33.2593C196.807 37.5617 211.404 52.3703 217.688 58.6297C224.678 65.569 232.188 73.0844 230.117 79.2397C227.457 87.1297 210.718 87.9902 187.066 89.2254C158.606 90.7035 136.54 87.9902 116.227 82.5844C102.274 78.8719 95.2702 76.9358 94.0578 73.1954L94.0301 73.2024Z" fill="#F7B23A"/>
<path d="M136.416 75.4924C246.813 72.5501 176.453 38.4777 180.499 34.9039C180.983 34.4806 180.824 34.8345 185.217 35.6325C200.022 38.325 216.309 55.611 220.743 59.6983C225.177 63.7856 231.551 75.7491 230.11 79.2466C228.267 83.7225 217.252 89.8708 201.13 90.5717C181.732 91.4113 133.173 88.2262 119.802 83.6947C115.479 82.2236 110.99 81.5713 112.057 81.1757C115.375 79.9613 124.562 75.8046 136.416 75.4924Z" fill="#F8952D"/>
<path d="M207.054 79.9267H203.659C203.542 79.921 203.425 79.9393 203.315 79.9803C203.205 80.0214 203.104 80.0844 203.019 80.1655C202.935 80.2466 202.867 80.3442 202.821 80.4522C202.775 80.5603 202.751 80.6766 202.751 80.7941V81.0925C202.771 81.3342 202.882 81.5591 203.063 81.7206C203.244 81.8821 203.479 81.9678 203.721 81.9599H207.116C207.233 81.9656 207.35 81.9473 207.46 81.9062C207.57 81.8652 207.67 81.8022 207.755 81.7211C207.84 81.6399 207.908 81.5424 207.954 81.4343C208 81.3263 208.024 81.21 208.023 81.0925V80.7872C208.001 80.5473 207.888 80.3251 207.708 80.1653C207.528 80.0056 207.294 79.9203 207.054 79.9267Z" fill="#FDD869"/>
<path d="M196.253 52.0927H194.334C194.217 52.0871 194.1 52.1054 193.99 52.1464C193.88 52.1875 193.779 52.2505 193.694 52.3316C193.61 52.4127 193.542 52.5103 193.496 52.6183C193.45 52.7264 193.426 52.8427 193.426 52.9602V53.2655C193.449 53.5072 193.562 53.7312 193.744 53.8922C193.925 54.0532 194.161 54.1393 194.403 54.1329H196.322C196.439 54.1395 196.556 54.1222 196.666 54.0819C196.776 54.0416 196.876 53.9793 196.961 53.8987C197.046 53.8182 197.114 53.721 197.16 53.6133C197.206 53.5056 197.23 53.3896 197.23 53.2724V52.9671C197.209 52.7242 197.096 52.4985 196.914 52.336C196.733 52.1735 196.496 52.0865 196.253 52.0927Z" fill="#FDD869"/>
<path d="M117.738 70.836H116.318C116.201 70.8304 116.084 70.8486 115.974 70.8898C115.865 70.9309 115.765 70.994 115.681 71.0752C115.596 71.1564 115.529 71.2541 115.484 71.3621C115.439 71.4701 115.416 71.5863 115.417 71.7035V72.0088C115.441 72.2492 115.556 72.4715 115.737 72.6311C115.918 72.7907 116.153 72.8758 116.394 72.8693H117.779C117.896 72.8749 118.013 72.8567 118.123 72.8155C118.232 72.7744 118.332 72.7113 118.416 72.63C118.501 72.5488 118.568 72.4512 118.613 72.3432C118.658 72.2352 118.681 72.119 118.68 72.0018V71.7035C118.658 71.4678 118.549 71.2487 118.375 71.0886C118.201 70.9284 117.974 70.8384 117.738 70.836Z" fill="#FDD869"/>
<path d="M147.341 47.8874H143.073C142.954 47.8818 142.835 47.9004 142.723 47.9421C142.611 47.9838 142.508 48.0477 142.422 48.13C142.335 48.2123 142.266 48.3113 142.218 48.4211C142.171 48.5308 142.146 48.6491 142.145 48.7687V49.0394C142.168 49.2859 142.284 49.5145 142.469 49.6783C142.655 49.8421 142.896 49.9288 143.143 49.9207H147.424C147.544 49.9263 147.664 49.9075 147.776 49.8654C147.889 49.8233 147.991 49.7587 148.078 49.6757C148.165 49.5926 148.234 49.4928 148.281 49.3822C148.328 49.2717 148.353 49.1527 148.353 49.0324V48.7687C148.33 48.5196 148.212 48.289 148.023 48.1249C147.835 47.9607 147.591 47.8757 147.341 47.8874Z" fill="#FDD869"/>
<path d="M186.076 73.2509H184.337C184.22 73.2443 184.104 73.2617 183.994 73.302C183.885 73.3423 183.784 73.4048 183.7 73.4855C183.616 73.5661 183.549 73.6633 183.503 73.771C183.458 73.8787 183.435 73.9945 183.436 74.1114V74.4167C183.459 74.6584 183.572 74.8824 183.754 75.0435C183.935 75.2045 184.171 75.2905 184.413 75.2842H186.152C186.269 75.2888 186.386 75.2699 186.495 75.2285C186.604 75.187 186.704 75.124 186.789 75.0431C186.874 74.9622 186.941 74.865 186.988 74.7574C187.034 74.6498 187.059 74.534 187.059 74.4167V74.1114C187.035 73.8698 186.92 73.6465 186.737 73.4867C186.554 73.3269 186.318 73.2426 186.076 73.2509Z" fill="#FDD869"/>
<path d="M174.776 82.3207H171.554C171.435 82.3151 171.316 82.3337 171.204 82.3754C171.092 82.4171 170.99 82.481 170.903 82.5633C170.816 82.6456 170.747 82.7446 170.699 82.8544C170.652 82.9641 170.627 83.0824 170.626 83.202V83.4727C170.631 83.6034 170.663 83.7317 170.719 83.85C170.775 83.9682 170.854 84.0739 170.952 84.1607C171.049 84.2476 171.163 84.3138 171.287 84.3553C171.411 84.3969 171.542 84.4129 171.672 84.4025H174.894C175.014 84.4082 175.134 84.3894 175.246 84.3473C175.358 84.3052 175.461 84.2406 175.548 84.1576C175.635 84.0745 175.704 83.9747 175.751 83.8641C175.798 83.7535 175.822 83.6345 175.822 83.5143V83.2506C175.818 83.1195 175.787 82.9907 175.732 82.872C175.676 82.7533 175.597 82.6472 175.499 82.5602C175.401 82.4732 175.286 82.407 175.162 82.3659C175.038 82.3247 174.906 82.3093 174.776 82.3207Z" fill="#FDD869"/>
<path d="M162.61 61.2319H160.532C160.443 61.2262 160.354 61.2389 160.27 61.2691C160.186 61.2993 160.109 61.3464 160.044 61.4076C159.979 61.4687 159.928 61.5426 159.892 61.6246C159.857 61.7066 159.839 61.7949 159.839 61.8842V62.0854C159.845 62.1766 159.868 62.2659 159.908 62.348C159.947 62.4302 160.003 62.5037 160.071 62.5643C160.139 62.6249 160.219 62.6714 160.305 62.7012C160.391 62.731 160.483 62.7434 160.574 62.7377H162.652C162.741 62.7445 162.831 62.7326 162.915 62.7027C162.999 62.6729 163.077 62.6258 163.142 62.5645C163.207 62.5031 163.259 62.4288 163.294 62.3463C163.329 62.2639 163.346 62.175 163.345 62.0854V61.8842C163.339 61.793 163.316 61.7038 163.276 61.6216C163.237 61.5394 163.181 61.4659 163.113 61.4053C163.045 61.3447 162.965 61.2982 162.879 61.2684C162.793 61.2387 162.701 61.2263 162.61 61.2319Z" fill="#FDD869"/>
<path d="M126.176 55.6596H122.116C122.009 55.6539 121.901 55.6704 121.8 55.708C121.699 55.7457 121.606 55.8037 121.528 55.8784C121.45 55.9532 121.389 56.0432 121.347 56.1428C121.305 56.2424 121.284 56.3496 121.285 56.4576V56.7075C121.306 56.9301 121.411 57.1364 121.578 57.2846C121.745 57.4328 121.962 57.5118 122.186 57.5055H126.245C126.353 57.5112 126.461 57.4947 126.562 57.4571C126.663 57.4194 126.756 57.3614 126.833 57.2867C126.911 57.2119 126.973 57.1219 127.015 57.0223C127.057 56.9227 127.078 56.8155 127.077 56.7075V56.4576C127.056 56.235 126.951 56.0286 126.784 55.8805C126.617 55.7323 126.399 55.6533 126.176 55.6596Z" fill="#FDD869"/>
<path d="M184.489 42.322H181.108C181.012 42.3133 180.915 42.3248 180.824 42.3558C180.733 42.3867 180.649 42.4365 180.578 42.5018C180.506 42.5671 180.45 42.6466 180.411 42.7351C180.372 42.8237 180.353 42.9193 180.353 43.016V43.245C180.379 43.4417 180.477 43.6219 180.628 43.7502C180.779 43.8785 180.973 43.9458 181.171 43.9389H184.551C184.651 43.9491 184.752 43.9375 184.846 43.905C184.941 43.8725 185.028 43.8198 185.1 43.7505C185.173 43.6813 185.229 43.5971 185.266 43.5038C185.303 43.4106 185.319 43.3104 185.313 43.2103V42.9882C185.28 42.7959 185.178 42.6224 185.026 42.4998C184.875 42.3773 184.684 42.3141 184.489 42.322Z" fill="#FDD869"/>
<path d="M212.194 71.5508H210.691C210.594 71.5411 210.497 71.5518 210.404 71.5823C210.312 71.6128 210.227 71.6624 210.156 71.7278C210.084 71.7932 210.026 71.8731 209.987 71.9621C209.948 72.0512 209.928 72.1475 209.929 72.2448V72.4737C209.948 72.6774 210.044 72.866 210.197 73.0014C210.35 73.1367 210.549 73.2086 210.753 73.2024H212.257C212.356 73.2115 212.456 73.1991 212.549 73.1661C212.643 73.1331 212.729 73.0803 212.801 73.0111C212.872 72.942 212.928 72.8582 212.965 72.7655C213.001 72.6728 213.017 72.5732 213.012 72.4737V72.2448C212.986 72.048 212.888 71.8679 212.737 71.7395C212.586 71.6112 212.392 71.544 212.194 71.5508Z" fill="#FDD869"/>
<path d="M147.729 78.289H144.598C144.501 78.2792 144.403 78.29 144.311 78.3205C144.219 78.351 144.134 78.4005 144.062 78.466C143.99 78.5314 143.933 78.6112 143.894 78.7003C143.855 78.7893 143.835 78.8856 143.836 78.9829V79.2119C143.855 79.4155 143.951 79.6042 144.104 79.7395C144.257 79.8749 144.456 79.9468 144.66 79.9405H147.791C147.891 79.9507 147.992 79.9392 148.086 79.9066C148.181 79.8741 148.268 79.8214 148.34 79.7522C148.413 79.6829 148.469 79.5987 148.506 79.5055C148.543 79.4122 148.559 79.312 148.554 79.2119V78.9829C148.528 78.7849 148.429 78.6038 148.276 78.4753C148.123 78.3468 147.928 78.2803 147.729 78.289Z" fill="#FDD869"/>
<path d="M129.065 45.1811H126.987C126.898 45.1754 126.808 45.188 126.725 45.2183C126.641 45.2485 126.564 45.2956 126.499 45.3568C126.434 45.4179 126.382 45.4918 126.347 45.5737C126.312 45.6557 126.294 45.7441 126.294 45.8334V46.0346C126.299 46.1258 126.322 46.2151 126.362 46.2972C126.402 46.3794 126.458 46.4529 126.526 46.5135C126.594 46.5741 126.674 46.6206 126.76 46.6504C126.846 46.6801 126.937 46.6926 127.028 46.6869H129.107C129.196 46.6926 129.285 46.68 129.369 46.6498C129.453 46.6195 129.529 46.5724 129.594 46.5112C129.659 46.4501 129.711 46.3762 129.746 46.2943C129.781 46.2123 129.8 46.1239 129.799 46.0346V45.8334C129.794 45.7422 129.771 45.653 129.731 45.5708C129.691 45.4886 129.636 45.4151 129.567 45.3545C129.499 45.2939 129.42 45.2474 129.333 45.2176C129.247 45.1879 129.156 45.1754 129.065 45.1811Z" fill="#FDD869"/>
</g>
<path d="M157.918 101.348C159.171 100.078 159.159 98.0303 157.891 96.775C156.622 95.5196 154.578 95.5318 153.325 96.8022L136.048 114.315C134.794 115.585 134.806 117.633 136.075 118.888C137.343 120.143 139.387 120.131 140.64 118.861L157.918 101.348Z" fill="#666666"/>
<path d="M148.184 116.922C150.892 114.176 150.866 109.752 148.125 107.039C145.385 104.326 140.967 104.353 138.259 107.098L100.904 144.961C98.1955 147.706 98.2217 152.131 100.962 154.844C103.703 157.556 108.12 157.53 110.828 154.785L148.184 116.922Z" fill="#333333"/>
<path opacity="0.5" d="M228.737 70.1416C232.95 47.572 218.105 25.8562 195.58 21.6379C173.055 17.4196 151.379 32.2962 147.167 54.8658C142.954 77.4353 157.799 99.1512 180.324 103.369C202.849 107.588 224.524 92.7111 228.737 70.1416Z" fill="#BEF4EF"/>
<path d="M196.872 104.765C188.911 106.289 180.677 105.414 173.212 102.251C165.747 99.0876 159.386 93.7786 154.933 86.9948C150.48 80.211 148.135 72.257 148.195 64.1385C148.255 56.0199 150.716 48.1014 155.269 41.384C159.821 34.6667 166.259 29.4521 173.77 26.3996C181.281 23.3471 189.526 22.5938 197.465 24.2349C205.403 25.8759 212.677 29.8377 218.367 35.6193C224.058 41.4009 227.909 48.7427 229.434 56.7164C230.451 62.0133 230.415 67.459 229.328 72.742C228.241 78.0249 226.125 83.0413 223.101 87.5042C220.076 91.967 216.203 95.7887 211.702 98.7505C207.202 101.712 202.162 103.756 196.872 104.765ZM234.803 55.6755C233.069 46.6353 228.697 38.3132 222.242 31.7613C215.786 25.2094 207.535 20.7218 198.534 18.8661C189.532 17.0104 180.183 17.8698 171.668 21.3356C163.154 24.8014 155.857 30.718 150.7 38.3375C145.542 45.9569 142.756 54.9369 142.693 64.1423C142.63 73.3477 145.294 82.365 150.347 90.0542C155.4 97.7434 162.616 103.759 171.083 107.341C179.549 110.923 188.885 111.91 197.912 110.177C203.908 109.027 209.619 106.705 214.719 103.343C219.819 99.9812 224.207 95.6455 227.633 90.584C231.059 85.5224 233.456 79.8342 234.686 73.8444C235.916 67.8546 235.956 61.6807 234.803 55.6755Z" fill="#666666"/>
<path d="M193.914 102.634C185.872 104.181 177.553 103.305 170.008 100.116C162.463 96.9278 156.032 91.57 151.527 84.7205C147.021 77.871 144.645 69.8373 144.698 61.6351C144.75 53.4328 147.23 45.4304 151.822 38.6395C156.415 31.8486 162.915 26.5742 170.5 23.4831C178.086 20.392 186.415 19.623 194.437 21.2734C202.458 22.9237 209.811 26.9193 215.566 32.7549C221.32 38.5906 225.218 46.0043 226.767 54.0587C227.797 59.4097 227.765 64.9116 226.67 70.2499C225.576 75.5882 223.442 80.658 220.391 85.1695C217.339 89.6811 213.429 93.5457 208.885 96.5425C204.34 99.5392 199.251 101.609 193.907 102.634H193.914ZM232.233 53.0386C230.482 43.905 226.066 35.4965 219.545 28.8764C213.023 22.2562 204.688 17.7216 195.594 15.8459C186.499 13.9702 177.054 14.8376 168.451 18.3384C159.849 21.8393 152.476 27.8164 147.265 35.5141C142.054 43.2117 139.238 52.2842 139.175 61.5845C139.111 70.8847 141.801 79.9952 146.906 87.7638C152.011 95.5325 159.302 101.611 167.855 105.23C176.408 108.849 185.841 109.846 194.96 108.096C201.018 106.935 206.789 104.589 211.941 101.194C217.093 97.7977 221.527 93.4179 224.989 88.3047C228.45 83.1914 230.872 77.445 232.115 71.3938C233.358 65.3426 233.398 59.1053 232.233 53.0386Z" fill="#B3B3B3"/>
<path opacity="0.5" d="M202.602 38.2854C206.669 32.3939 194.448 21.2423 177.62 27.7306C168.017 31.4362 160.182 38.4797 157.466 45.6203C152.7 58.1806 158.159 60.8176 162.821 61.3519C168.114 61.9626 173.061 53.5035 186.377 48.5071C197.08 44.5239 200.641 41.2485 202.602 38.2854Z" fill="white"/>
<path d="M0 172.526H17.9019V175.302H3.35313V187.689H15.6642V190.464H3.35313V205.731H0.0345893L0 172.526Z" fill="#333333"/>
<path d="M22.5991 172.429C22.5991 171.785 22.8546 171.167 23.3093 170.711C23.7641 170.256 24.3808 170 25.0239 170C25.667 170 26.2838 170.256 26.7385 170.711C27.1932 171.167 27.4487 171.785 27.4487 172.429C27.4487 173.073 27.1932 173.691 26.7385 174.146C26.2838 174.602 25.667 174.858 25.0239 174.858C24.3808 174.858 23.7641 174.602 23.3093 174.146C22.8546 173.691 22.5991 173.073 22.5991 172.429ZM23.3542 179.785H26.6728V205.689H23.3542V179.785Z" fill="#333333"/>
<path d="M53.5813 190.888C53.5813 185.142 50.4568 182.199 45.718 182.199C40.9793 182.199 37.5221 185.239 37.5221 191.547V205.689H34.1829V179.785H37.4945V184.198C39.1572 180.971 42.4688 179.34 46.3069 179.34C52.1818 179.34 56.8236 182.949 56.8236 190.541V205.724H53.5813V190.888Z" fill="#333333"/>
<path d="M75.0578 179.41C79.6996 179.41 83.5792 181.97 85.242 185.385V170.576H88.5536V205.689H85.242V199.902C83.7247 203.316 80.1222 206.071 75.0094 206.071C67.9012 206.071 62.6428 200.804 62.6428 192.685C62.6428 184.566 67.9289 179.41 75.0578 179.41ZM75.6259 182.304C70.1736 182.304 66.0098 186.099 66.0098 192.713C66.0098 199.326 70.1666 203.205 75.6259 203.205C80.9258 203.205 85.242 199.215 85.242 192.761C85.242 186.308 80.9536 182.297 75.6536 182.297L75.6259 182.304Z" fill="#333333"/>
<path d="M96.1603 172.949H99.666L112.316 201.324L124.939 172.949H128.486V205.689H125.175V179.542L113.522 205.689H111.104L99.4511 179.639V205.689H96.1327L96.1603 172.949Z" fill="#9BB841"/>
<path d="M153.954 179.785H157.369L142.017 217.882H138.553L143.576 205.544L132.962 179.785H136.613L145.426 201.893L153.954 179.785Z" fill="#9BB841"/>
<path d="M173.331 205.689H161.865V172.526H172.999C179.961 172.526 183.28 176.225 183.28 180.853C183.28 185.218 180.509 187.64 177.356 188.542C179.255 188.923 180.96 189.956 182.18 191.462C183.399 192.969 184.055 194.854 184.035 196.793C184.035 201.796 180.294 205.689 173.331 205.689ZM172.763 175.323H165.184V187.182H172.909C177.405 187.182 179.92 184.906 179.92 181.207C179.92 177.647 177.55 175.323 172.742 175.323H172.763ZM172.95 189.937H165.184V202.886H173.096C177.883 202.886 180.717 200.471 180.717 196.481C180.717 192.491 177.689 189.937 172.95 189.937Z" fill="#B3B3B3"/>
<path d="M212.558 205.689H209.239V201.137C207.674 204.405 204.265 206.113 200.427 206.113C194.552 206.113 189.91 202.511 189.91 194.919V179.785H193.18V194.538C193.18 200.277 196.305 203.219 201.043 203.219C205.782 203.219 209.239 200.186 209.239 193.871V179.785H212.558V205.689Z" fill="#B3B3B3"/>
<path d="M223.448 205.689H220.137V179.785H223.448V184.385C224.876 181.207 227.855 179.306 232.309 179.306V182.775H231.409C227.1 182.775 223.448 184.725 223.448 191.221V205.689Z" fill="#B3B3B3"/>
<path d="M248.133 179.41C253.246 179.41 256.897 182.186 258.366 185.433V179.791H261.677V206.362C261.677 213.621 256.703 218.409 249.602 218.409C242.923 218.409 238.282 214.995 237.235 209.589H240.506C241.593 213.101 244.863 215.515 249.602 215.515C254.528 215.515 258.366 212.24 258.366 206.362V199.95C256.849 203.267 253.246 206.071 248.133 206.071C241.025 206.071 235.767 200.804 235.767 192.685C235.767 184.566 241.025 179.41 248.133 179.41ZM248.75 182.304C243.297 182.304 239.134 186.099 239.134 192.713C239.134 199.326 243.291 203.205 248.75 203.205C254.057 203.205 258.366 199.215 258.366 192.761C258.366 186.308 254.057 182.297 248.75 182.297V182.304Z" fill="#B3B3B3"/>
<path d="M281.692 206.066C274.355 206.066 269 200.938 269 192.729C269 184.519 274.258 179.405 281.692 179.405C289.271 179.405 293.913 184.811 293.913 191.41C293.931 192.281 293.9 193.152 293.823 194.019H272.346C272.63 200.091 276.849 203.27 281.678 203.27C286.084 203.27 289.07 200.945 289.992 197.482H293.497C292.354 202.36 288.184 206.066 281.692 206.066ZM272.36 191.306H290.553C290.698 185.283 286.341 182.243 281.547 182.243C276.752 182.243 272.741 185.283 272.36 191.306Z" fill="#B3B3B3"/>
<path d="M304.312 205.789H301V179.884H304.312V184.485C305.739 181.306 308.718 179.405 313.172 179.405V182.875H312.272C307.963 182.875 304.312 184.825 304.312 191.32V205.789Z" fill="#B3B3B3"/>
<path d="M230.85 19.5912C230.401 13.5256 239.537 2.01663 245.192 7.93032C250.847 13.844 231.306 25.6649 230.85 19.5912Z" fill="#9BB841"/>
<path d="M235.893 25.4631C238.263 20.9594 249.873 16.805 251.272 23.5317C252.672 30.2585 233.52 29.9872 235.893 25.4631Z" fill="#9BB841"/>
<path d="M224.82 15.7183C221.687 11.6857 222.74 -0.608956 229.437 0.895944C236.134 2.40084 227.954 19.7509 224.82 15.7183Z" fill="#9BB841"/>
<defs>
<radialGradient id="paint0_radial_500_1834" cx="0" cy="0" r="1" gradientUnits="userSpaceOnUse" gradientTransform="translate(160.449 131.415) scale(91.318 24.6964)">
<stop stop-opacity="0.5"/>
<stop offset="0.02" stop-opacity="0.47"/>
<stop offset="1" stop-opacity="0"/>
</radialGradient>
</defs>
</svg>
