<svg width="283" height="40" viewBox="0 0 283 40" fill="none" xmlns="http://www.w3.org/2000/svg">
<rect width="283" height="40" rx="18" fill="#F7B23A"/>
<path d="M101.466 17H99.7045C99.6004 16.4934 99.4181 16.0483 99.1577 15.6648C98.902 15.2812 98.5895 14.9593 98.2202 14.6989C97.8556 14.4337 97.4508 14.2348 97.0057 14.1023C96.5606 13.9697 96.0966 13.9034 95.6136 13.9034C94.733 13.9034 93.9351 14.1259 93.2202 14.571C92.5099 15.0161 91.9441 15.6719 91.5227 16.5384C91.1061 17.4048 90.8977 18.4678 90.8977 19.7273C90.8977 20.9867 91.1061 22.0497 91.5227 22.9162C91.9441 23.7827 92.5099 24.4384 93.2202 24.8835C93.9351 25.3286 94.733 25.5511 95.6136 25.5511C96.0966 25.5511 96.5606 25.4848 97.0057 25.3523C97.4508 25.2197 97.8556 25.0232 98.2202 24.7628C98.5895 24.4976 98.902 24.1733 99.1577 23.7898C99.4181 23.4015 99.6004 22.9564 99.7045 22.4545H101.466C101.333 23.1979 101.092 23.8632 100.741 24.4503C100.391 25.0374 99.9555 25.5369 99.4347 25.9489C98.9138 26.3561 98.3291 26.6662 97.6804 26.8793C97.0365 27.0923 96.3475 27.1989 95.6136 27.1989C94.3731 27.1989 93.2699 26.8958 92.304 26.2898C91.3381 25.6837 90.5781 24.822 90.0241 23.7045C89.4702 22.5871 89.1932 21.2614 89.1932 19.7273C89.1932 18.1932 89.4702 16.8674 90.0241 15.75C90.5781 14.6326 91.3381 13.7708 92.304 13.1648C93.2699 12.5587 94.3731 12.2557 95.6136 12.2557C96.3475 12.2557 97.0365 12.3622 97.6804 12.5753C98.3291 12.7884 98.9138 13.1009 99.4347 13.5128C99.9555 13.92 100.391 14.4171 100.741 15.0043C101.092 15.5866 101.333 16.2519 101.466 17ZM108.109 27.2273C107.124 27.2273 106.26 26.9929 105.516 26.5241C104.778 26.0554 104.2 25.3996 103.783 24.5568C103.371 23.714 103.166 22.7292 103.166 21.6023C103.166 20.4659 103.371 19.474 103.783 18.6264C104.2 17.7789 104.778 17.1207 105.516 16.652C106.26 16.1832 107.124 15.9489 108.109 15.9489C109.094 15.9489 109.955 16.1832 110.694 16.652C111.437 17.1207 112.015 17.7789 112.427 18.6264C112.844 19.474 113.052 20.4659 113.052 21.6023C113.052 22.7292 112.844 23.714 112.427 24.5568C112.015 25.3996 111.437 26.0554 110.694 26.5241C109.955 26.9929 109.094 27.2273 108.109 27.2273ZM108.109 25.7216C108.857 25.7216 109.472 25.5298 109.955 25.1463C110.438 24.7628 110.796 24.2585 111.028 23.6335C111.26 23.0085 111.376 22.3314 111.376 21.6023C111.376 20.8731 111.26 20.1937 111.028 19.5639C110.796 18.9342 110.438 18.4252 109.955 18.0369C109.472 17.6487 108.857 17.4545 108.109 17.4545C107.361 17.4545 106.745 17.6487 106.262 18.0369C105.779 18.4252 105.422 18.9342 105.19 19.5639C104.958 20.1937 104.842 20.8731 104.842 21.6023C104.842 22.3314 104.958 23.0085 105.19 23.6335C105.422 24.2585 105.779 24.7628 106.262 25.1463C106.745 25.5298 107.361 25.7216 108.109 25.7216ZM107.342 14.6136L109.075 11.3182H111.035L108.819 14.6136H107.342ZM115.202 27V16.0909H116.822V17.7955H116.964C117.191 17.2131 117.558 16.7609 118.065 16.4389C118.571 16.1122 119.18 15.9489 119.89 15.9489C120.61 15.9489 121.209 16.1122 121.687 16.4389C122.17 16.7609 122.546 17.2131 122.816 17.7955H122.93C123.209 17.232 123.628 16.7846 124.187 16.4531C124.746 16.117 125.416 15.9489 126.197 15.9489C127.172 15.9489 127.97 16.2543 128.59 16.8651C129.211 17.4711 129.521 18.4157 129.521 19.6989V27H127.845V19.6989C127.845 18.8939 127.624 18.3187 127.184 17.973C126.744 17.6274 126.225 17.4545 125.629 17.4545C124.862 17.4545 124.267 17.6866 123.846 18.1506C123.425 18.6098 123.214 19.1922 123.214 19.8977V27H121.509V19.5284C121.509 18.9081 121.308 18.4086 120.906 18.0298C120.503 17.6463 119.985 17.4545 119.35 17.4545C118.915 17.4545 118.507 17.5705 118.129 17.8026C117.755 18.0346 117.452 18.3565 117.22 18.7685C116.992 19.1757 116.879 19.6468 116.879 20.1818V27H115.202ZM136.609 27.2273C135.624 27.2273 134.76 26.9929 134.017 26.5241C133.278 26.0554 132.7 25.3996 132.284 24.5568C131.872 23.714 131.666 22.7292 131.666 21.6023C131.666 20.4659 131.872 19.474 132.284 18.6264C132.7 17.7789 133.278 17.1207 134.017 16.652C134.76 16.1832 135.624 15.9489 136.609 15.9489C137.594 15.9489 138.456 16.1832 139.194 16.652C139.938 17.1207 140.515 17.7789 140.927 18.6264C141.344 19.474 141.552 20.4659 141.552 21.6023C141.552 22.7292 141.344 23.714 140.927 24.5568C140.515 25.3996 139.938 26.0554 139.194 26.5241C138.456 26.9929 137.594 27.2273 136.609 27.2273ZM136.609 25.7216C137.357 25.7216 137.973 25.5298 138.456 25.1463C138.939 24.7628 139.296 24.2585 139.528 23.6335C139.76 23.0085 139.876 22.3314 139.876 21.6023C139.876 20.8731 139.76 20.1937 139.528 19.5639C139.296 18.9342 138.939 18.4252 138.456 18.0369C137.973 17.6487 137.357 17.4545 136.609 17.4545C135.861 17.4545 135.245 17.6487 134.763 18.0369C134.28 18.4252 133.922 18.9342 133.69 19.5639C133.458 20.1937 133.342 20.8731 133.342 21.6023C133.342 22.3314 133.458 23.0085 133.69 23.6335C133.922 24.2585 134.28 24.7628 134.763 25.1463C135.245 25.5298 135.861 25.7216 136.609 25.7216ZM150.596 12.4545V27H148.92V12.4545H150.596ZM154.934 12.4545V27H153.258V12.4545H154.934ZM162.17 27.2273C161.119 27.2273 160.212 26.9953 159.45 26.5312C158.692 26.0625 158.107 25.4091 157.695 24.571C157.288 23.7282 157.085 22.7481 157.085 21.6307C157.085 20.5133 157.288 19.5284 157.695 18.6761C158.107 17.8191 158.68 17.1515 159.414 16.6733C160.153 16.1903 161.015 15.9489 161.999 15.9489C162.568 15.9489 163.129 16.0436 163.683 16.233C164.237 16.4223 164.741 16.7301 165.195 17.1562C165.65 17.5777 166.012 18.1364 166.282 18.8324C166.552 19.5284 166.687 20.3854 166.687 21.4034V22.1136H158.278V20.6648H164.982C164.982 20.0492 164.859 19.5 164.613 19.017C164.372 18.5341 164.026 18.1529 163.576 17.8736C163.131 17.5942 162.606 17.4545 161.999 17.4545C161.332 17.4545 160.754 17.6203 160.267 17.9517C159.784 18.2784 159.412 18.7045 159.151 19.2301C158.891 19.7557 158.761 20.3191 158.761 20.9205V21.8864C158.761 22.7102 158.903 23.4086 159.187 23.9815C159.476 24.5497 159.876 24.983 160.387 25.2812C160.899 25.5748 161.493 25.7216 162.17 25.7216C162.61 25.7216 163.008 25.66 163.363 25.5369C163.723 25.4091 164.033 25.2197 164.294 24.9688C164.554 24.7131 164.755 24.3958 164.897 24.017L166.517 24.4716C166.346 25.0208 166.06 25.5038 165.657 25.9205C165.255 26.3324 164.758 26.6544 164.166 26.8864C163.574 27.1136 162.909 27.2273 162.17 27.2273ZM173.232 31.3182C172.422 31.3182 171.726 31.214 171.144 31.0057C170.562 30.8021 170.076 30.5322 169.688 30.196C169.305 29.8646 168.999 29.5095 168.772 29.1307L170.107 28.1932C170.259 28.392 170.45 28.6193 170.682 28.875C170.914 29.1354 171.232 29.3603 171.634 29.5497C172.041 29.7438 172.574 29.8409 173.232 29.8409C174.113 29.8409 174.84 29.6278 175.412 29.2017C175.985 28.7756 176.272 28.108 176.272 27.1989V24.983H176.13C176.007 25.1818 175.832 25.428 175.604 25.7216C175.382 26.0104 175.06 26.2685 174.638 26.4957C174.222 26.7183 173.658 26.8295 172.948 26.8295C172.067 26.8295 171.277 26.6212 170.576 26.2045C169.88 25.7879 169.328 25.1818 168.921 24.3864C168.519 23.5909 168.317 22.625 168.317 21.4886C168.317 20.3712 168.514 19.3982 168.907 18.5696C169.3 17.7363 169.847 17.0923 170.547 16.6378C171.248 16.1785 172.058 15.9489 172.976 15.9489C173.687 15.9489 174.25 16.0672 174.667 16.304C175.088 16.536 175.41 16.8011 175.633 17.0994C175.86 17.393 176.035 17.6345 176.158 17.8239H176.329V16.0909H177.948V27.3125C177.948 28.25 177.735 29.0123 177.309 29.5994C176.887 30.1913 176.319 30.6245 175.604 30.8991C174.894 31.1785 174.103 31.3182 173.232 31.3182ZM173.175 25.3239C173.848 25.3239 174.416 25.17 174.88 24.8622C175.344 24.5545 175.697 24.1117 175.938 23.5341C176.18 22.9564 176.3 22.2652 176.3 21.4602C176.3 20.6742 176.182 19.9806 175.945 19.3793C175.708 18.7779 175.358 18.3068 174.894 17.9659C174.43 17.625 173.857 17.4545 173.175 17.4545C172.465 17.4545 171.873 17.6345 171.4 17.9943C170.931 18.3542 170.578 18.8371 170.341 19.4432C170.109 20.0492 169.993 20.7216 169.993 21.4602C169.993 22.2178 170.112 22.8878 170.349 23.4702C170.59 24.0478 170.945 24.5024 171.414 24.8338C171.887 25.1605 172.475 25.3239 173.175 25.3239ZM183.818 27.2557C183.127 27.2557 182.5 27.1255 181.936 26.8651C181.373 26.5999 180.925 26.2188 180.594 25.7216C180.263 25.2197 180.097 24.6136 180.097 23.9034C180.097 23.2784 180.22 22.7718 180.466 22.3835C180.712 21.9905 181.041 21.6828 181.453 21.4602C181.865 21.2377 182.32 21.072 182.817 20.9631C183.319 20.8494 183.823 20.7595 184.33 20.6932C184.993 20.608 185.53 20.544 185.942 20.5014C186.359 20.4541 186.662 20.3759 186.851 20.267C187.045 20.1581 187.142 19.9687 187.142 19.6989V19.642C187.142 18.9413 186.951 18.3968 186.567 18.0085C186.188 17.6203 185.613 17.4261 184.841 17.4261C184.041 17.4261 183.414 17.6013 182.959 17.9517C182.504 18.3021 182.185 18.6761 182 19.0739L180.409 18.5057C180.693 17.8428 181.072 17.3267 181.546 16.9574C182.024 16.5833 182.545 16.3229 183.108 16.1761C183.676 16.0246 184.235 15.9489 184.784 15.9489C185.135 15.9489 185.537 15.9915 185.992 16.0767C186.451 16.1572 186.894 16.3253 187.32 16.581C187.751 16.8366 188.108 17.2225 188.392 17.7386C188.676 18.2547 188.818 18.946 188.818 19.8125V27H187.142V25.5227H187.057C186.943 25.7595 186.754 26.0128 186.489 26.2827C186.224 26.5526 185.871 26.7822 185.431 26.9716C184.99 27.161 184.453 27.2557 183.818 27.2557ZM184.074 25.75C184.737 25.75 185.296 25.6198 185.75 25.3594C186.21 25.099 186.555 24.7628 186.787 24.3509C187.024 23.9389 187.142 23.5057 187.142 23.0511V21.517C187.071 21.6023 186.915 21.6804 186.674 21.7514C186.437 21.8177 186.162 21.8769 185.85 21.929C185.542 21.9763 185.241 22.0189 184.948 22.0568C184.659 22.09 184.424 22.1184 184.245 22.142C183.809 22.1989 183.402 22.2912 183.023 22.419C182.649 22.5421 182.346 22.7292 182.114 22.9801C181.887 23.2263 181.773 23.5625 181.773 23.9886C181.773 24.571 181.988 25.0114 182.419 25.3097C182.855 25.6032 183.406 25.75 184.074 25.75ZM191.47 27V16.0909H193.089V17.7386H193.203C193.402 17.1989 193.761 16.7609 194.282 16.4247C194.803 16.0885 195.39 15.9205 196.044 15.9205C196.167 15.9205 196.321 15.9228 196.505 15.9276C196.69 15.9323 196.83 15.9394 196.924 15.9489V17.6534C196.867 17.6392 196.737 17.6179 196.534 17.5895C196.335 17.5563 196.124 17.5398 195.902 17.5398C195.371 17.5398 194.898 17.651 194.481 17.8736C194.069 18.0914 193.742 18.3944 193.501 18.7827C193.264 19.1662 193.146 19.6042 193.146 20.0966V27H191.47Z" fill="white"/>
</svg>
