<svg width="148" height="163" viewBox="0 0 148 163" fill="none" xmlns="http://www.w3.org/2000/svg">
<path d="M74 162.997C114.862 162.997 148 153.558 148 141.949C148 130.34 114.862 120.901 74 120.901C33.1382 120.901 0 130.313 0 141.949C0 153.584 33.1382 162.997 74 162.997Z" fill="url(#paint0_radial_88_374)" fill-opacity="0.6"/>
<path d="M61.3188 66.7503C61.3188 66.7503 61.5275 66.5149 61.5536 66.3842C63.4062 58.5401 46.1065 74.1498 43.8625 62.253C45.1671 62.253 34.756 62.5406 36.165 62.5406C36.165 56.1869 35.9824 46.3033 36.0607 40.1588C36.0868 37.5703 36.2694 34.9556 36.6608 32.3932C39.9224 11.894 60.3794 -2.85289 80.8103 0.467769C100.432 3.65769 114.157 19.7904 114.183 39.6882C114.183 45.4928 114.183 51.3236 114.183 57.1282C114.183 57.6773 114.34 66.0181 114.34 66.6457C116.219 66.6457 100.902 60.0828 102.572 60.1351C110.348 60.3181 82.2454 60.1612 82.2715 67.953M101.137 58.7231C101.137 58.1479 101.137 57.6511 101.137 57.1543C101.137 51.402 101.163 45.6235 101.137 39.8712C101.137 38.1455 101.032 36.3937 100.745 34.6941C98.658 21.0716 84.933 11.1357 71.4168 13.3844C58.1615 15.5807 49.1855 26.0918 49.1072 39.5313C49.0811 45.4405 49.1072 51.3497 49.1072 57.2851C49.1072 57.7819 49.1594 58.2525 49.1855 58.7231H101.137Z" fill="#3D3D3D"/>
<path d="M20.7701 123.541C20.6918 126.862 21.1093 131.176 23.3272 134.863C23.3272 134.863 23.6404 135.36 23.9535 135.857C30.6855 145.06 69.7469 145.296 69.7469 145.296C77.3138 145.165 87.4902 145.452 89.2384 145.296C100.511 144.407 90.7779 146.002 112.566 143.674C113.192 143.622 122.664 141.74 124.386 140.118C127.152 137.53 127.726 130.496 126.082 127.097C125.795 126.496 125.403 125.973 124.934 125.528" fill="#F8952D"/>
<path d="M20.744 122.888C20.6657 125.555 21.031 128.98 23.2489 131.882C23.2489 131.882 23.5359 132.274 23.8752 132.667C30.555 139.962 69.6163 140.04 69.6163 140.04C77.1573 139.909 87.3336 140.119 89.1079 139.988C100.38 139.256 90.6474 140.563 112.461 138.628C113.061 138.576 122.559 137.033 124.281 135.752C127.047 133.686 127.673 128.091 126.056 125.372C125.769 124.875 125.377 124.457 124.908 124.117" fill="#F7B23A"/>
<path d="M21.0049 112.089C18.1347 113.318 17.7955 114.416 17.5084 115.017C16.4386 117.031 16.1255 119.384 16.5952 121.606C17.0127 123.855 18.3173 125.868 20.2221 127.15C21.5529 127.986 23.0402 128.509 24.6058 128.666C59.0486 133.216 70.4774 133.608 70.4774 133.608C74.9654 133.765 91.2475 133.843 104.685 132.771C108.886 132.693 113.061 132.144 117.106 131.124C123.159 129.66 126.212 128.875 127.882 126.731C130.413 123.437 129.056 118.652 126.473 115.41C125.664 114.573 124.647 113.919 123.551 113.527" fill="#A83C27"/>
<path d="M21.0571 112.089C18.1869 113.083 17.8216 113.972 17.5346 114.416C17.0127 115.174 16.6474 116.011 16.4908 116.926C16.3343 117.815 16.3604 118.756 16.5691 119.645C16.804 120.587 17.2475 121.476 17.8738 122.234C18.5 122.992 19.2567 123.62 20.1439 124.038C21.5268 124.692 23.0141 125.084 24.5275 125.215C58.8921 128.562 70.347 128.771 70.347 128.771C74.835 128.849 91.1171 128.771 104.529 127.829C108.73 127.725 112.905 127.254 117.001 126.418C123.055 125.189 126.134 124.535 127.804 122.835C130.361 120.221 129.056 116.429 126.499 113.893C125.638 113.213 124.647 112.717 123.577 112.429" fill="#BD5E48"/>
<path d="M16.9866 105.657C15.6297 108.455 14.9252 111.514 14.873 114.625C14.873 114.939 14.873 115.253 14.873 115.567C15.7341 120.953 83.0282 127.934 107.895 123.071C107.895 123.071 115.279 122.182 120.811 120.874C122.585 120.456 129.109 119.933 129.839 115.384C130.126 113.606 130.674 112.35 129.604 111.2" fill="#E24747"/>
<path d="M18.0825 105.631C16.7518 107.827 16.0212 110.311 15.969 112.873C15.969 113.109 15.969 113.37 15.969 113.605C16.804 117.972 83.3413 123.358 107.999 119.358C107.999 119.358 115.305 118.6 120.785 117.554C122.533 117.214 129.004 116.769 129.761 113.083C130.048 111.644 130.596 110.651 129.526 109.71" fill="#F25855"/>
<path d="M18.9175 101.16C16.7517 103.983 14.9774 106.232 13.5423 107.984C13.3596 108.219 13.0987 108.533 13.177 108.768C13.4901 109.788 21.4485 104.533 23.0663 106.807C24.4231 108.69 20.3004 114.338 21.5268 115.828C22.6749 117.188 27.6326 114.181 30.4767 111.618C30.842 111.252 31.2595 110.912 31.677 110.599C32.5381 110.05 34.1297 109.291 38.7482 110.023C41.9838 110.546 43.7059 111.278 44.9584 110.05C45.1932 109.736 45.4802 109.474 45.7933 109.265C46.55 108.821 47.5938 108.873 49.6812 110.102C52.4732 111.775 52.2383 112.664 53.6474 113.03C55.4739 113.501 55.8392 111.958 58.6572 111.723C60.3533 111.644 62.0233 111.958 63.5367 112.69C65.8589 113.71 65.885 114.651 67.3723 114.861C69.5902 115.174 69.8773 113.161 72.3039 112.952C74.9393 112.716 77.94 114.782 79.7666 116.952C80.6276 117.972 81.1495 118.939 81.8018 118.783C83.0021 118.495 82.8716 114.834 84.1502 114.547C84.646 114.416 84.9852 114.913 86.0811 115.959C88.299 118.077 89.421 119.149 90.3604 119.018C92.0564 118.783 91.8216 115.174 93.8829 114.155C95.5268 113.344 97.4838 114.782 100.432 116.952C103.146 118.939 103.303 119.776 105.52 121.031C106.669 121.659 110.008 123.541 111.078 122.156C112.357 120.561 109.2 116.272 110.582 114.102C111.731 112.246 115.671 112.664 118.332 114.494C120.211 115.802 121.046 117.554 121.776 117.161C122.846 116.586 121.724 112.638 122.977 111.854C123.681 111.383 124.516 112.429 127.647 114.128C129.657 115.227 130.674 115.776 131.144 115.41C131.874 114.861 131.979 112.429 129.552 104.559" fill="#9BB841"/>
<path d="M23.3272 101.081C22.5705 101.892 21.9443 102.545 21.4485 103.042C21.3702 103.121 21.292 103.199 21.318 103.277C21.3963 103.591 24.0578 102.179 24.5014 102.938C24.8928 103.565 23.4316 105.212 23.7708 105.683C24.11 106.18 25.7539 105.343 26.7193 104.611C26.8498 104.506 26.9802 104.402 27.1368 104.323C27.4238 104.166 27.9457 103.983 29.4069 104.323C30.4245 104.559 30.9464 104.846 31.3639 104.506C31.4422 104.428 31.5465 104.349 31.6509 104.297C31.9118 104.193 32.225 104.219 32.8773 104.663C33.7123 105.265 33.634 105.526 34.0515 105.683C34.6255 105.866 34.7821 105.395 35.6692 105.422C36.2172 105.422 36.7391 105.578 37.2087 105.84C37.9132 106.232 37.9132 106.52 38.3568 106.624C39.0613 106.781 39.1918 106.154 39.9746 106.154C40.4443 106.206 40.8618 106.389 41.2532 106.624C41.6446 106.86 41.9838 107.2 42.2447 107.592C42.5056 107.932 42.6361 108.219 42.8448 108.219C43.2362 108.167 43.2884 107.016 43.7059 106.964C43.8625 106.964 43.9668 107.095 44.28 107.461C44.9062 108.193 45.2454 108.533 45.5324 108.533C46.0804 108.507 46.1065 107.383 46.7849 107.121C47.3329 106.912 47.9069 107.409 48.7941 108.167C49.2637 108.664 49.7595 109.134 50.3075 109.553C50.6467 109.788 51.6643 110.442 52.0296 110.05C52.421 109.657 51.586 108.167 52.0818 107.539C52.4993 106.99 53.7518 107.226 54.5345 107.879C55.0825 108.35 55.3173 108.899 55.5522 108.794C55.8914 108.638 55.6565 107.383 56.074 107.173C56.3089 107.043 56.5437 107.383 57.4831 108.01C58.1093 108.402 58.3963 108.611 58.5529 108.507C58.7094 108.402 58.8921 107.592 58.318 105.108" fill="#8DA43F"/>
<path d="M83.1587 106.912C82.5324 108.559 82.0106 109.866 81.5931 110.912C81.5148 111.043 81.4887 111.2 81.5148 111.357C81.7235 111.88 84.4894 108.585 85.3505 109.683C86.055 110.625 84.8808 113.893 85.507 114.599C86.1333 115.305 87.8293 113.344 88.7687 111.775C88.873 111.54 89.0035 111.331 89.1601 111.148C89.4732 110.808 90.0472 110.311 91.9781 110.416C93.335 110.494 94.0917 110.782 94.4831 110.05C94.5613 109.893 94.6396 109.736 94.744 109.579C95.031 109.291 95.4485 109.265 96.3878 109.788C97.6403 110.494 97.6403 110.991 98.2666 111.095C99.0493 111.226 99.0493 110.389 100.171 110.076C100.876 109.919 101.58 109.997 102.233 110.285C103.25 110.677 103.355 111.174 103.981 111.2C104.894 111.226 104.842 110.128 105.807 109.866C106.773 109.605 108.26 110.494 109.2 111.54C109.643 112.037 109.93 112.507 110.191 112.377C110.661 112.141 110.269 110.206 110.765 109.945C110.948 109.84 111.13 110.102 111.678 110.572C112.774 111.566 113.322 112.089 113.688 111.958C114.366 111.723 113.948 109.814 114.679 109.134C115.305 108.611 116.193 109.239 117.575 110.233C118.828 111.122 118.984 111.566 120.002 112.115C120.524 112.403 122.037 113.187 122.35 112.377C122.742 111.435 121.098 109.344 121.437 108.089C121.75 107.016 123.368 106.99 124.594 107.827C125.456 108.402 125.951 109.291 126.212 109.056C126.604 108.69 125.795 106.624 126.212 106.127C126.473 105.84 126.891 106.337 128.3 107.069C129.213 107.539 129.657 107.749 129.839 107.539C130.074 107.2 129.917 105.892 128.248 101.813" fill="#8DA43F"/>
<path d="M18.5522 83.5104C15.5254 84.7654 15.134 86.0205 14.7948 86.648C13.6467 88.8705 13.2553 91.4068 13.6989 93.8646C14.0903 96.3224 15.421 98.5449 17.4041 100.035C18.7609 100.977 20.3265 101.578 21.9704 101.787C58.031 107.539 70.0338 108.219 70.0338 108.219C74.7567 108.481 91.8477 108.925 105.964 108.036C110.4 108.036 114.81 107.513 119.115 106.467C125.482 104.977 128.717 104.193 130.492 101.866C133.205 98.3095 131.848 93.0017 129.239 89.3934C128.404 88.4521 127.36 87.72 126.212 87.2755" fill="#A83C27"/>
<path d="M18.8392 83.5104C15.8385 84.504 15.4471 85.4452 15.134 85.9159C14.5861 86.7264 14.1947 87.6154 14.012 88.5829C13.8294 89.5503 13.8294 90.5178 14.0381 91.4852C14.2729 92.4788 14.7165 93.4462 15.3428 94.2568C15.969 95.0673 16.7518 95.7471 17.665 96.2439C19.0741 96.9761 20.5875 97.4205 22.153 97.5774C57.6657 101.866 69.512 102.336 69.512 102.336C74.1566 102.519 91.0127 102.781 104.92 102.049C109.252 102.049 113.583 101.604 117.862 100.793C124.151 99.6169 127.334 98.9894 129.135 97.2114C131.848 94.4659 130.518 90.387 127.934 87.6154C127.073 86.8833 126.056 86.3081 124.96 85.9943" fill="#BD5E48"/>
<path d="M119.663 91.1191H113.949C113.792 91.1191 113.635 91.1975 113.505 91.3021C113.375 91.4328 113.322 91.5897 113.322 91.7466V92.0081C113.322 92.1911 113.427 92.348 113.557 92.4526C113.688 92.5572 113.87 92.6356 114.027 92.6356H119.715C119.715 92.6356 119.898 92.6356 119.976 92.6095C120.054 92.5833 120.133 92.531 120.185 92.4787C120.237 92.4264 120.289 92.348 120.341 92.2696C120.367 92.1911 120.394 92.1127 120.394 92.0081V91.7466C120.394 91.5636 120.289 91.4067 120.159 91.276C120.028 91.1714 119.846 91.0929 119.663 91.1191Z" fill="#FDD869"/>
<path d="M82.4281 95.7994H76.7398C76.5833 95.7994 76.4267 95.8778 76.2962 95.9824C76.1658 96.1131 76.1136 96.27 76.1136 96.4269V96.6884C76.1136 96.8714 76.218 97.0283 76.3484 97.1329C76.4789 97.2375 76.6615 97.3159 76.8181 97.3159H82.5064C82.5064 97.3159 82.689 97.3159 82.7673 97.2898C82.8456 97.2636 82.9239 97.2113 82.9761 97.159C83.0283 97.1067 83.0804 97.0283 83.1326 96.9499C83.1587 96.8714 83.1848 96.793 83.1848 96.6884V96.4269C83.1848 96.2439 83.0804 96.087 82.95 95.9563C82.8195 95.8517 82.6369 95.7732 82.4542 95.7994H82.4281Z" fill="#FDD869"/>
<path d="M39.7659 91.1714H34.0776C34.0776 91.1714 33.8949 91.1714 33.8167 91.1975C33.7384 91.2237 33.6601 91.276 33.6079 91.3283C33.5557 91.3806 33.5035 91.459 33.4514 91.5374C33.4253 91.6159 33.3992 91.6943 33.3992 91.7989V92.0604C33.3992 92.2434 33.5035 92.4003 33.634 92.5049C33.7645 92.6095 33.9471 92.6879 34.1037 92.6879H39.792C39.792 92.6879 39.9746 92.6879 40.0529 92.6618C40.1312 92.6356 40.2095 92.5833 40.2617 92.531C40.3138 92.4787 40.366 92.4003 40.4182 92.3219C40.4443 92.2434 40.4704 92.165 40.4704 92.0604V91.7989C40.4704 91.6159 40.366 91.459 40.2356 91.3544C40.1051 91.2498 39.9485 91.1714 39.7659 91.1714Z" fill="#FDD869"/>
<path d="M33.7645 86.2557H29.9027C29.9027 86.2557 29.7983 86.2557 29.7461 86.2557C29.6939 86.2557 29.6678 86.308 29.6157 86.3342C29.5635 86.3603 29.5635 86.4126 29.5374 86.4649C29.5374 86.5172 29.5113 86.5695 29.5113 86.6218V86.8048C29.5113 86.8048 29.5635 87.014 29.6418 87.0663C29.72 87.1447 29.8244 87.1709 29.9288 87.1709H33.7906C33.7906 87.1709 33.8949 87.1709 33.9471 87.1709C33.9993 87.1709 34.0254 87.1186 34.0776 87.0924C34.1037 87.0663 34.1298 87.014 34.1559 86.9617C34.1559 86.9094 34.182 86.8571 34.182 86.8048V86.6218C34.182 86.6218 34.1298 86.4388 34.0515 86.3603C33.9732 86.2819 33.8688 86.2557 33.7906 86.2557H33.7645Z" fill="#FDD869"/>
<path d="M101.319 85.7328H97.4577C97.4577 85.7328 97.3533 85.7328 97.3011 85.7328C97.2489 85.7328 97.2228 85.7851 97.1707 85.8112C97.1446 85.8374 97.1185 85.8897 97.0924 85.942C97.0924 85.9943 97.0663 86.0465 97.0663 86.0988V86.2819C97.0663 86.2819 97.1185 86.491 97.1967 86.5433C97.275 86.6218 97.3794 86.6479 97.4838 86.6479H101.346C101.346 86.6479 101.45 86.6479 101.502 86.6479C101.554 86.6479 101.58 86.5956 101.633 86.5695C101.659 86.5433 101.685 86.4911 101.711 86.4388C101.711 86.3865 101.737 86.3342 101.737 86.2819V86.0988C101.737 86.0988 101.685 85.8897 101.606 85.8374C101.528 85.7589 101.424 85.7328 101.319 85.7328Z" fill="#FDD869"/>
<path d="M124.803 83.275H120.942C120.942 83.275 120.837 83.275 120.785 83.275C120.733 83.275 120.707 83.3273 120.654 83.3535C120.628 83.3796 120.602 83.4319 120.576 83.4842C120.55 83.5365 120.55 83.5888 120.55 83.6411V83.8241C120.55 83.8241 120.602 84.0333 120.681 84.0856C120.759 84.164 120.863 84.1902 120.968 84.1902H124.829C124.829 84.1902 124.934 84.1902 124.986 84.1902C125.038 84.1902 125.064 84.1379 125.116 84.1117C125.142 84.0856 125.169 84.0333 125.195 83.981C125.195 83.9287 125.221 83.8764 125.221 83.8241V83.6411C125.221 83.6411 125.169 83.4581 125.09 83.3796C125.012 83.3012 124.908 83.275 124.803 83.275Z" fill="#FDD869"/>
<path d="M12.4986 87.6938C8.50638 75.6663 47.8547 44.0546 85.6375 51.5326C105.364 55.4285 118.567 68.8419 124.229 74.5158C130.544 80.791 137.328 87.6154 135.449 93.1847C133.049 100.323 117.915 101.107 96.5444 102.232C70.8167 103.565 50.8815 101.107 32.5381 96.2177C19.9351 92.8448 13.5945 91.0929 12.4986 87.72V87.6938Z" fill="#F7B23A"/>
<path d="M50.8032 89.7595C150.557 87.0925 86.9944 56.2391 90.6474 52.9969C91.091 52.6047 90.9344 52.9446 94.9006 53.6505C108.286 56.0822 123.003 71.7442 126.995 75.4309C131.013 79.1438 136.754 89.9686 135.449 93.1324C133.779 97.1852 123.838 102.754 109.252 103.382C91.7172 104.14 47.8547 101.264 35.7736 97.159C31.8597 95.8255 27.8152 95.2242 28.7807 94.8843C31.7814 93.7861 40.079 90.0209 50.8032 89.7333V89.7595Z" fill="#F8952D"/>
<path d="M114.627 93.7861H111.548C111.548 93.7861 111.339 93.7861 111.235 93.8384C111.13 93.8645 111.052 93.943 110.974 93.9953C110.896 94.0737 110.843 94.1521 110.791 94.2567C110.739 94.3613 110.739 94.4659 110.739 94.5705V94.832C110.739 95.0411 110.87 95.2503 111.026 95.4072C111.183 95.5641 111.391 95.6425 111.626 95.6164H114.705C114.705 95.6164 114.914 95.6164 115.018 95.5641C115.123 95.5118 115.201 95.4595 115.279 95.4072C115.358 95.3288 115.41 95.2503 115.462 95.1457C115.514 95.0411 115.514 94.9366 115.514 94.832V94.5444C115.514 94.3352 115.384 94.126 115.227 93.9691C115.071 93.8122 114.862 93.7599 114.627 93.7599V93.7861Z" fill="#FDD869"/>
<path d="M104.868 68.5804H103.146C103.146 68.5804 102.937 68.5804 102.833 68.6327C102.728 68.6588 102.65 68.7373 102.572 68.7896C102.494 68.868 102.441 68.9465 102.389 69.051C102.337 69.1556 102.337 69.2602 102.337 69.3648V69.6524C102.337 69.8616 102.468 70.0708 102.624 70.2277C102.781 70.3845 102.989 70.463 103.224 70.4368H104.946C104.946 70.4368 105.155 70.4368 105.26 70.3845C105.364 70.3584 105.442 70.2799 105.52 70.2277C105.599 70.1492 105.651 70.0708 105.703 69.9662C105.755 69.8616 105.755 69.757 105.755 69.6524V69.3648C105.755 69.1556 105.625 68.9465 105.468 68.7896C105.312 68.6327 105.103 68.5542 104.868 68.5804Z" fill="#FDD869"/>
<path d="M33.9211 85.5498H32.6425C32.6425 85.5498 32.4338 85.5498 32.3294 85.6021C32.225 85.6282 32.1467 85.7067 32.0685 85.759C31.9902 85.8374 31.938 85.9159 31.8858 86.0205C31.8336 86.125 31.8336 86.2296 31.8336 86.3342V86.6218C31.8336 86.831 31.9641 87.0402 32.1206 87.1971C32.2772 87.3539 32.4859 87.4062 32.7208 87.4062H33.9733C33.9733 87.4062 34.182 87.4062 34.2864 87.3539C34.3907 87.3278 34.469 87.2493 34.5473 87.1971C34.6256 87.1186 34.6778 87.0402 34.73 86.9356C34.7821 86.831 34.7821 86.7264 34.7821 86.6218V86.3604C34.7821 86.1512 34.6517 85.942 34.4951 85.8113C34.3386 85.6544 34.1298 85.5759 33.9211 85.5759V85.5498Z" fill="#FDD869"/>
<path d="M60.6665 64.763H56.8047C56.8047 64.763 56.596 64.763 56.4916 64.8152C56.3872 64.8414 56.3089 64.9198 56.2307 64.9983C56.1524 65.0767 56.1002 65.1552 56.048 65.2597C55.9958 65.3643 55.9697 65.4689 55.9697 65.5735V65.8088C55.9697 66.0441 56.1002 66.2272 56.2567 66.3841C56.4133 66.5409 56.6481 66.6194 56.8569 66.5932H60.7187C60.7187 66.5932 60.9274 66.5932 61.0318 66.5409C61.1362 66.5148 61.2144 66.4364 61.2927 66.3579C61.371 66.2795 61.4232 66.201 61.4754 66.0964C61.5276 65.9919 61.5276 65.8873 61.5276 65.7827V65.5474C61.5276 65.312 61.3971 65.1029 61.2405 64.9721C61.0579 64.8152 60.8491 64.7368 60.6143 64.763H60.6665Z" fill="#FDD869"/>
<path d="M95.6834 87.7462H94.1178C94.1178 87.7462 93.909 87.7462 93.8047 87.7984C93.7003 87.8246 93.622 87.903 93.5437 87.9553C93.4655 88.0338 93.4133 88.1122 93.3611 88.2168C93.3089 88.3214 93.3089 88.426 93.3089 88.5306V88.8182C93.3089 89.0274 93.4394 89.2365 93.5959 89.3934C93.7525 89.5503 93.9612 89.6287 94.1961 89.6026H95.7617C95.7617 89.6026 95.9704 89.6026 96.0748 89.5503C96.1791 89.5241 96.2574 89.4457 96.3357 89.3934C96.414 89.315 96.4662 89.2365 96.5184 89.1319C96.5705 89.0274 96.5705 88.9228 96.5705 88.8182V88.5306C96.5705 88.3214 96.4401 88.1122 96.2835 87.9553C96.127 87.7984 95.8921 87.7462 95.6834 87.7462Z" fill="#FDD869"/>
<path d="M85.4549 95.9563H82.5325C82.5325 95.9563 82.3237 95.9563 82.2194 96.0086C82.115 96.0347 82.0367 96.1132 81.9584 96.1916C81.8802 96.2701 81.828 96.3485 81.7758 96.4531C81.7236 96.5577 81.6975 96.6623 81.6975 96.7668V97.0022C81.6975 97.0022 81.7236 97.2375 81.7758 97.3421C81.828 97.4467 81.9063 97.5513 81.9845 97.6297C82.0628 97.7081 82.1672 97.7604 82.2977 97.8127C82.402 97.8389 82.5325 97.865 82.6369 97.865H85.5593C85.5593 97.865 85.768 97.865 85.8724 97.8127C85.9768 97.7866 86.0551 97.7081 86.1333 97.6297C86.2116 97.5513 86.2638 97.4728 86.316 97.3682C86.3682 97.2636 86.3682 97.1591 86.3682 97.0545V96.8191C86.3682 96.8191 86.3421 96.5838 86.2899 96.4792C86.2377 96.3747 86.1594 96.2701 86.0812 96.1916C86.0029 96.1132 85.8985 96.0609 85.768 96.0086C85.6637 95.9824 85.5332 95.9563 85.4288 95.9563H85.4549Z" fill="#FDD869"/>
<path d="M74.4697 76.8428H72.591C72.591 76.8428 72.4345 76.8428 72.3562 76.869C72.2779 76.8951 72.1996 76.9474 72.1474 76.9997C72.0952 77.052 72.0431 77.1305 72.017 77.2089C71.9909 77.2873 71.9648 77.3658 71.9648 77.4442V77.6272C71.9648 77.6272 71.9648 77.7841 72.017 77.8626C72.0431 77.941 72.0952 77.9933 72.1735 78.0456C72.2257 78.0979 72.304 78.1502 72.3823 78.1763C72.4606 78.2025 72.5388 78.2025 72.6171 78.2025H74.4958C74.4958 78.2025 74.6524 78.2025 74.7306 78.1763C74.8089 78.1502 74.8872 78.0979 74.9394 78.0456C74.9916 77.9933 75.0438 77.9149 75.0699 77.8364C75.096 77.758 75.122 77.6795 75.122 77.6011V77.4181C75.122 77.4181 75.122 77.2612 75.0699 77.1827C75.0438 77.1043 74.9916 77.052 74.9133 76.9997C74.8611 76.9474 74.7828 76.8951 74.7046 76.869C74.6263 76.8428 74.548 76.8428 74.4697 76.8428Z" fill="#FDD869"/>
<path d="M41.5402 71.7965H37.8611C37.8611 71.7965 37.6784 71.7965 37.5741 71.8488C37.4958 71.875 37.3914 71.9272 37.3392 72.0057C37.261 72.0841 37.2088 72.1626 37.1827 72.241C37.1566 72.3194 37.1305 72.424 37.1305 72.5286V72.7639C37.1305 72.9731 37.2349 73.1562 37.3914 73.2869C37.548 73.4176 37.7306 73.4961 37.9394 73.4961H41.6185C41.6185 73.4961 41.8012 73.4961 41.9055 73.4438C41.9838 73.4176 42.0882 73.3653 42.1404 73.2869C42.2186 73.2084 42.2708 73.13 42.2969 73.0516C42.323 72.9731 42.3491 72.8685 42.3491 72.7639V72.5286C42.3491 72.3194 42.2447 72.1364 42.0882 72.0057C41.9316 71.875 41.749 71.7965 41.5402 71.7965Z" fill="#FDD869"/>
<path d="M94.2482 59.7166H91.1954C91.1954 59.7166 91.0127 59.7166 90.9344 59.7428C90.8561 59.7689 90.7779 59.8212 90.6996 59.8735C90.6213 59.9258 90.5952 60.0042 90.543 60.0827C90.5169 60.1611 90.4908 60.2396 90.4908 60.3441V60.5533C90.4908 60.7363 90.5952 60.8932 90.7518 60.9978C90.9083 61.1024 91.0649 61.1808 91.2475 61.1808H94.3004C94.3004 61.1808 94.4831 61.1808 94.5614 61.1547C94.6396 61.1285 94.7179 61.0763 94.7962 61.024C94.8745 60.9717 94.9006 60.8932 94.9528 60.7886C94.9789 60.7102 95.0049 60.6056 95.0049 60.5272V60.318C94.9789 60.135 94.8745 59.9781 94.744 59.8735C94.6136 59.7689 94.4309 59.7166 94.2482 59.7166Z" fill="#FDD869"/>
<path d="M119.272 86.2035H117.915C117.915 86.2035 117.732 86.2035 117.654 86.2296C117.576 86.2558 117.497 86.3081 117.419 86.3604C117.367 86.4127 117.315 86.4911 117.262 86.5695C117.236 86.648 117.21 86.7264 117.21 86.831V87.0402C117.21 87.2232 117.315 87.4063 117.445 87.5108C117.576 87.6416 117.758 87.6939 117.941 87.6939H119.298C119.298 87.6939 119.48 87.6939 119.559 87.6677C119.637 87.6416 119.715 87.5893 119.793 87.537C119.846 87.4847 119.898 87.4062 119.95 87.3017C119.976 87.2232 120.002 87.1186 120.002 87.0402V86.831C120.002 86.648 119.898 86.4911 119.741 86.3865C119.611 86.2819 119.428 86.2035 119.245 86.2035H119.272Z" fill="#FDD869"/>
<path d="M61.0318 92.2957H58.2137C58.2137 92.2957 58.0311 92.2957 57.9528 92.3219C57.8745 92.348 57.7962 92.4003 57.718 92.4526C57.6658 92.5049 57.5875 92.5833 57.5614 92.6618C57.5353 92.7402 57.5092 92.8187 57.5092 92.9232V93.1324C57.5092 93.3154 57.6136 93.4985 57.744 93.6031C57.8745 93.7338 58.0572 93.7861 58.2398 93.7861H61.0579C61.0579 93.7861 61.2405 93.7861 61.3188 93.7599C61.3971 93.7338 61.4754 93.6815 61.5536 93.6292C61.6319 93.5769 61.658 93.4985 61.7102 93.3939C61.7363 93.3155 61.7624 93.2109 61.7624 93.1324V92.9232C61.7624 92.7402 61.658 92.5833 61.5015 92.4526C61.371 92.348 61.1883 92.2696 61.0057 92.2957H61.0318Z" fill="#FDD869"/>
<path d="M44.1495 62.3052H42.2708C42.2708 62.3052 42.1143 62.3052 42.036 62.3313C41.9577 62.3575 41.8794 62.4098 41.8272 62.4621C41.7751 62.5143 41.7229 62.5928 41.6968 62.6712C41.6707 62.7497 41.6446 62.8281 41.6446 62.9066V63.0896C41.6446 63.0896 41.6707 63.2465 41.6968 63.3249C41.7229 63.4033 41.7751 63.4556 41.8533 63.5079C41.9055 63.5602 41.9838 63.6125 42.0621 63.6387C42.1404 63.6648 42.2186 63.6648 42.2969 63.6648H44.1756C44.1756 63.6648 44.3322 63.6648 44.4105 63.6387C44.4887 63.6125 44.567 63.5602 44.6192 63.5079C44.6714 63.4556 44.7236 63.3772 44.7497 63.2988C44.7758 63.2203 44.8019 63.1419 44.8019 63.0634V62.8804C44.8019 62.8804 44.7758 62.7235 44.7497 62.6451C44.7236 62.5666 44.6714 62.5143 44.5931 62.4621C44.5409 62.4098 44.4626 62.3575 44.3844 62.3313C44.3061 62.3052 44.2278 62.3052 44.1495 62.3052Z" fill="#FDD869"/>
<path d="M89.4993 88.1645C89.4993 80.2159 83.0804 73.7576 75.122 73.7576C67.1636 73.7576 60.7447 80.1897 60.7447 88.1645C60.7447 94.4659 64.7891 99.7999 70.3991 101.761L63.0409 120.874H84.7764L79.1403 101.996C85.1156 100.244 89.4732 94.7274 89.4732 88.1907L89.4993 88.1645Z" fill="white" stroke="white" stroke-miterlimit="10"/>
<defs>
<radialGradient id="paint0_radial_88_374" cx="0" cy="0" r="1" gradientUnits="userSpaceOnUse" gradientTransform="translate(73.0272 138.048) scale(64.3362 17.4374)">
<stop stop-opacity="0.5"/>
<stop offset="0.02" stop-opacity="0.47"/>
<stop offset="1" stop-opacity="0"/>
</radialGradient>
</defs>
</svg>
