<svg width="59" height="36" viewBox="0 0 59 36" fill="none" xmlns="http://www.w3.org/2000/svg">
<rect width="59" height="36" rx="5" fill="#9BB841"/>
<path d="M33.4261 16.5966L32.7727 18.017H23.5114L24.0227 16.5966H33.4261ZM32.2045 19.4375L31.5511 20.858H23.5114L24.0227 19.4375H32.2045ZM35.1023 12.7614L34.4205 14.2386C34.1174 13.964 33.7978 13.7273 33.4616 13.5284C33.1255 13.3295 32.7727 13.1757 32.4034 13.0668C32.0341 12.9579 31.6458 12.9034 31.2386 12.9034C30.4337 12.9034 29.7093 13.1259 29.0653 13.571C28.4214 14.0161 27.9124 14.6719 27.5384 15.5384C27.1643 16.4048 26.9773 17.4678 26.9773 18.7273C26.9773 19.9867 27.1643 21.0497 27.5384 21.9162C27.9124 22.7827 28.4214 23.4384 29.0653 23.8835C29.7093 24.3286 30.4337 24.5511 31.2386 24.5511C31.6553 24.5511 32.0483 24.4967 32.4176 24.3878C32.7917 24.2789 33.1397 24.1297 33.4616 23.9403C33.7884 23.7509 34.089 23.5379 34.3636 23.3011L35.0739 24.7784C34.5767 25.2472 33.9943 25.6023 33.3267 25.8438C32.6591 26.0805 31.9631 26.1989 31.2386 26.1989C30.0739 26.1989 29.0417 25.8958 28.142 25.2898C27.2472 24.6837 26.544 23.822 26.0327 22.7045C25.526 21.5871 25.2727 20.2614 25.2727 18.7273C25.2727 17.1932 25.526 15.8674 26.0327 14.75C26.544 13.6326 27.2472 12.7708 28.142 12.1648C29.0417 11.5587 30.0739 11.2557 31.2386 11.2557C31.9915 11.2557 32.6946 11.3859 33.348 11.6463C34.0062 11.9067 34.5909 12.2784 35.1023 12.7614Z" fill="white"/>
</svg>
