<svg width="59" height="36" viewBox="0 0 59 36" fill="none" xmlns="http://www.w3.org/2000/svg">
<rect width="59" height="36" rx="5" fill="#E94949"/>
<path d="M48.4261 14.5966L47.7727 16.017H38.5114L39.0227 14.5966H48.4261ZM47.2045 17.4375L46.5511 18.858H38.5114L39.0227 17.4375H47.2045ZM50.1023 10.7614L49.4205 12.2386C49.1174 11.964 48.7978 11.7273 48.4616 11.5284C48.1255 11.3295 47.7727 11.1757 47.4034 11.0668C47.0341 10.9579 46.6458 10.9034 46.2386 10.9034C45.4337 10.9034 44.7093 11.1259 44.0653 11.571C43.4214 12.0161 42.9124 12.6719 42.5384 13.5384C42.1643 14.4048 41.9773 15.4678 41.9773 16.7273C41.9773 17.9867 42.1643 19.0497 42.5384 19.9162C42.9124 20.7827 43.4214 21.4384 44.0653 21.8835C44.7093 22.3286 45.4337 22.5511 46.2386 22.5511C46.6553 22.5511 47.0483 22.4967 47.4176 22.3878C47.7917 22.2789 48.1397 22.1297 48.4616 21.9403C48.7884 21.7509 49.089 21.5379 49.3636 21.3011L50.0739 22.7784C49.5767 23.2472 48.9943 23.6023 48.3267 23.8438C47.6591 24.0805 46.9631 24.1989 46.2386 24.1989C45.0739 24.1989 44.0417 23.8958 43.142 23.2898C42.2472 22.6837 41.544 21.822 41.0327 20.7045C40.526 19.5871 40.2727 18.2614 40.2727 16.7273C40.2727 15.1932 40.526 13.8674 41.0327 12.75C41.544 11.6326 42.2472 10.7708 43.142 10.1648C44.0417 9.55871 45.0739 9.25568 46.2386 9.25568C46.9915 9.25568 47.6946 9.38589 48.348 9.64631C49.0062 9.90672 49.5909 10.2784 50.1023 10.7614Z" fill="white"/>
<path d="M33.4261 14.5966L32.7727 16.017H23.5114L24.0227 14.5966H33.4261ZM32.2045 17.4375L31.5511 18.858H23.5114L24.0227 17.4375H32.2045ZM35.1023 10.7614L34.4205 12.2386C34.1174 11.964 33.7978 11.7273 33.4616 11.5284C33.1255 11.3295 32.7727 11.1757 32.4034 11.0668C32.0341 10.9579 31.6458 10.9034 31.2386 10.9034C30.4337 10.9034 29.7093 11.1259 29.0653 11.571C28.4214 12.0161 27.9124 12.6719 27.5384 13.5384C27.1643 14.4048 26.9773 15.4678 26.9773 16.7273C26.9773 17.9867 27.1643 19.0497 27.5384 19.9162C27.9124 20.7827 28.4214 21.4384 29.0653 21.8835C29.7093 22.3286 30.4337 22.5511 31.2386 22.5511C31.6553 22.5511 32.0483 22.4967 32.4176 22.3878C32.7917 22.2789 33.1397 22.1297 33.4616 21.9403C33.7884 21.7509 34.089 21.5379 34.3636 21.3011L35.0739 22.7784C34.5767 23.2472 33.9943 23.6023 33.3267 23.8438C32.6591 24.0805 31.9631 24.1989 31.2386 24.1989C30.0739 24.1989 29.0417 23.8958 28.142 23.2898C27.2472 22.6837 26.544 21.822 26.0327 20.7045C25.526 19.5871 25.2727 18.2614 25.2727 16.7273C25.2727 15.1932 25.526 13.8674 26.0327 12.75C26.544 11.6326 27.2472 10.7708 28.142 10.1648C29.0417 9.55871 30.0739 9.25568 31.2386 9.25568C31.9915 9.25568 32.6946 9.38589 33.348 9.64631C34.0062 9.90672 34.5909 10.2784 35.1023 10.7614Z" fill="white"/>
<path d="M18.4261 14.5966L17.7727 16.017H8.51136L9.02273 14.5966H18.4261ZM17.2045 17.4375L16.5511 18.858H8.51136L9.02273 17.4375H17.2045ZM20.1023 10.7614L19.4205 12.2386C19.1174 11.964 18.7978 11.7273 18.4616 11.5284C18.1255 11.3295 17.7727 11.1757 17.4034 11.0668C17.0341 10.9579 16.6458 10.9034 16.2386 10.9034C15.4337 10.9034 14.7093 11.1259 14.0653 11.571C13.4214 12.0161 12.9124 12.6719 12.5384 13.5384C12.1643 14.4048 11.9773 15.4678 11.9773 16.7273C11.9773 17.9867 12.1643 19.0497 12.5384 19.9162C12.9124 20.7827 13.4214 21.4384 14.0653 21.8835C14.7093 22.3286 15.4337 22.5511 16.2386 22.5511C16.6553 22.5511 17.0483 22.4967 17.4176 22.3878C17.7917 22.2789 18.1397 22.1297 18.4616 21.9403C18.7884 21.7509 19.089 21.5379 19.3636 21.3011L20.0739 22.7784C19.5767 23.2472 18.9943 23.6023 18.3267 23.8438C17.6591 24.0805 16.9631 24.1989 16.2386 24.1989C15.0739 24.1989 14.0417 23.8958 13.142 23.2898C12.2472 22.6837 11.544 21.822 11.0327 20.7045C10.526 19.5871 10.2727 18.2614 10.2727 16.7273C10.2727 15.1932 10.526 13.8674 11.0327 12.75C11.544 11.6326 12.2472 10.7708 13.142 10.1648C14.0417 9.55871 15.0739 9.25568 16.2386 9.25568C16.9915 9.25568 17.6946 9.38589 18.348 9.64631C19.0062 9.90672 19.5909 10.2784 20.1023 10.7614Z" fill="white"/>
</svg>
