<svg width="115" height="90" viewBox="0 0 115 90" fill="none" xmlns="http://www.w3.org/2000/svg">
<path d="M57.4332 90C89.1527 90 114.866 82.6986 114.866 73.6918C114.866 64.685 89.1527 57.3836 57.4332 57.3836C25.7137 57.3836 0 64.685 0 73.6918C0 82.6986 25.7137 90 57.4332 90Z" fill="url(#paint0_radial_77_1828)" fill-opacity="0.6"/>
<path d="M29.0359 89.4683C34.1766 89.4683 38.344 87.1018 38.344 84.1825C38.344 81.2632 34.1766 78.8967 29.0359 78.8967C23.8952 78.8967 19.7278 81.2632 19.7278 84.1825C19.7278 87.1018 23.8952 89.4683 29.0359 89.4683Z" fill="url(#paint1_radial_77_1828)" fill-opacity="0.4"/>
<path d="M25.6472 63.4592C25.601 65.5011 25.8549 68.1402 27.2203 70.394C27.2203 70.394 27.4126 70.7022 27.6049 70.9988C31.7397 76.6352 55.7369 76.7778 55.7369 76.7778C60.3794 76.693 66.6335 76.878 67.7105 76.7778C74.6338 76.2384 68.6528 77.217 82.0496 75.78C82.4342 75.7414 88.2575 74.5856 89.3037 73.6071C91.0038 72.0236 91.3615 67.7125 90.3537 65.6244C90.1805 65.2626 89.9419 64.936 89.6499 64.6612" fill="#F8952D"/>
<path d="M25.6241 63.0624C25.5703 64.6921 25.8087 66.7956 27.1626 68.5717C27.1626 68.5717 27.3473 68.8183 27.5473 69.0533C31.6551 73.53 55.6485 73.5724 55.6485 73.5724C60.2871 73.4877 66.5412 73.6187 67.6221 73.5455C74.5454 73.0908 68.5605 73.896 81.9649 72.7056C82.3265 72.6709 88.1767 71.727 89.2306 70.9488C90.9345 69.6813 91.3115 66.2447 90.3153 64.5842C90.1342 64.2842 89.8964 64.0225 89.6153 63.8137" fill="#F7B23A"/>
<path d="M25.7857 56.4435C24.0241 57.1947 23.8126 57.8767 23.6318 58.2311C22.9785 59.471 22.7785 60.9005 23.0663 62.2725C23.3284 63.6576 24.1278 64.8823 25.2895 65.6782C26.1064 66.1863 27.0263 66.5048 27.9819 66.6106C49.1367 69.4076 56.1678 69.6465 56.1678 69.6465C58.9333 69.7389 68.9337 69.7852 77.1802 69.1341C79.7564 69.0827 82.3188 68.7415 84.819 68.117C88.5384 67.2116 90.4192 66.7339 91.4346 65.4201C92.9962 63.3975 92.15 60.4618 90.5692 58.4854C90.0674 57.9666 89.4527 57.571 88.773 57.3296" fill="#A83C27"/>
<path d="M25.8126 56.4435C24.0433 57.0483 23.8241 57.5993 23.6433 57.8728C23.3225 58.3326 23.1033 58.8557 23.0005 59.4072C22.8977 59.9586 22.9136 60.5257 23.0472 61.0705C23.1931 61.654 23.4655 62.1981 23.8451 62.6642C24.2247 63.1303 24.7021 63.507 25.2434 63.7673C26.089 64.1706 27.0019 64.4135 27.9358 64.4839C49.0559 66.5335 56.087 66.6684 56.087 66.6684C58.8487 66.7185 68.8491 66.6684 77.0956 66.0982C79.6704 66.0373 82.2345 65.7459 84.7574 65.2275C88.4807 64.4801 90.3654 64.0717 91.3923 63.0353C92.9693 61.4249 92.1616 59.1095 90.5846 57.5453C90.0573 57.1255 89.448 56.821 88.7961 56.6515" fill="#BD5E48"/>
<path d="M23.3087 52.4946C22.4775 54.2091 22.0348 56.0865 22.0125 57.9923C21.9991 58.1822 21.9991 58.3727 22.0125 58.5625C22.5433 61.8719 63.8835 66.1407 79.1726 63.1587C79.1726 63.1587 83.7074 62.6078 87.1114 61.8103C88.196 61.556 92.2078 61.2401 92.6655 58.4392C92.8424 57.3489 93.177 56.5823 92.5193 55.8772" fill="#E24747"/>
<path d="M23.9933 52.483C23.1789 53.8255 22.7306 55.3585 22.6932 56.929C22.6798 57.0802 22.6798 57.2323 22.6932 57.3836C23.2086 60.0535 64.0873 63.3667 79.2341 60.9049C79.2341 60.9049 83.7266 60.4464 87.096 59.7915C88.1691 59.5834 92.1423 59.3137 92.6039 57.0484C92.7808 56.17 93.1154 55.5497 92.4654 54.9834" fill="#F25855"/>
<path d="M24.5049 49.7323C23.1664 51.4583 22.0856 52.8452 21.2048 53.9124C21.0855 54.0511 20.9317 54.2437 20.974 54.3863C21.1702 55.0181 26.055 51.7896 27.0473 53.1766C27.8781 54.3323 25.3434 57.7997 26.1011 58.7051C26.8011 59.5373 29.8513 57.6918 31.5975 56.1161C31.8257 55.8872 32.0742 55.6796 32.3399 55.4958C32.8668 55.153 33.8438 54.6945 36.6823 55.1491C38.6747 55.4689 39.7209 55.9196 40.4979 55.1684C40.6402 54.9826 40.8116 54.8213 41.0056 54.6906C41.471 54.421 42.1172 54.4479 43.398 55.2069C45.1212 56.2278 44.9712 56.7788 45.8366 56.9984C46.9597 57.2873 47.1866 56.3434 48.9136 56.2009C49.9484 56.1481 50.9802 56.3518 51.9176 56.7942C53.3369 57.4222 53.3638 57.9923 54.2715 58.1195C55.6293 58.3121 55.8101 57.0793 57.2986 56.9444C58.9102 56.798 60.7603 58.0694 61.8911 59.3909C62.418 60.015 62.7411 60.6083 63.1412 60.512C63.8758 60.3309 63.8066 58.0964 64.5797 57.9114C64.8835 57.8382 65.0874 58.1349 65.772 58.7821C67.1375 60.0882 67.8221 60.7393 68.3952 60.6622C69.4414 60.5197 69.2876 58.3044 70.5607 57.688C71.5761 57.1987 72.7762 58.0733 74.5916 59.4063C76.2533 60.6199 76.3571 61.14 77.7225 61.9028C78.4341 62.288 80.4726 63.4438 81.1457 62.6001C81.9381 61.6177 79.9919 58.994 80.8381 57.6572C81.5496 56.5245 83.969 56.7749 85.5959 57.9037C86.7498 58.7051 87.2614 59.7838 87.7153 59.545C88.3691 59.1982 87.6884 56.7749 88.4461 56.2856C88.8846 56.0005 89.3961 56.6401 91.3154 57.688C92.5501 58.3622 93.1732 58.6974 93.4578 58.4778C93.904 58.1388 93.9655 56.6439 92.4732 51.8204" fill="#9BB841"/>
<path d="M27.205 49.6822C26.7357 50.183 26.3588 50.5837 26.0511 50.8919C26.0088 50.9343 25.9549 50.9882 25.9665 51.0345C26.0088 51.2348 27.6434 50.3641 27.9242 50.8226C28.1588 51.2078 27.2627 52.2095 27.4781 52.51C27.6935 52.8105 28.6935 52.2981 29.2897 51.8551C29.3668 51.7887 29.4506 51.7306 29.5397 51.6817C29.7166 51.5892 30.0397 51.4737 30.9282 51.6817C31.5513 51.832 31.8706 52.0092 32.136 51.7896C32.1869 51.7366 32.2452 51.6912 32.309 51.6547C32.4667 51.5854 32.6668 51.6124 33.0552 51.8782C33.5745 52.2442 33.513 52.4099 33.7783 52.4985C34.1284 52.6179 34.2245 52.329 34.7784 52.3328C35.1075 52.3447 35.4291 52.4344 35.7169 52.5948C36.1515 52.8298 36.1438 53.007 36.4284 53.0687C36.8554 53.165 36.9439 52.7874 37.4169 52.7836C37.6984 52.8227 37.9683 52.9216 38.2084 53.0738C38.4486 53.2259 38.6535 53.4278 38.8093 53.6658C38.9632 53.87 39.0478 54.0511 39.1747 54.0511C39.4132 54.0126 39.4478 53.3191 39.7016 53.2806C39.8016 53.2806 39.8555 53.3615 40.0555 53.5811C40.4401 54.0241 40.6555 54.2437 40.8248 54.236C41.1594 54.2167 41.1709 53.5271 41.594 53.373C41.9287 53.2459 42.2864 53.5502 42.8248 54.0087C43.1147 54.3153 43.4257 54.6011 43.7557 54.864C43.9711 55.0065 44.5865 55.4149 44.8211 55.1722C45.0557 54.9295 44.5518 54.0164 44.8519 53.6311C45.1096 53.2998 45.8711 53.4424 46.3558 53.8353C46.6981 54.1166 46.8366 54.4633 46.9866 54.4017C47.202 54.3131 47.052 53.5425 47.302 53.4115C47.4481 53.3345 47.5943 53.5464 48.1751 53.9239C48.5597 54.1667 48.7366 54.2861 48.8328 54.2245C48.9289 54.1628 49.0443 53.6697 48.6943 52.1363" fill="#8DA43F"/>
<path d="M63.9759 53.2574C63.5912 54.2667 63.272 55.0758 63.0104 55.7076C62.9642 55.788 62.9452 55.8814 62.9566 55.9735C63.0912 56.3009 64.7836 54.2668 65.3105 54.9487C65.749 55.5189 65.0259 57.5338 65.4144 57.9691C65.8028 58.4045 66.8413 57.1986 67.4106 56.2431C67.4785 56.1071 67.5597 55.978 67.6529 55.8579C67.8375 55.6421 68.1914 55.3378 69.3799 55.4033C70.2145 55.4495 70.68 55.6344 70.9184 55.1721C70.9593 55.0691 71.0137 54.9719 71.08 54.8832C71.2492 54.7098 71.5069 54.6828 72.0954 55.0103C72.8647 55.4495 72.8647 55.7539 73.2493 55.8194C73.7263 55.9041 73.7339 55.384 74.4263 55.1991C74.8513 55.108 75.2942 55.1539 75.6917 55.3301C76.3225 55.5766 76.3841 55.881 76.7649 55.8926C77.3303 55.9118 77.2956 55.2376 77.8841 55.072C78.4726 54.9063 79.3957 55.4572 79.9611 56.0967C80.2304 56.3973 80.4111 56.6978 80.565 56.6169C80.8457 56.4782 80.6188 55.2838 80.9188 55.1336C81.0342 55.0758 81.142 55.2222 81.4766 55.5189C82.1458 56.1353 82.4805 56.4435 82.7035 56.3626C83.1151 56.22 82.8574 55.045 83.3189 54.6327C83.7036 54.3091 84.2498 54.7021 85.1036 55.2993C85.8729 55.8463 85.9691 56.1199 86.5883 56.455C86.9114 56.6246 87.8384 57.1061 88.0384 56.6169C88.273 56.0428 87.2691 54.756 87.4768 53.9855C87.6653 53.3344 88.6653 53.3151 89.423 53.8237C89.9577 54.182 90.2615 54.7291 90.4231 54.5711C90.6577 54.3477 90.1692 53.0878 90.4231 52.7796C90.5769 52.5986 90.8424 52.9106 91.7078 53.3498C92.2655 53.6349 92.5463 53.7736 92.6463 53.6388C92.7963 53.4269 92.6924 52.6255 91.6616 50.1329" fill="#8DA43F"/>
<path d="M24.2702 38.9218C22.4047 39.6923 22.1662 40.4629 21.9624 40.8481C21.252 42.206 21.0164 43.7632 21.2931 45.271C21.5385 46.7775 22.3506 48.1326 23.5625 49.0581C24.4032 49.6319 25.3659 50.0012 26.3742 50.1368C48.5251 53.6658 55.9061 54.0781 55.9061 54.0781C58.8062 54.2399 69.3067 54.5057 77.9763 53.9702C80.6972 53.9698 83.4086 53.6465 86.0536 53.007C89.9729 52.094 91.9538 51.6085 93.05 50.1831C94.7232 47.9948 93.8885 44.7547 92.2808 42.5394C91.7699 41.9644 91.1307 41.5183 90.4153 41.2373" fill="#A83C27"/>
<path d="M24.451 38.9218C22.6086 39.5305 22.374 40.1046 22.1778 40.4012C21.8362 40.8913 21.5998 41.4469 21.4833 42.0331C21.3667 42.6192 21.3727 43.2232 21.5009 43.807C21.6415 44.4231 21.9129 45.0018 22.2965 45.5036C22.6801 46.0055 23.1669 46.4189 23.724 46.7157C24.5848 47.1637 25.5238 47.441 26.4895 47.5325C48.3097 50.1638 55.5831 50.4527 55.5831 50.4527C58.4409 50.5645 68.7913 50.7301 77.3378 50.2794C80.0047 50.2684 82.6648 50.0105 85.2843 49.5089C89.1537 48.7923 91.1076 48.407 92.2077 47.3052C93.8693 45.6177 93.0577 43.1289 91.4731 41.426C90.9387 40.9695 90.3151 40.6297 89.6422 40.4282" fill="#BD5E48"/>
<mask id="mask0_77_1828" style="mask-type:luminance" maskUnits="userSpaceOnUse" x="23" y="19" width="69" height="31">
<path d="M59.3525 19.1615C59.3525 19.1615 80.738 18.6376 90.8923 38.0895C99.5811 54.7406 19.9354 50.418 23.7433 38.3862C26.4819 29.7177 39.894 19.0806 59.3525 19.1615Z" fill="white"/>
</mask>
<g mask="url(#mask0_77_1828)">
<path d="M86.4034 43.5872H82.8956C82.7936 43.5872 82.6957 43.6278 82.6236 43.7C82.5515 43.7723 82.511 43.8703 82.511 43.9725V44.1304C82.5225 44.238 82.574 44.3373 82.6552 44.4087C82.7364 44.4801 82.8415 44.5182 82.9495 44.5157H86.4419C86.4943 44.5188 86.5468 44.5112 86.5962 44.4933C86.6455 44.4753 86.6907 44.4475 86.7289 44.4114C86.7671 44.3753 86.7976 44.3317 86.8183 44.2834C86.8391 44.2351 86.8497 44.183 86.8496 44.1304V43.9725C86.8389 43.8631 86.7866 43.7621 86.7035 43.6904C86.6204 43.6187 86.513 43.5817 86.4034 43.5872Z" fill="#FDD869"/>
<path d="M63.5294 46.4574H60.0369C59.9349 46.4574 59.8371 46.498 59.765 46.5703C59.6929 46.6425 59.6523 46.7405 59.6523 46.8427V47.0007C59.6639 47.1083 59.7154 47.2076 59.7966 47.2789C59.8778 47.3503 59.9828 47.3885 60.0908 47.3859H63.5833C63.6357 47.3891 63.6882 47.3815 63.7376 47.3635C63.7869 47.3456 63.8321 47.3177 63.8703 47.2816C63.9085 47.2455 63.9389 47.202 63.9597 47.1536C63.9804 47.1053 63.9911 47.0533 63.991 47.0007V46.8427C63.9802 46.7305 63.9257 46.6271 63.8393 46.555C63.7529 46.4829 63.6415 46.4478 63.5294 46.4574Z" fill="#FDD869"/>
<path d="M37.309 43.6219H33.8165C33.7641 43.6188 33.7116 43.6264 33.6622 43.6443C33.6129 43.6623 33.5677 43.6901 33.5295 43.7262C33.4913 43.7623 33.4609 43.8059 33.4401 43.8542C33.4194 43.9025 33.4087 43.9546 33.4088 44.0072V44.1651C33.4195 44.2731 33.4707 44.3729 33.5521 44.4445C33.6336 44.516 33.739 44.5538 33.8473 44.5504H37.3359C37.3883 44.5535 37.4408 44.5459 37.4902 44.528C37.5396 44.51 37.5847 44.4822 37.6229 44.4461C37.6611 44.41 37.6915 44.3664 37.7123 44.3181C37.733 44.2698 37.7437 44.2177 37.7436 44.1651V44.0033C37.7321 43.8967 37.681 43.7984 37.6005 43.7278C37.52 43.6571 37.416 43.6194 37.309 43.6219Z" fill="#FDD869"/>
<path d="M33.6166 40.5976H31.2395C31.2088 40.596 31.178 40.6007 31.1491 40.6114C31.1203 40.6222 31.0939 40.6387 31.0716 40.6599C31.0493 40.6812 31.0315 40.7068 31.0194 40.7351C31.0072 40.7635 31.001 40.794 31.0011 40.8249V40.9328C31.006 40.9958 31.0353 41.0544 31.0827 41.0961C31.1301 41.1379 31.1919 41.1594 31.2549 41.1562H33.632C33.6625 41.1578 33.6931 41.1531 33.7218 41.1423C33.7505 41.1316 33.7766 41.115 33.7986 41.0937C33.8206 41.0723 33.838 41.0467 33.8497 41.0184C33.8614 40.99 33.8672 40.9596 33.8666 40.9289V40.821C33.8599 40.7594 33.8307 40.7024 33.7845 40.6611C33.7383 40.6199 33.6785 40.5972 33.6166 40.5976Z" fill="#FDD869"/>
<path d="M75.1338 40.2817H72.7568C72.7265 40.2801 72.6962 40.2847 72.6678 40.2952C72.6394 40.3058 72.6134 40.322 72.5915 40.3429C72.5695 40.3638 72.552 40.389 72.5401 40.4169C72.5282 40.4447 72.5221 40.4748 72.5221 40.5051V40.6168C72.528 40.6795 72.5575 40.7376 72.6047 40.7791C72.6519 40.8206 72.7132 40.8425 72.776 40.8403H75.153C75.1836 40.8419 75.2142 40.8372 75.2428 40.8264C75.2715 40.8157 75.2977 40.7991 75.3197 40.7778C75.3417 40.7564 75.3591 40.7308 75.3708 40.7025C75.3825 40.6741 75.3882 40.6437 75.3876 40.613V40.5051C75.3818 40.4425 75.3522 40.3844 75.305 40.3429C75.2578 40.3013 75.1965 40.2794 75.1338 40.2817Z" fill="#FDD869"/>
<path d="M89.565 38.7753H87.1881C87.1578 38.7738 87.1275 38.7784 87.0991 38.7889C87.0707 38.7994 87.0447 38.8156 87.0228 38.8365C87.0008 38.8575 86.9833 38.8826 86.9714 38.9105C86.9595 38.9384 86.9534 38.9684 86.9534 38.9988V39.1105C86.9593 39.1732 86.9888 39.2312 87.036 39.2728C87.0832 39.3143 87.1445 39.3362 87.2073 39.334H89.5843C89.6149 39.3356 89.6454 39.3308 89.6741 39.3201C89.7028 39.3093 89.729 39.2927 89.751 39.2714C89.773 39.2501 89.7904 39.2245 89.8021 39.1961C89.8138 39.1678 89.8195 39.1373 89.8189 39.1067V38.9988C89.8122 38.9365 89.7824 38.8789 89.7354 38.8376C89.6884 38.7962 89.6276 38.774 89.565 38.7753Z" fill="#FDD869"/>
<path d="M20.5585 41.4799C18.1123 34.1059 42.2748 14.7233 65.4989 19.3041C77.6186 21.6927 85.7228 29.9143 89.2114 33.3893C93.0923 37.242 97.2617 41.4144 96.1117 44.8317C94.6347 49.2121 85.342 49.6898 72.2107 50.3756C56.41 51.1962 44.1595 49.6898 32.8821 46.6886C25.1356 44.6275 21.247 43.5526 20.5739 41.476L20.5585 41.4799Z" fill="#F7B23A"/>
<path d="M44.0901 42.7512C105.381 41.1177 66.3179 22.2012 68.5642 20.2171C68.8334 19.9821 68.745 20.1786 71.1835 20.6216C79.4031 22.1165 88.4458 31.7134 90.9074 33.9826C93.369 36.2518 96.9077 42.8937 96.1076 44.8355C95.0845 47.3204 88.9689 50.7338 80.0185 51.123C69.2488 51.5891 42.29 49.8208 34.8666 47.305C32.4665 46.4882 29.9741 46.1261 30.5664 45.9065C32.4088 45.2323 37.509 42.9245 44.0901 42.7512Z" fill="#F8952D"/>
<path d="M83.3072 45.2131H81.4225C81.3575 45.2099 81.2924 45.2201 81.2314 45.2429C81.1704 45.2657 81.1146 45.3007 81.0675 45.3457C81.0204 45.3907 80.9829 45.4449 80.9573 45.5049C80.9317 45.5649 80.9186 45.6294 80.9186 45.6947V45.8603C80.9294 45.9945 80.9914 46.1194 81.0916 46.2091C81.1919 46.2987 81.3228 46.3463 81.4571 46.3419H83.3418C83.4069 46.345 83.4719 46.3349 83.5329 46.3121C83.5939 46.2893 83.6497 46.2543 83.6968 46.2093C83.7439 46.1643 83.7814 46.1101 83.807 46.0501C83.8326 45.9901 83.8457 45.9256 83.8457 45.8603V45.6908C83.833 45.5577 83.7704 45.4343 83.6705 45.3456C83.5705 45.2569 83.4407 45.2096 83.3072 45.2131Z" fill="#FDD869"/>
<path d="M77.3107 29.7601H76.2453C76.1802 29.7569 76.1153 29.7671 76.0543 29.7899C75.9932 29.8127 75.9375 29.8477 75.8903 29.8927C75.8432 29.9377 75.8057 29.9919 75.7801 30.0519C75.7546 30.1119 75.7414 30.1764 75.7415 30.2417V30.4112C75.7541 30.5453 75.8171 30.6697 75.9178 30.7591C76.0184 30.8485 76.1493 30.8963 76.2838 30.8928H77.3492C77.4141 30.8964 77.479 30.8868 77.54 30.8644C77.601 30.8421 77.6568 30.8075 77.704 30.7627C77.7512 30.718 77.7888 30.6641 77.8144 30.6043C77.84 30.5445 77.8532 30.4801 77.8531 30.415V30.2455C77.8414 30.1106 77.7787 29.9853 77.6779 29.8951C77.5772 29.8049 77.4458 29.7566 77.3107 29.7601Z" fill="#FDD869"/>
<path d="M33.7205 40.1661H32.932C32.8671 40.1629 32.8023 40.1731 32.7415 40.1959C32.6806 40.2188 32.6252 40.2538 32.5783 40.2989C32.5315 40.344 32.4944 40.3982 32.4692 40.4582C32.4441 40.5181 32.4314 40.5826 32.432 40.6477V40.8172C32.4455 40.9507 32.5089 41.0741 32.6095 41.1627C32.7101 41.2513 32.8404 41.2985 32.9743 41.2949H33.7436C33.8084 41.2981 33.8733 41.2879 33.9341 41.2651C33.9949 41.2422 34.0504 41.2072 34.0972 41.1621C34.1441 41.117 34.1812 41.0628 34.2064 41.0028C34.2315 40.9429 34.2442 40.8784 34.2436 40.8133V40.6477C34.2312 40.5168 34.1709 40.3952 34.0743 40.3063C33.9777 40.2174 33.8517 40.1674 33.7205 40.1661Z" fill="#FDD869"/>
<path d="M50.1558 27.4254H47.7864C47.7202 27.4223 47.654 27.4326 47.5919 27.4557C47.5297 27.4789 47.4728 27.5144 47.4247 27.5601C47.3765 27.6058 47.3382 27.6607 47.3117 27.7217C47.2853 27.7826 47.2715 27.8483 47.271 27.9147V28.0649C47.2837 28.2018 47.3481 28.3287 47.4511 28.4197C47.554 28.5106 47.6877 28.5587 47.8249 28.5542H50.2019C50.2685 28.5574 50.335 28.5469 50.3974 28.5235C50.4599 28.5002 50.5169 28.4643 50.5651 28.4182C50.6132 28.3721 50.6516 28.3167 50.6778 28.2553C50.704 28.1939 50.7174 28.1278 50.7173 28.0611V27.9147C50.7046 27.7764 50.6391 27.6484 50.5345 27.5572C50.4299 27.4661 50.2943 27.4189 50.1558 27.4254Z" fill="#FDD869"/>
<path d="M71.6605 41.5069H70.6951C70.6304 41.5032 70.5657 41.5128 70.5049 41.5352C70.4441 41.5576 70.3885 41.5923 70.3416 41.6371C70.2947 41.6819 70.2576 41.7358 70.2324 41.7956C70.2071 41.8554 70.1944 41.9197 70.1951 41.9846V42.1541C70.2077 42.2883 70.2707 42.4127 70.3714 42.5021C70.4721 42.5915 70.6029 42.6392 70.7374 42.6357H71.7028C71.7678 42.6383 71.8326 42.6278 71.8933 42.6048C71.9541 42.5818 72.0096 42.5468 72.0566 42.5018C72.1036 42.4569 72.1411 42.403 72.1669 42.3433C72.1927 42.2835 72.2062 42.2192 72.2067 42.1541V41.9846C72.1931 41.8504 72.1292 41.7265 72.0278 41.6378C71.9264 41.5491 71.7951 41.5023 71.6605 41.5069Z" fill="#FDD869"/>
<path d="M65.3872 46.5422H63.5986C63.5324 46.5391 63.4662 46.5494 63.404 46.5725C63.3419 46.5957 63.285 46.6312 63.2369 46.6769C63.1888 46.7225 63.1503 46.7775 63.1239 46.8385C63.0975 46.8994 63.0837 46.965 63.0832 47.0315V47.1817C63.0861 47.2543 63.1036 47.3255 63.1346 47.3912C63.1657 47.4568 63.2096 47.5155 63.2638 47.5637C63.3181 47.6119 63.3815 47.6487 63.4502 47.6718C63.519 47.6948 63.5917 47.7037 63.664 47.698H65.4526C65.5191 47.7011 65.5857 47.6907 65.6481 47.6673C65.7105 47.6439 65.7675 47.6081 65.8157 47.562C65.8639 47.5159 65.9023 47.4604 65.9284 47.399C65.9546 47.3377 65.968 47.2716 65.968 47.2048V47.0584C65.9656 46.9857 65.9485 46.9142 65.9176 46.8483C65.8868 46.7824 65.8428 46.7235 65.7885 46.6751C65.7341 46.6268 65.6705 46.5901 65.6015 46.5673C65.5325 46.5444 65.4596 46.5359 65.3872 46.5422Z" fill="#FDD869"/>
<path d="M58.633 34.8341H57.4791C57.4297 34.8309 57.3802 34.8379 57.3337 34.8547C57.2871 34.8715 57.2444 34.8976 57.2084 34.9316C57.1723 34.9655 57.1436 35.0066 57.124 35.0521C57.1044 35.0976 57.0944 35.1466 57.0945 35.1962V35.3079C57.0974 35.3586 57.1103 35.4081 57.1324 35.4537C57.1545 35.4993 57.1854 35.5402 57.2233 35.5738C57.2612 35.6074 57.3053 35.6333 57.3531 35.6498C57.401 35.6663 57.4516 35.6732 57.5022 35.6701H58.6561C58.7056 35.6738 58.7554 35.6672 58.8022 35.6506C58.849 35.6341 58.8918 35.6079 58.928 35.5739C58.9642 35.5398 58.9929 35.4986 59.0123 35.4528C59.0317 35.407 59.0414 35.3577 59.0407 35.3079V35.1962C59.0378 35.1456 59.0249 35.096 59.0028 35.0504C58.9807 35.0048 58.9498 34.964 58.9119 34.9303C58.874 34.8967 58.8299 34.8709 58.782 34.8543C58.7342 34.8378 58.6835 34.8309 58.633 34.8341Z" fill="#FDD869"/>
<path d="M38.4052 31.7404H36.1513C36.0914 31.7372 36.0316 31.7463 35.9755 31.7672C35.9193 31.7881 35.868 31.8203 35.8248 31.8619C35.7816 31.9034 35.7472 31.9533 35.724 32.0086C35.7008 32.0639 35.6891 32.1234 35.6897 32.1834V32.3221C35.7014 32.4457 35.7595 32.5603 35.8524 32.6425C35.9452 32.7248 36.0658 32.7686 36.1897 32.7652H38.4437C38.5035 32.7683 38.5633 32.7592 38.6195 32.7383C38.6756 32.7174 38.7269 32.6852 38.7702 32.6437C38.8134 32.6021 38.8477 32.5522 38.871 32.4969C38.8942 32.4416 38.9058 32.3821 38.9052 32.3221V32.1834C38.8936 32.0598 38.8354 31.9452 38.7426 31.863C38.6497 31.7807 38.5291 31.7369 38.4052 31.7404Z" fill="#FDD869"/>
<path d="M70.7797 24.3357H68.9027C68.8494 24.3308 68.7956 24.3372 68.7449 24.3544C68.6941 24.3716 68.6476 24.3992 68.6081 24.4355C68.5686 24.4717 68.5372 24.5159 68.5157 24.565C68.4942 24.6142 68.4833 24.6673 68.4835 24.7209V24.8481C68.4978 24.9573 68.5522 25.0573 68.6361 25.1285C68.72 25.1998 68.8274 25.2371 68.9373 25.2333H70.8143C70.8696 25.239 70.9255 25.2326 70.9781 25.2145C71.0307 25.1965 71.0787 25.1672 71.119 25.1287C71.1592 25.0903 71.1906 25.0436 71.211 24.9918C71.2315 24.94 71.2405 24.8844 71.2374 24.8288V24.7055C71.2189 24.5988 71.1622 24.5024 71.078 24.4344C70.9938 24.3663 70.8878 24.3313 70.7797 24.3357Z" fill="#FDD869"/>
<path d="M86.161 40.5629H85.3264C85.2727 40.5575 85.2186 40.5635 85.1674 40.5804C85.1162 40.5973 85.0691 40.6248 85.0292 40.6612C84.9893 40.6975 84.9575 40.7418 84.9358 40.7913C84.9141 40.8407 84.903 40.8942 84.9033 40.9482V41.0753C84.914 41.1884 84.9673 41.2931 85.0523 41.3682C85.1373 41.4434 85.2477 41.4833 85.361 41.4798H86.1957C86.2507 41.4849 86.3061 41.478 86.3582 41.4597C86.4104 41.4414 86.4579 41.412 86.4977 41.3736C86.5375 41.3353 86.5686 41.2888 86.5888 41.2373C86.609 41.1858 86.6179 41.1305 86.6149 41.0753V40.9482C86.6007 40.8389 86.5462 40.7389 86.4623 40.6677C86.3784 40.5965 86.271 40.5591 86.161 40.5629Z" fill="#FDD869"/>
<path d="M50.3711 44.3038H48.6326C48.5789 44.2984 48.5248 44.3044 48.4736 44.3213C48.4224 44.3382 48.3753 44.3657 48.3354 44.4021C48.2955 44.4384 48.2636 44.4827 48.242 44.5322C48.2203 44.5816 48.2092 44.6351 48.2095 44.6891V44.8162C48.2202 44.9293 48.2735 45.034 48.3585 45.1091C48.4435 45.1843 48.5539 45.2242 48.6672 45.2207H50.4057C50.461 45.2264 50.5169 45.22 50.5695 45.2019C50.6221 45.1839 50.6702 45.1546 50.7104 45.1161C50.7506 45.0777 50.782 45.031 50.8024 44.9792C50.8229 44.9274 50.8319 44.8718 50.8288 44.8162V44.6891C50.8145 44.5791 50.7595 44.4786 50.6748 44.4073C50.59 44.3359 50.4817 44.299 50.3711 44.3038Z" fill="#FDD869"/>
<path d="M40.0091 25.9229H38.8552C38.8059 25.9198 38.7564 25.9268 38.7098 25.9436C38.6632 25.9603 38.6206 25.9865 38.5845 26.0205C38.5485 26.0544 38.5197 26.0954 38.5001 26.1409C38.4805 26.1864 38.4705 26.2355 38.4706 26.2851V26.3968C38.4736 26.4474 38.4864 26.497 38.5085 26.5426C38.5306 26.5882 38.5615 26.629 38.5994 26.6627C38.6373 26.6963 38.6814 26.7221 38.7293 26.7387C38.7771 26.7552 38.8278 26.7621 38.8783 26.7589H40.0322C40.0816 26.7621 40.1311 26.7551 40.1777 26.7383C40.2243 26.7215 40.2669 26.6954 40.3029 26.6614C40.339 26.6275 40.3677 26.5865 40.3873 26.5409C40.4069 26.4954 40.417 26.4464 40.4169 26.3968V26.2851C40.4139 26.2344 40.401 26.1849 40.3789 26.1393C40.3568 26.0937 40.326 26.0528 40.2881 26.0192C40.2502 25.9856 40.206 25.9597 40.1582 25.9432C40.1103 25.9267 40.0597 25.9198 40.0091 25.9229Z" fill="#FDD869"/>
</g>
<mask id="mask1_77_1828" style="mask-type:luminance" maskUnits="userSpaceOnUse" x="51" y="10" width="47" height="47">
<path d="M97.0672 37.7492C99.406 25.219 91.1643 13.1627 78.6588 10.8207C66.1533 8.47882 54.1196 16.7381 51.7807 29.2683C49.4418 41.7986 57.6835 53.8549 70.189 56.1968C82.6945 58.5387 94.7283 50.2794 97.0672 37.7492Z" fill="white"/>
</mask>
<g mask="url(#mask1_77_1828)">
<path d="M19.7857 55.3264C17.7164 56.2317 17.4779 57.0408 17.2625 57.4607C16.504 58.9313 16.2836 60.6215 16.6394 62.238C16.9671 63.8697 17.9252 65.3056 19.3049 66.2332C20.2747 66.8232 21.3643 67.1879 22.4935 67.3004C47.4945 70.3825 55.7987 70.5712 55.7987 70.5712C59.0643 70.6483 70.8686 70.5944 80.5998 69.7275C83.6469 69.6372 86.674 69.2017 89.6232 68.4292C94.0042 67.3196 96.2158 66.7302 97.4043 65.1621C99.2236 62.7581 98.1736 59.3023 96.3043 56.9714C95.7042 56.3672 94.974 55.9085 94.1696 55.6307" fill="#A83C27"/>
<path d="M19.8165 55.3263C17.7357 56.0622 17.4857 56.7017 17.2741 57.0369C16.8983 57.5826 16.644 58.2028 16.5285 58.8556C16.413 59.5084 16.4391 60.1784 16.6049 60.8202C16.7881 61.5025 17.1178 62.1366 17.5708 62.6783C18.0239 63.2199 18.5894 63.656 19.228 63.9562C20.2275 64.4229 21.3048 64.6999 22.4051 64.773C47.36 66.9536 55.6603 67.0306 55.6603 67.0306C58.922 67.0614 70.7264 66.9035 80.4576 66.1252C83.4966 66.0249 86.5204 65.651 89.4926 65.008C93.8773 64.0872 96.1005 63.6018 97.3005 62.3458C99.1391 60.4195 98.1429 57.7227 96.2813 55.8772C95.6536 55.3893 94.9321 55.0365 94.162 54.8409" fill="#BD5E48"/>
<path d="M16.8164 50.6917C15.8549 52.7259 15.3545 54.948 15.3509 57.1988C15.3358 57.422 15.3358 57.6459 15.3509 57.8691C16.0164 61.7718 64.8607 66.3449 82.8768 62.6502C82.8768 62.6502 88.2232 61.9529 92.2349 60.9705C93.5081 60.6584 98.2467 60.2423 98.7737 56.9291C98.9698 55.6423 99.3545 54.7331 98.5698 53.9086" fill="#E24747"/>
<path d="M17.6279 50.6723C16.6804 52.2644 16.1671 54.0779 16.1394 55.9311C16.1241 56.1106 16.1241 56.291 16.1394 56.4705C16.7779 59.6181 65.0761 63.0701 82.9153 59.9918C82.9153 59.9918 88.2078 59.4024 92.181 58.5895C93.4465 58.3313 98.1313 57.9692 98.6505 55.2916C98.8505 54.2514 99.2352 53.5155 98.4659 52.8529" fill="#F25855"/>
<path d="M18.1972 47.4169C16.6587 49.4703 15.3779 51.1193 14.3509 52.3906C14.2124 52.5563 14.0278 52.7759 14.0855 52.9531C14.3201 53.6928 20.0511 49.8325 21.2358 51.4544C22.2358 52.8221 19.278 56.929 20.1857 58.0039C21.0204 58.9786 24.5975 56.7634 26.6437 54.8871C26.9103 54.6145 27.2013 54.3669 27.513 54.1474C28.1284 53.7352 29.2784 53.1843 32.6324 53.6851C34.9902 54.0396 36.2287 54.5828 37.1403 53.6851C37.3055 53.4641 37.5055 53.2715 37.7326 53.1149C38.2826 52.7874 39.0403 52.8106 40.5635 53.6967C42.6097 54.8794 42.4367 55.5344 43.4598 55.7848C44.7944 56.1084 45.0483 54.9912 47.0946 54.8101C48.3149 54.733 49.5351 54.9621 50.6447 55.4766C52.3294 56.2009 52.3679 56.8712 53.441 57.0176C55.0449 57.2295 55.2526 55.7694 56.9988 55.5922C58.8989 55.4034 61.1221 56.8866 62.449 58.4316C63.0798 59.1636 63.4683 59.8609 63.9376 59.7376C64.803 59.518 64.7069 56.8828 65.6069 56.6555C65.9646 56.5669 66.2107 56.9136 67.0262 57.6726C68.6493 59.2137 69.4647 59.9611 70.1417 59.8609C71.3725 59.6798 71.1687 57.0677 72.6649 56.328C73.8611 55.7386 75.2842 56.7595 77.4458 58.3121C79.4151 59.726 79.5498 60.3386 81.1652 61.2209C82.0114 61.6832 84.4308 63.0046 85.2192 61.9914C86.1424 60.8356 83.8153 57.7535 84.7961 56.1585C85.6269 54.8178 88.4848 55.0836 90.4156 56.3974C91.7811 57.3297 92.4041 58.6011 92.9388 58.3237C93.708 57.9076 92.8773 55.0528 93.7619 54.471C94.2773 54.1282 94.8889 54.8794 97.1659 56.093C98.6313 56.8635 99.3698 57.2488 99.7044 57.0022C100.228 56.5977 100.281 54.8332 98.4659 49.1544" fill="#9BB841"/>
<path d="M64.8184 51.1385C64.3684 52.329 64.0069 53.2922 63.7069 54.0396C63.6505 54.1346 63.6287 54.2462 63.6453 54.3555C63.8068 54.7407 65.7839 52.3174 66.4108 53.1188C66.9378 53.7892 66.107 56.1739 66.5685 56.6825C67.0301 57.191 68.2455 55.7501 68.9032 54.6213C68.9847 54.463 69.08 54.3122 69.1879 54.1706C69.4032 53.9124 69.8187 53.5464 71.2226 53.6119C72.2072 53.6582 72.7611 53.8701 73.0457 53.323C73.0917 53.2002 73.1551 53.0847 73.2342 52.9801C73.4265 52.772 73.7342 52.7412 74.4342 53.1188C75.365 53.6273 75.3574 53.9895 75.792 54.0627C76.3574 54.1551 76.3612 53.5426 77.1767 53.3153C77.6775 53.2021 78.2013 53.2506 78.6729 53.454C79.4421 53.7429 79.496 54.0974 79.9421 54.1089C80.6114 54.1089 80.5653 53.3384 81.2576 53.1303C82.0269 52.9107 83.0423 53.5696 83.7192 54.3131C84.0385 54.6676 84.2577 55.0181 84.4385 54.9218C84.7693 54.7523 84.4885 53.3461 84.8231 53.165C84.9616 53.0957 85.0885 53.269 85.4885 53.6235C86.2847 54.3401 86.6809 54.7022 86.9463 54.6059C87.4271 54.4325 87.1117 53.0456 87.6502 52.5563C88.0848 52.171 88.7502 52.6295 89.7656 53.3268C90.6888 53.9664 90.8003 54.2861 91.5311 54.6598C91.9157 54.8563 93.0119 55.4304 93.2427 54.8332C93.5158 54.1513 92.2965 52.6488 92.5504 51.7511C92.7696 50.9806 93.9504 50.9498 94.8582 51.5392C95.4966 51.9553 95.862 52.5948 96.0505 52.4099C96.3236 52.1402 95.7351 50.6608 96.0505 50.2948C96.2313 50.0791 96.5428 50.4451 97.589 50.9536C98.2506 51.2849 98.5852 51.4429 98.7006 51.2811C98.8737 51.0345 98.7391 50.0829 97.4967 47.1549" fill="#8DA43F"/>
<path d="M17.801 34.6608C15.6086 35.6086 15.3355 36.487 15.1085 36.9454C14.2843 38.5559 14.0229 40.3967 14.3662 42.1735C14.5162 42.8708 14.9893 45.14 17.0894 46.6194C18.089 47.286 19.229 47.7119 20.4203 47.8638C46.6098 51.7781 55.3256 52.1826 55.3256 52.1826C58.7527 52.3406 71.1494 52.5371 81.3767 51.7974C84.582 51.7667 87.7724 51.3554 90.881 50.5722C95.4966 49.4472 97.8313 48.8501 99.1044 47.1588C101.058 44.5544 100.039 40.7441 98.1044 38.1436C97.4924 37.4718 96.7325 36.952 95.885 36.6257" fill="#A83C27"/>
<path d="M18.0126 34.6569C15.8472 35.3966 15.574 36.0785 15.3471 36.4291C14.9476 37.011 14.6729 37.6696 14.5405 38.3632C14.4081 39.0569 14.4208 39.7705 14.5778 40.459C14.7519 41.1841 15.0792 41.8633 15.5377 42.4508C15.9962 43.0384 16.5752 43.5205 17.2357 43.8647C18.2573 44.3825 19.3683 44.7002 20.5089 44.8009C46.2792 47.6596 54.8872 47.9177 54.8872 47.9177C58.2605 48.0217 70.4802 48.0988 80.5652 47.4708C83.7136 47.4268 86.8514 47.0928 89.9387 46.473C94.4966 45.5791 96.8005 45.1053 98.0659 43.7954C99.9891 41.7804 99.0237 38.8524 97.1352 36.8606C96.5002 36.3262 95.7596 35.9323 94.962 35.7048" fill="#BD5E48"/>
<mask id="mask2_77_1828" style="mask-type:luminance" maskUnits="userSpaceOnUse" x="17" y="10" width="81" height="37">
<path d="M58.9951 10.9402C58.9951 10.9402 84.2346 10.081 96.4351 32.9272C106.878 52.487 12.8085 48.2722 17.1664 34.0329C20.3088 23.7695 36.021 11.0596 58.9951 10.9402Z" fill="white"/>
</mask>
<g mask="url(#mask2_77_1828)">
<path d="M91.2006 39.4689L87.0812 39.5112C87.019 39.5091 86.957 39.5197 86.899 39.5422C86.8409 39.5648 86.788 39.5989 86.7435 39.6424C86.6989 39.686 86.6636 39.7381 86.6397 39.7956C86.6158 39.8532 86.6037 39.915 86.6043 39.9774V40.1623C86.617 40.2907 86.6782 40.4094 86.7755 40.4939C86.8728 40.5785 86.9987 40.6225 87.1274 40.6169L91.2506 40.5746C91.3123 40.5766 91.3739 40.5662 91.4314 40.5438C91.489 40.5215 91.5415 40.4877 91.5857 40.4445C91.6299 40.4013 91.6649 40.3496 91.6886 40.2925C91.7123 40.2354 91.7243 40.1741 91.7237 40.1122V39.9235C91.7111 39.7951 91.6498 39.6764 91.5525 39.5919C91.4552 39.5073 91.3293 39.4633 91.2006 39.4689Z" fill="#FDD869"/>
<path d="M64.2302 43.1134L60.1108 43.1558C60.0486 43.1537 59.9866 43.1643 59.9285 43.1868C59.8705 43.2094 59.8176 43.2434 59.773 43.287C59.7284 43.3305 59.6932 43.3827 59.6692 43.4402C59.6453 43.4978 59.6333 43.5596 59.6338 43.622V43.8069C59.6465 43.9353 59.7077 44.054 59.805 44.1385C59.9023 44.2231 60.0283 44.2671 60.1569 44.2615L64.2802 44.2191C64.3419 44.2212 64.4034 44.2108 64.461 44.1884C64.5186 44.1661 64.571 44.1323 64.6152 44.0891C64.6594 44.0459 64.6944 43.9942 64.7181 43.9371C64.7419 43.88 64.7538 43.8187 64.7533 43.7568V43.5681C64.7406 43.4397 64.6794 43.321 64.5821 43.2365C64.4848 43.1519 64.3588 43.1079 64.2302 43.1134Z" fill="#FDD869"/>
<path d="M77.8616 35.6933L75.0538 35.7241C75.0178 35.7225 74.9819 35.7283 74.9483 35.7413C74.9147 35.7542 74.8841 35.7739 74.8585 35.7993C74.8329 35.8246 74.8127 35.8549 74.7993 35.8884C74.786 35.9219 74.7796 35.9577 74.7807 35.9938V36.1402C74.7876 36.2148 74.8231 36.2838 74.8798 36.3327C74.9365 36.3816 75.0099 36.4065 75.0845 36.4022L77.8885 36.3752C77.9246 36.3768 77.9607 36.3709 77.9945 36.3581C78.0283 36.3452 78.0592 36.3255 78.0851 36.3002C78.111 36.275 78.1315 36.2447 78.1453 36.2112C78.1592 36.1777 78.166 36.1417 78.1654 36.1055V35.9784C78.165 35.9394 78.1566 35.901 78.141 35.8653C78.1253 35.8297 78.1026 35.7976 78.0742 35.7709C78.0458 35.7443 78.0124 35.7237 77.9758 35.7104C77.9393 35.697 77.9004 35.6912 77.8616 35.6933Z" fill="#FDD869"/>
<path d="M94.8815 33.7554L92.0737 33.7824C92.0378 33.7819 92.0022 33.7884 91.9689 33.8017C91.9356 33.815 91.9052 33.8347 91.8795 33.8598C91.8537 33.8848 91.8332 33.9147 91.819 33.9477C91.8048 33.9807 91.7973 34.0161 91.7968 34.0521V34.1792C91.8036 34.2541 91.839 34.3235 91.8956 34.373C91.9521 34.4225 92.0256 34.4483 92.1007 34.445L94.9046 34.4142C94.9409 34.4164 94.9772 34.4109 95.0113 34.3983C95.0453 34.3856 95.0764 34.3659 95.1024 34.3405C95.1285 34.3152 95.149 34.2846 95.1626 34.2509C95.1762 34.2171 95.1826 34.1809 95.1815 34.1445V34.0174C95.1747 33.9435 95.1397 33.875 95.0839 33.8263C95.028 33.7775 94.9556 33.7521 94.8815 33.7554Z" fill="#FDD869"/>
<path d="M13.4471 37.7198C10.4739 29.0398 38.7866 5.88936 66.2532 11.0365C80.5845 13.7333 90.2427 23.3379 94.4005 27.3986C99.0161 31.9216 103.993 36.7798 102.674 40.8289C100.982 46.0146 90.0349 46.6849 74.5227 47.6404C55.8797 48.7962 41.3983 47.1472 28.0554 43.7338C18.8858 41.3837 14.2856 40.1624 13.4394 37.716L13.4471 37.7198Z" fill="#F7B23A"/>
<path d="M41.2408 38.9565C113.575 36.3405 67.2496 14.4499 69.8805 12.0805C70.192 11.7993 70.0959 12.0304 72.9575 12.5274C82.6772 14.1995 93.4584 25.426 96.3931 28.0805C99.3279 30.735 103.574 38.5327 102.651 40.8327C101.47 43.7761 94.2892 47.8753 83.7272 48.4378C71.0344 49.1082 39.1753 47.3206 30.3826 44.4349C27.5441 43.5026 24.6132 43.1019 25.294 42.8361C27.4787 42.0193 33.4789 39.2223 41.2408 38.9565Z" fill="#F8952D"/>
<path d="M87.562 41.4261H85.3389C85.262 41.4229 85.1854 41.4355 85.1136 41.463C85.0418 41.4905 84.9764 41.5325 84.9213 41.5862C84.8662 41.6399 84.8226 41.7043 84.7932 41.7755C84.7639 41.8467 84.7493 41.9231 84.7504 42.0001V42.2004C84.766 42.3588 84.8418 42.5051 84.962 42.6091C85.0823 42.7131 85.2379 42.7668 85.3966 42.7591L87.6197 42.7398C87.6966 42.743 87.7732 42.7304 87.845 42.7028C87.9168 42.6753 87.9823 42.6334 88.0373 42.5797C88.0924 42.5259 88.136 42.4615 88.1654 42.3904C88.1948 42.3192 88.2094 42.2428 88.2082 42.1658V41.9654C88.1864 41.8113 88.1082 41.6708 87.9888 41.5711C87.8694 41.4714 87.7173 41.4197 87.562 41.4261Z" fill="#FDD869"/>
<path d="M80.3118 23.2493H79.054C78.9773 23.2467 78.9009 23.2597 78.8293 23.2874C78.7578 23.3151 78.6925 23.3571 78.6376 23.4107C78.5826 23.4643 78.5391 23.5285 78.5095 23.5994C78.4799 23.6703 78.4649 23.7465 78.4655 23.8233V24.0237C78.4811 24.1814 78.5563 24.3271 78.6758 24.431C78.7952 24.5348 78.9498 24.589 79.1079 24.5823H80.3656C80.4424 24.5855 80.5191 24.5729 80.5909 24.5454C80.6627 24.5178 80.7281 24.4759 80.7832 24.4222C80.8383 24.3684 80.8819 24.304 80.9112 24.2329C80.9406 24.1617 80.9552 24.0853 80.9541 24.0083V23.8118C80.9385 23.6538 80.8634 23.5077 80.7441 23.4032C80.6247 23.2987 80.4702 23.2436 80.3118 23.2493Z" fill="#FDD869"/>
<path d="M73.773 37.1804H72.6191C72.5423 37.1773 72.4656 37.1898 72.3938 37.2174C72.322 37.2449 72.2565 37.2868 72.2015 37.3405C72.1464 37.3943 72.1029 37.4587 72.0735 37.5299C72.0441 37.601 72.0295 37.6774 72.0306 37.7545V37.9509C72.0462 38.1096 72.1218 38.2563 72.242 38.3609C72.3621 38.4655 72.5177 38.5201 72.6768 38.5134H73.8307C73.9075 38.5166 73.9842 38.504 74.056 38.4765C74.1278 38.4489 74.1932 38.407 74.2483 38.3533C74.3034 38.2996 74.347 38.2351 74.3763 38.164C74.4057 38.0928 74.4203 38.0164 74.4192 37.9394V37.739C74.4036 37.5807 74.3278 37.4344 74.2075 37.3304C74.0873 37.2264 73.9317 37.1727 73.773 37.1804Z" fill="#FDD869"/>
<path d="M66.4265 43.1982L64.311 43.2213C64.2327 43.2182 64.1545 43.231 64.0813 43.2592C64.0081 43.2873 63.9414 43.33 63.8852 43.3848C63.8291 43.4397 63.7846 43.5053 63.7547 43.5779C63.7247 43.6505 63.7099 43.7284 63.711 43.8069V43.9841C63.7275 44.1452 63.8047 44.2939 63.9269 44.3999C64.0492 44.5058 64.2072 44.5611 64.3687 44.5543L66.4803 44.5312C66.5584 44.5349 66.6366 44.5225 66.7097 44.4949C66.7829 44.4672 66.8497 44.4248 66.9059 44.3703C66.9621 44.3158 67.0066 44.2503 67.0366 44.178C67.0666 44.1056 67.0815 44.0278 67.0803 43.9495V43.7723C67.0639 43.6115 66.9873 43.463 66.866 43.3565C66.7447 43.25 66.5877 43.1935 66.4265 43.1982Z" fill="#FDD869"/>
<path d="M58.3223 29.4482H56.953C56.8952 29.4456 56.8374 29.4548 56.7833 29.4754C56.7293 29.496 56.68 29.5275 56.6385 29.568C56.597 29.6084 56.5643 29.6569 56.5423 29.7105C56.5204 29.7642 56.5096 29.8217 56.5107 29.8797V30.0107C56.5224 30.1295 56.5792 30.2394 56.6693 30.3175C56.7595 30.3956 56.8762 30.4361 56.9953 30.4306H58.3685C58.4261 30.4327 58.4836 30.4231 58.5375 30.4023C58.5913 30.3815 58.6404 30.35 58.6818 30.3096C58.7231 30.2693 58.7558 30.221 58.778 30.1676C58.8002 30.1142 58.8113 30.0569 58.8108 29.9991V29.8681C58.7982 29.749 58.7406 29.6391 58.6498 29.561C58.559 29.483 58.4418 29.4426 58.3223 29.4482Z" fill="#FDD869"/>
<path d="M72.5421 16.9156L70.3266 16.9387C70.2623 16.9361 70.198 16.9466 70.1379 16.9698C70.0777 16.9929 70.0229 17.0281 69.9768 17.0732C69.9307 17.1183 69.8943 17.1723 69.8698 17.232C69.8453 17.2917 69.8332 17.3558 69.8343 17.4203V17.5705C69.847 17.703 69.9099 17.8256 70.0101 17.913C70.1103 18.0005 70.24 18.0461 70.3728 18.0406L72.5883 18.0174C72.653 18.0206 72.7176 18.0105 72.7782 17.9876C72.8389 17.9647 72.8941 17.9296 72.9406 17.8845C72.9872 17.8393 73.0239 17.7851 73.0487 17.7251C73.0734 17.6651 73.0856 17.6007 73.0845 17.5359V17.3895C73.0709 17.2563 73.0073 17.1333 72.9067 17.0453C72.806 16.9574 72.6757 16.911 72.5421 16.9156Z" fill="#FDD869"/>
<path d="M90.8814 35.9013H89.8928C89.8286 35.8992 89.7646 35.9102 89.7047 35.9335C89.6448 35.9568 89.5902 35.992 89.5442 36.037C89.4982 36.082 89.4618 36.1358 89.4371 36.1952C89.4124 36.2547 89.4 36.3185 89.4005 36.3829V36.5331C89.4132 36.6663 89.4767 36.7895 89.5777 36.877C89.6787 36.9645 89.8094 37.0097 89.9428 37.0032H90.9275C90.992 37.0064 91.0565 36.9962 91.1169 36.9733C91.1773 36.9503 91.2324 36.9152 91.2786 36.87C91.3248 36.8248 91.3612 36.7705 91.3855 36.7105C91.4098 36.6506 91.4215 36.5863 91.4198 36.5216V36.3752C91.4072 36.2424 91.3444 36.1194 91.2443 36.0313C91.1443 35.9433 91.0145 35.8968 90.8814 35.9013Z" fill="#FDD869"/>
</g>
</g>
<path d="M57.7494 55.0745C58.4452 54.3693 58.4385 53.2325 57.7344 52.5356C57.0303 51.8386 55.8954 51.8454 55.1996 52.5507L45.6074 62.2734C44.9116 62.9787 44.9183 64.1154 45.6224 64.8123C46.3265 65.5093 47.4614 65.5025 48.1572 64.7973L57.7494 55.0745Z" fill="#666666"/>
<path d="M52.3452 63.7206C53.8488 62.1966 53.8343 59.7402 52.3127 58.2341C50.7912 56.728 48.3388 56.7426 46.8352 58.2667L26.0962 79.2878C24.5926 80.8119 24.6071 83.2682 26.1286 84.7743C27.6502 86.2804 30.1026 86.2658 31.6062 84.7418L52.3452 63.7206Z" fill="#333333"/>
<path opacity="0.5" d="M97.067 37.7491C99.4059 25.2189 91.1642 13.1626 78.6587 10.8207C66.1532 8.47876 54.1194 16.738 51.7806 29.2683C49.4417 41.7985 57.6834 53.8548 70.1889 56.1967C82.6944 58.5387 94.7282 50.2794 97.067 37.7491Z" fill="#BEF4EF"/>
<path d="M79.3764 56.9714C74.9563 57.8173 70.3851 57.3316 66.2407 55.5756C62.0962 53.8195 58.5646 50.8721 56.0924 47.1058C53.6202 43.3395 52.3183 38.9236 52.3515 34.4163C52.3846 29.909 53.7513 25.5128 56.2786 21.7834C58.8059 18.0541 62.3805 15.159 66.5503 13.4643C70.7201 11.7696 75.298 11.3514 79.7052 12.2625C84.1123 13.1736 88.1507 15.3731 91.31 18.5829C94.4692 21.7928 96.6073 25.8688 97.454 30.2957C98.0186 33.2365 97.9986 36.2598 97.3953 39.1928C96.7919 42.1258 95.6171 44.9109 93.938 47.3886C92.2589 49.8663 90.1085 51.988 87.6098 53.6323C85.1112 55.2767 82.3133 56.4113 79.3764 56.9714ZM100.435 29.7178C99.472 24.6989 97.0451 20.0786 93.4609 16.441C89.8768 12.8035 85.2963 10.3121 80.2986 9.28185C75.301 8.25157 70.1105 8.72868 65.3835 10.6528C60.6566 12.577 56.6053 15.8618 53.742 20.092C50.8786 24.3222 49.3318 29.3078 49.297 34.4185C49.2621 39.5291 50.7409 44.5354 53.5464 48.8043C56.3519 53.0732 60.358 56.4131 65.0583 58.4017C69.7586 60.3903 74.9421 60.9383 79.9533 59.9764C83.2823 59.338 86.4532 58.0486 89.2845 56.1821C92.1158 54.3156 94.5521 51.9085 96.4542 49.0984C98.3563 46.2883 99.6869 43.1303 100.37 39.8049C101.053 36.4795 101.075 33.0518 100.435 29.7178Z" fill="#666666"/>
<path d="M77.7341 55.7886C73.2693 56.6473 68.6505 56.1609 64.4617 54.3906C60.273 52.6203 56.7023 49.6458 54.2011 45.8431C51.6999 42.0403 50.3804 37.5801 50.4097 33.0264C50.4389 28.4727 51.8155 24.0298 54.3654 20.2597C56.9152 16.4895 60.5238 13.5612 64.735 11.8451C68.9462 10.1289 73.5708 9.702 78.0242 10.6182C82.4776 11.5345 86.5598 13.7528 89.7547 16.9926C92.9495 20.2325 95.1136 24.3484 95.9733 28.8201C96.5454 31.7909 96.5272 34.8455 95.9197 37.8092C95.3123 40.7729 94.1276 43.5877 92.4332 46.0924C90.7389 48.5971 88.5682 50.7427 86.0453 52.4064C83.5225 54.0702 80.6969 55.2195 77.7302 55.7886H77.7341ZM99.0081 28.2538C98.0359 23.183 95.5844 18.5147 91.9637 14.8393C88.3429 11.1639 83.7155 8.64636 78.6664 7.60499C73.6173 6.56363 68.3733 7.0452 63.5975 8.98882C58.8216 10.9324 54.7283 14.2508 51.8352 18.5244C48.942 22.798 47.3789 27.8349 47.3435 32.9983C47.308 38.1617 48.8019 43.2196 51.6361 47.5327C54.4703 51.8457 58.5176 55.2202 63.2663 57.2294C68.0151 59.2386 73.252 59.7923 78.3149 58.8206C81.6781 58.1761 84.8816 56.874 87.7422 54.9886C90.6028 53.1033 93.0643 50.6717 94.9861 47.8329C96.908 44.9942 98.2523 41.8038 98.9424 38.4443C99.6325 35.0848 99.6549 31.6219 99.0081 28.2538Z" fill="#B3B3B3"/>
<path opacity="0.5" d="M82.5573 20.0632C84.8151 16.7923 78.0302 10.6011 68.6875 14.2033C63.3565 16.2606 59.0063 20.171 57.4985 24.1354C54.8523 31.1087 57.8832 32.5727 60.4717 32.8693C63.4103 33.2084 66.1566 28.512 73.5492 25.7381C79.4918 23.5267 81.4688 21.7082 82.5573 20.0632Z" fill="white"/>
<path d="M93.2462 10.0693C92.3924 6.80228 96.2271 -0.39829 99.908 2.26388C103.589 4.92605 94.104 13.3402 93.2462 10.0693Z" fill="#9BB841"/>
<path d="M96.5887 12.7701C97.431 10.0733 103.354 6.64056 104.793 10.1734C106.231 13.7063 95.7463 15.4785 96.5887 12.7701Z" fill="#9BB841"/>
<path d="M89.5652 8.55915C87.4498 6.67136 86.7921 -0.147808 90.5999 0.00244458C94.4078 0.152697 91.6807 10.4469 89.5652 8.55915Z" fill="#9BB841"/>
<defs>
<radialGradient id="paint0_radial_77_1828" cx="0" cy="0" r="1" gradientUnits="userSpaceOnUse" gradientTransform="translate(57.4332 73.7985) scale(50.6983 13.711)">
<stop stop-opacity="0.5"/>
<stop offset="0.02" stop-opacity="0.47"/>
<stop offset="1" stop-opacity="0"/>
</radialGradient>
<radialGradient id="paint1_radial_77_1828" cx="0" cy="0" r="1" gradientUnits="userSpaceOnUse" gradientTransform="translate(29.0378 84.2987) scale(8.21573 4.44378)">
<stop stop-opacity="0.5"/>
<stop offset="0.02" stop-opacity="0.47"/>
<stop offset="1" stop-opacity="0"/>
</radialGradient>
</defs>
</svg>
