<svg width="250" height="40" viewBox="0 0 250 40" fill="none" xmlns="http://www.w3.org/2000/svg">
<rect width="250" height="40" rx="18" fill="#F7B23A"/>
<path d="M68.358 27H66.5114L71.8523 12.4545H73.6705L79.0114 27H77.1648L72.8182 14.7557H72.7045L68.358 27ZM69.0398 21.3182H76.483V22.8807H69.0398V21.3182ZM80.6417 31.0909V16.0909H82.261V17.8239H82.4599C82.583 17.6345 82.7535 17.393 82.9713 17.0994C83.1938 16.8011 83.511 16.536 83.923 16.304C84.3396 16.0672 84.9031 15.9489 85.6133 15.9489C86.5319 15.9489 87.3415 16.1785 88.0423 16.6378C88.743 17.0971 89.2899 17.7481 89.6829 18.5909C90.0759 19.4337 90.2724 20.428 90.2724 21.5739C90.2724 22.7292 90.0759 23.7306 89.6829 24.5781C89.2899 25.4209 88.7454 26.0743 88.0494 26.5384C87.3534 26.9976 86.5508 27.2273 85.6417 27.2273C84.941 27.2273 84.3799 27.1113 83.9585 26.8793C83.5371 26.6425 83.2127 26.375 82.9855 26.0767C82.7582 25.7737 82.583 25.5227 82.4599 25.3239H82.3179V31.0909H80.6417ZM82.2894 21.5455C82.2894 22.3693 82.4102 23.0961 82.6517 23.7259C82.8931 24.3509 83.2459 24.8409 83.7099 25.196C84.1739 25.5464 84.7421 25.7216 85.4144 25.7216C86.1152 25.7216 86.7 25.5369 87.1687 25.1676C87.6422 24.7936 87.9973 24.2917 88.234 23.6619C88.4755 23.0275 88.5963 22.322 88.5963 21.5455C88.5963 20.7784 88.4779 20.0871 88.2411 19.4716C88.0091 18.8513 87.6564 18.3613 87.1829 18.0014C86.7142 17.6368 86.1247 17.4545 85.4144 17.4545C84.7326 17.4545 84.1597 17.6274 83.6957 17.973C83.2317 18.3139 82.8813 18.7921 82.6446 19.4077C82.4078 20.0185 82.2894 20.7311 82.2894 21.5455ZM94.0974 12.4545V27H92.4212V12.4545H94.0974ZM96.7593 27V16.0909H98.4354V27H96.7593ZM97.6116 14.2727C97.2849 14.2727 97.0032 14.1615 96.7664 13.9389C96.5344 13.7164 96.4184 13.4489 96.4184 13.1364C96.4184 12.8239 96.5344 12.5563 96.7664 12.3338C97.0032 12.1113 97.2849 12 97.6116 12C97.9383 12 98.2176 12.1113 98.4497 12.3338C98.6864 12.5563 98.8048 12.8239 98.8048 13.1364C98.8048 13.4489 98.6864 13.7164 98.4497 13.9389C98.2176 14.1615 97.9383 14.2727 97.6116 14.2727ZM105.529 27.2273C104.506 27.2273 103.626 26.9858 102.887 26.5028C102.149 26.0199 101.58 25.3546 101.183 24.5071C100.785 23.6596 100.586 22.6913 100.586 21.6023C100.586 20.4943 100.79 19.5166 101.197 18.669C101.609 17.8168 102.182 17.1515 102.916 16.6733C103.654 16.1903 104.516 15.9489 105.501 15.9489C106.268 15.9489 106.959 16.0909 107.575 16.375C108.19 16.6591 108.694 17.0568 109.087 17.5682C109.48 18.0795 109.724 18.6761 109.819 19.358H108.143C108.015 18.8608 107.731 18.4205 107.291 18.0369C106.855 17.6487 106.268 17.4545 105.529 17.4545C104.876 17.4545 104.303 17.625 103.81 17.9659C103.323 18.3021 102.942 18.7779 102.667 19.3935C102.397 20.0043 102.262 20.7216 102.262 21.5455C102.262 22.3883 102.395 23.1222 102.66 23.7472C102.93 24.3722 103.309 24.8575 103.796 25.2031C104.289 25.5488 104.866 25.7216 105.529 25.7216C105.965 25.7216 106.36 25.6458 106.715 25.4943C107.07 25.3428 107.371 25.125 107.617 24.8409C107.864 24.5568 108.039 24.2159 108.143 23.8182H109.819C109.724 24.4621 109.49 25.0421 109.116 25.5582C108.747 26.0696 108.256 26.4768 107.646 26.7798C107.04 27.0781 106.334 27.2273 105.529 27.2273ZM115.072 27.2557C114.38 27.2557 113.753 27.1255 113.189 26.8651C112.626 26.5999 112.179 26.2188 111.847 25.7216C111.516 25.2197 111.35 24.6136 111.35 23.9034C111.35 23.2784 111.473 22.7718 111.719 22.3835C111.965 21.9905 112.295 21.6828 112.706 21.4602C113.118 21.2377 113.573 21.072 114.07 20.9631C114.572 20.8494 115.076 20.7595 115.583 20.6932C116.246 20.608 116.783 20.544 117.195 20.5014C117.612 20.4541 117.915 20.3759 118.104 20.267C118.298 20.1581 118.395 19.9687 118.395 19.6989V19.642C118.395 18.9413 118.204 18.3968 117.82 18.0085C117.441 17.6203 116.866 17.4261 116.094 17.4261C115.294 17.4261 114.667 17.6013 114.212 17.9517C113.758 18.3021 113.438 18.6761 113.253 19.0739L111.662 18.5057C111.947 17.8428 112.325 17.3267 112.799 16.9574C113.277 16.5833 113.798 16.3229 114.361 16.1761C114.929 16.0246 115.488 15.9489 116.037 15.9489C116.388 15.9489 116.79 15.9915 117.245 16.0767C117.704 16.1572 118.147 16.3253 118.573 16.581C119.004 16.8366 119.361 17.2225 119.645 17.7386C119.929 18.2547 120.072 18.946 120.072 19.8125V27H118.395V25.5227H118.31C118.197 25.7595 118.007 26.0128 117.742 26.2827C117.477 26.5526 117.124 26.7822 116.684 26.9716C116.243 27.161 115.706 27.2557 115.072 27.2557ZM115.327 25.75C115.99 25.75 116.549 25.6198 117.003 25.3594C117.463 25.099 117.808 24.7628 118.04 24.3509C118.277 23.9389 118.395 23.5057 118.395 23.0511V21.517C118.324 21.6023 118.168 21.6804 117.927 21.7514C117.69 21.8177 117.415 21.8769 117.103 21.929C116.795 21.9763 116.494 22.0189 116.201 22.0568C115.912 22.09 115.678 22.1184 115.498 22.142C115.062 22.1989 114.655 22.2912 114.276 22.419C113.902 22.5421 113.599 22.7292 113.367 22.9801C113.14 23.2263 113.026 23.5625 113.026 23.9886C113.026 24.571 113.241 25.0114 113.672 25.3097C114.108 25.6032 114.66 25.75 115.327 25.75ZM122.723 27V16.0909H124.342V17.7386H124.456C124.655 17.1989 125.014 16.7609 125.535 16.4247C126.056 16.0885 126.643 15.9205 127.297 15.9205C127.42 15.9205 127.574 15.9228 127.758 15.9276C127.943 15.9323 128.083 15.9394 128.177 15.9489V17.6534C128.121 17.6392 127.99 17.6179 127.787 17.5895C127.588 17.5563 127.377 17.5398 127.155 17.5398C126.624 17.5398 126.151 17.651 125.734 17.8736C125.322 18.0914 124.996 18.3944 124.754 18.7827C124.517 19.1662 124.399 19.6042 124.399 20.0966V27H122.723ZM139.831 16.0909V17.5114H133.95V16.0909H139.831ZM135.712 27V14.5852C135.712 13.9602 135.859 13.4394 136.152 13.0227C136.446 12.6061 136.827 12.2936 137.296 12.0852C137.764 11.8769 138.259 11.7727 138.78 11.7727C139.192 11.7727 139.528 11.8059 139.789 11.8722C140.049 11.9384 140.243 12 140.371 12.0568L139.888 13.5057C139.803 13.4773 139.684 13.4418 139.533 13.3991C139.386 13.3565 139.192 13.3352 138.95 13.3352C138.397 13.3352 137.996 13.4749 137.75 13.7543C137.509 14.0336 137.388 14.4432 137.388 14.983V27H135.712ZM141.772 27V16.0909H143.448V27H141.772ZM142.625 14.2727C142.298 14.2727 142.016 14.1615 141.779 13.9389C141.547 13.7164 141.431 13.4489 141.431 13.1364C141.431 12.8239 141.547 12.5563 141.779 12.3338C142.016 12.1113 142.298 12 142.625 12C142.951 12 143.231 12.1113 143.463 12.3338C143.699 12.5563 143.818 12.8239 143.818 13.1364C143.818 13.4489 143.699 13.7164 143.463 13.9389C143.231 14.1615 142.951 14.2727 142.625 14.2727ZM147.786 12.4545V27H146.11V12.4545H147.786ZM155.193 16.0909V17.5114H149.539V16.0909H155.193ZM151.187 13.4773H152.863V23.875C152.863 24.3485 152.932 24.7036 153.069 24.9403C153.211 25.1723 153.391 25.3286 153.609 25.4091C153.831 25.4848 154.066 25.5227 154.312 25.5227C154.497 25.5227 154.648 25.5133 154.767 25.4943C154.885 25.4706 154.98 25.4517 155.051 25.4375L155.392 26.9432C155.278 26.9858 155.119 27.0284 154.916 27.071C154.712 27.1184 154.454 27.142 154.142 27.142C153.668 27.142 153.204 27.0402 152.75 26.8366C152.3 26.633 151.926 26.3229 151.627 25.9062C151.334 25.4896 151.187 24.964 151.187 24.3295V13.4773ZM157.306 27V16.0909H158.925V17.7386H159.039C159.238 17.1989 159.598 16.7609 160.119 16.4247C160.639 16.0885 161.227 15.9205 161.88 15.9205C162.003 15.9205 162.157 15.9228 162.342 15.9276C162.526 15.9323 162.666 15.9394 162.761 15.9489V17.6534C162.704 17.6392 162.574 17.6179 162.37 17.5895C162.171 17.5563 161.96 17.5398 161.738 17.5398C161.208 17.5398 160.734 17.651 160.317 17.8736C159.905 18.0914 159.579 18.3944 159.337 18.7827C159.101 19.1662 158.982 19.6042 158.982 20.0966V27H157.306ZM168.439 27.2273C167.454 27.2273 166.59 26.9929 165.847 26.5241C165.108 26.0554 164.531 25.3996 164.114 24.5568C163.702 23.714 163.496 22.7292 163.496 21.6023C163.496 20.4659 163.702 19.474 164.114 18.6264C164.531 17.7789 165.108 17.1207 165.847 16.652C166.59 16.1832 167.454 15.9489 168.439 15.9489C169.424 15.9489 170.286 16.1832 171.024 16.652C171.768 17.1207 172.346 17.7789 172.757 18.6264C173.174 19.474 173.382 20.4659 173.382 21.6023C173.382 22.7292 173.174 23.714 172.757 24.5568C172.346 25.3996 171.768 26.0554 171.024 26.5241C170.286 26.9929 169.424 27.2273 168.439 27.2273ZM168.439 25.7216C169.187 25.7216 169.803 25.5298 170.286 25.1463C170.769 24.7628 171.126 24.2585 171.358 23.6335C171.59 23.0085 171.706 22.3314 171.706 21.6023C171.706 20.8731 171.59 20.1937 171.358 19.5639C171.126 18.9342 170.769 18.4252 170.286 18.0369C169.803 17.6487 169.187 17.4545 168.439 17.4545C167.691 17.4545 167.076 17.6487 166.593 18.0369C166.11 18.4252 165.752 18.9342 165.52 19.5639C165.288 20.1937 165.172 20.8731 165.172 21.6023C165.172 22.3314 165.288 23.0085 165.52 23.6335C165.752 24.2585 166.11 24.7628 166.593 25.1463C167.076 25.5298 167.691 25.7216 168.439 25.7216ZM183.26 18.5341L181.755 18.9602C181.66 18.7093 181.52 18.4654 181.336 18.2287C181.156 17.9872 180.909 17.7884 180.597 17.6321C180.284 17.4759 179.884 17.3977 179.397 17.3977C178.729 17.3977 178.173 17.5516 177.728 17.8594C177.287 18.1624 177.067 18.5483 177.067 19.017C177.067 19.4337 177.219 19.7628 177.522 20.0043C177.825 20.2457 178.298 20.447 178.942 20.608L180.561 21.0057C181.537 21.2424 182.264 21.6046 182.742 22.0923C183.22 22.5753 183.459 23.1979 183.459 23.9602C183.459 24.5852 183.279 25.1439 182.919 25.6364C182.564 26.1288 182.067 26.517 181.428 26.8011C180.789 27.0852 180.045 27.2273 179.198 27.2273C178.085 27.2273 177.164 26.9858 176.435 26.5028C175.706 26.0199 175.244 25.3144 175.05 24.3864L176.641 23.9886C176.793 24.5758 177.079 25.0161 177.5 25.3097C177.926 25.6032 178.483 25.75 179.169 25.75C179.951 25.75 180.571 25.5843 181.03 25.2528C181.494 24.9167 181.726 24.5142 181.726 24.0455C181.726 23.6667 181.594 23.3494 181.328 23.0938C181.063 22.8333 180.656 22.6392 180.107 22.5114L178.289 22.0852C177.29 21.8485 176.556 21.4815 176.087 20.9844C175.623 20.4825 175.391 19.8551 175.391 19.1023C175.391 18.4867 175.564 17.9422 175.909 17.4688C176.26 16.9953 176.736 16.6236 177.337 16.3537C177.943 16.0838 178.63 15.9489 179.397 15.9489C180.476 15.9489 181.324 16.1856 181.939 16.6591C182.56 17.1326 183 17.7576 183.26 18.5341Z" fill="white"/>
</svg>
