<svg width="257" height="205" viewBox="0 0 257 205" fill="none" xmlns="http://www.w3.org/2000/svg">
<g clip-path="url(#clip0_285_1916)">
<path d="M128.5 205C199.479 205 257 188.656 257 168.478C257 148.3 199.461 131.956 128.5 131.956C57.5386 131.956 0 148.318 0 168.478C0 188.638 57.5386 205 128.5 205Z" fill="url(#paint0_radial_285_1916)" fill-opacity="0.6"/>
<path d="M64.9725 203.815C76.4802 203.815 85.7943 198.518 85.7943 191.984C85.7943 185.45 76.4628 180.153 64.9725 180.153C53.4822 180.153 44.1506 185.45 44.1506 191.984C44.1506 198.518 53.4822 203.815 64.9725 203.815Z" fill="url(#paint1_radial_285_1916)" fill-opacity="0.4"/>
<path d="M60.359 173.949C60.9858 178.48 62.483 184.23 66.2957 188.725C66.2957 188.725 66.8354 189.335 67.3577 189.928C78.4998 200.923 131.564 192.681 131.564 192.681C141.784 190.834 155.676 189.022 158.009 188.412C173.103 184.753 160.255 189.039 189.329 181.094C190.165 180.867 202.613 176.249 204.58 173.706C207.766 169.593 207.035 159.94 204.058 155.688C203.553 154.957 202.909 154.312 202.16 153.807" fill="#F89630"/>
<path d="M60.1675 173.078C60.6201 176.702 61.9084 181.268 65.5296 184.718C65.5296 184.718 66.0171 185.206 66.5568 185.641C77.2289 194.075 130.241 185.624 130.241 185.624C140.46 183.777 154.318 181.843 156.686 181.303C171.815 177.835 158.88 181.738 188.076 174.333C188.859 174.124 201.446 169.959 203.5 167.868C206.808 164.453 206.425 156.734 203.64 153.406C203.135 152.813 202.508 152.308 201.812 151.96" fill="#F7B239"/>
<path d="M59.3144 123.505C55.2405 124.83 54.6312 126.311 54.1611 127.06C52.455 129.691 51.7238 132.845 52.0894 135.964C52.4028 139.1 53.9348 141.993 56.3548 144.014C58.0783 145.303 60.063 146.21 62.1695 146.628C108.74 157.135 124.374 159.086 124.374 159.086C130.52 159.853 152.786 161.961 171.293 162.17C177.038 162.571 182.818 162.327 188.511 161.439C196.989 160.167 201.272 159.487 203.796 156.751C207.679 152.552 206.39 145.844 203.257 141.104C202.247 139.85 200.959 138.839 199.479 138.159" fill="#A93D27"/>
<path d="M68.5415 113.556C64.694 114.601 64.1195 115.821 63.6842 116.414C62.9182 117.407 62.3437 118.557 61.9955 119.811C61.6647 121.048 61.5777 122.355 61.7344 123.645C61.9085 125.021 62.3611 126.311 63.0575 127.461C63.7539 128.611 64.6766 129.569 65.756 130.266C67.4447 131.364 69.3075 132.096 71.24 132.444C115.06 141.366 129.771 143.073 129.771 143.073C135.551 143.735 156.529 145.617 173.939 145.948C179.353 146.314 184.785 146.157 190.182 145.478C198.156 144.502 202.195 143.944 204.562 141.766C208.218 138.386 207.035 132.897 204.075 128.994C203.065 127.931 201.847 127.095 200.523 126.589" fill="#BE5F48"/>
<path d="M64.5373 92.176C62.5178 96.7412 61.2643 101.812 60.8813 107.004C60.8117 107.527 60.7769 108.05 60.7769 108.555C61.2469 117.668 144.987 135.023 176.812 128.994C176.812 128.994 186.178 128.105 193.298 126.398C195.562 125.858 203.831 125.544 205.276 117.964C205.833 115.002 206.669 112.963 205.45 110.942" fill="#E14848"/>
<path d="M65.93 92.2457C64.015 95.8003 62.8137 99.9299 62.4481 104.216C62.3959 104.635 62.3611 105.035 62.3611 105.453C62.9182 112.824 145.892 127.496 177.316 122.861C177.316 122.861 186.578 122.233 193.594 120.909C195.823 120.491 204.005 120.299 205.363 114.183C205.886 111.813 206.686 110.158 205.468 108.52" fill="#F15A57"/>
<path d="M56.2329 92.0888C53.3429 96.5321 50.9927 100.104 49.095 102.857C48.8339 103.223 48.5031 103.711 48.5901 104.077C49.008 105.697 59.5756 97.3859 61.717 100.958C63.5101 103.938 58.0261 112.859 59.6626 115.194C61.1773 117.337 67.7755 112.58 71.5534 108.52C72.0408 107.928 72.5805 107.388 73.155 106.917C74.2867 106.028 76.4106 104.861 82.5388 106.028C86.839 106.847 89.1022 108.015 90.7909 106.081C91.1043 105.61 91.4699 105.192 91.8877 104.844C92.8975 104.147 94.2902 104.216 97.0584 106.168C100.784 108.799 100.453 110.21 102.333 110.785C104.771 111.535 105.258 109.095 108.984 108.729C111.23 108.59 113.458 109.113 115.478 110.263C118.542 111.883 118.611 113.347 120.561 113.678C123.504 114.166 123.887 110.994 127.107 110.646C130.589 110.263 134.593 113.538 137.048 116.954C138.18 118.557 138.894 120.09 139.747 119.846C141.331 119.376 141.192 113.626 142.863 113.155C143.525 112.963 143.96 113.73 145.44 115.403C148.399 118.766 149.879 120.439 151.115 120.247C153.378 119.881 153.048 114.166 155.798 112.58C157.992 111.326 160.586 113.573 164.52 117.006C168.107 120.125 168.333 121.467 171.293 123.436C172.825 124.429 177.247 127.408 178.692 125.23C180.398 122.704 176.202 115.943 178.03 112.493C179.562 109.583 184.803 110.228 188.319 113.12C190.809 115.194 191.923 117.964 192.898 117.354C194.308 116.466 192.846 110.21 194.482 108.956C195.422 108.224 196.537 109.862 200.68 112.563C203.344 114.305 204.702 115.159 205.311 114.601C206.269 113.73 206.408 109.879 203.187 97.4556" fill="#9CB942"/>
<path d="M62.866 98.745C61.8214 99.8602 60.9683 100.766 60.2894 101.446C60.2023 101.533 60.0805 101.655 60.0979 101.759C60.1849 102.212 63.8583 100.261 64.4851 101.289C65.0074 102.16 63.0053 104.391 63.4927 105.07C63.9802 105.75 66.2086 104.6 67.5492 103.606C67.7233 103.45 67.9148 103.328 68.1063 103.223C68.5067 103.014 69.2205 102.753 71.2052 103.223C72.5979 103.554 73.3117 103.955 73.9037 103.467C74.0255 103.345 74.1474 103.241 74.2867 103.171C74.6349 103.014 75.0875 103.084 75.958 103.676C77.1244 104.495 76.9851 104.861 77.5771 105.07C78.3605 105.331 78.5694 104.687 79.8229 104.704C80.5541 104.739 81.2853 104.931 81.9295 105.297C82.9044 105.819 82.887 106.22 83.5137 106.36C84.4713 106.569 84.6628 105.732 85.7248 105.715C86.3515 105.802 86.9608 106.028 87.5005 106.36C88.0402 106.708 88.4929 107.144 88.8411 107.684C89.1893 108.137 89.3808 108.555 89.6593 108.555C90.199 108.468 90.2686 106.917 90.8432 106.83C91.0695 106.83 91.1914 107.004 91.6266 107.51C92.4797 108.503 92.9671 108.991 93.3501 108.973C94.0988 108.938 94.1336 107.388 95.0737 107.039C95.8223 106.76 96.6231 107.44 97.8244 108.468C98.4686 109.147 99.1649 109.792 99.9135 110.385C100.401 110.698 101.776 111.622 102.299 111.082C102.821 110.541 101.689 108.485 102.368 107.632C102.943 106.882 104.649 107.213 105.728 108.085C106.494 108.712 106.808 109.496 107.139 109.357C107.626 109.165 107.278 107.44 107.852 107.144C108.183 106.969 108.514 107.44 109.802 108.294C110.655 108.834 111.056 109.113 111.265 108.973C111.473 108.834 111.735 107.736 110.951 104.303" fill="#8CA33E"/>
<path d="M135.725 104.547C134.872 106.813 134.158 108.625 133.566 110.036C133.462 110.21 133.427 110.419 133.444 110.629C133.74 111.36 137.536 106.813 138.719 108.329C139.694 109.601 138.075 114.113 138.946 115.089C139.816 116.065 142.132 113.364 143.42 111.221C143.577 110.907 143.751 110.629 143.96 110.35C144.378 109.862 145.161 109.182 147.825 109.339C149.687 109.444 150.732 109.862 151.272 108.816C151.359 108.59 151.481 108.363 151.637 108.172C152.02 107.788 152.595 107.719 153.901 108.451C155.624 109.426 155.624 110.123 156.477 110.263C157.539 110.454 157.557 109.287 159.106 108.869C160.064 108.66 161.056 108.764 161.944 109.165C163.354 109.722 163.493 110.402 164.346 110.419C165.617 110.454 165.53 108.956 166.853 108.59C168.176 108.224 170.231 109.461 171.502 110.89C172.111 111.569 172.511 112.232 172.86 112.057C173.486 111.744 172.981 109.078 173.66 108.729C173.922 108.607 174.165 108.921 174.914 109.601C176.411 110.977 177.16 111.674 177.665 111.482C178.587 111.169 178.013 108.538 179.04 107.614C179.893 106.882 181.129 107.771 183.027 109.113C184.75 110.332 184.959 110.942 186.352 111.709C187.083 112.092 189.155 113.173 189.59 112.075C190.112 110.785 187.867 107.91 188.337 106.185C188.755 104.722 191 104.687 192.689 105.819C193.89 106.621 194.569 107.841 194.935 107.492C195.457 106.987 194.36 104.164 194.935 103.485C195.283 103.084 195.875 103.781 197.808 104.756C199.061 105.401 199.688 105.697 199.914 105.401C200.245 104.931 200.019 103.136 197.703 97.5427" fill="#8CA33E"/>
<path d="M52.1417 73.8802C48.033 75.7795 47.5629 77.5219 47.1451 78.3931C45.6827 81.4947 45.2823 84.997 46.0483 88.3426C46.7273 91.6881 48.6772 94.6503 51.4627 96.6192C53.3951 97.8215 55.5888 98.5708 57.852 98.7799C107.748 104.704 124.304 104.966 124.304 104.966C130.815 105.07 154.336 104.722 173.695 102.753C179.789 102.509 185.83 101.55 191.679 99.8776C200.367 97.4905 204.754 96.2185 207.087 92.9252C210.638 87.8721 208.48 80.7106 204.684 75.884C203.483 74.6469 202.021 73.7059 200.402 73.1309" fill="#A93D27"/>
<path d="M52.5421 73.8627C48.4683 75.3961 47.9982 76.7029 47.5804 77.3825C46.8666 78.5151 46.3791 79.7696 46.1702 81.0939C45.9613 82.4182 46.0309 83.7599 46.3617 85.0667C46.7273 86.4258 47.3889 87.6978 48.2942 88.7956C49.1995 89.8759 50.3311 90.7645 51.602 91.3744C53.5693 92.2979 55.6932 92.8381 57.8694 92.96C106.947 96.898 123.242 96.898 123.242 96.898C129.649 96.898 152.821 96.3404 171.92 94.5631C177.891 94.3017 183.81 93.4828 189.642 92.1237C198.243 90.1721 202.578 89.1441 204.945 86.5826C208.514 82.6621 206.477 77.156 202.769 73.4968C201.533 72.521 200.106 71.824 198.591 71.4233" fill="#BE5F48"/>
<path d="M179.197 39.5712L171.676 41.8364C171.449 41.9061 171.275 42.0455 171.171 42.2546C171.066 42.4637 171.032 42.6902 171.101 42.9167L171.206 43.2478C171.293 43.4743 171.467 43.6485 171.693 43.7531C171.919 43.8576 172.163 43.8751 172.389 43.7879L179.876 41.5227C179.997 41.4879 180.102 41.453 180.189 41.3833C180.276 41.3136 180.363 41.2265 180.415 41.122C180.468 41.0174 180.52 40.9129 180.52 40.7909C180.52 40.6689 180.52 40.547 180.485 40.4424L180.38 40.1114C180.293 39.8848 180.102 39.6932 179.876 39.606C179.649 39.5015 179.406 39.5015 179.162 39.5712H179.197Z" fill="#FDD86A"/>
<path d="M132.069 60.5504L124.583 62.8156C124.374 62.8853 124.182 63.0247 124.078 63.2338C123.974 63.4428 123.939 63.6694 124.008 63.8959L124.113 64.227C124.2 64.4535 124.374 64.6277 124.6 64.7323C124.827 64.8368 125.07 64.8542 125.297 64.7671L132.783 62.5019C132.905 62.4671 133.009 62.4322 133.096 62.3625C133.183 62.2928 133.27 62.2057 133.323 62.1012C133.375 61.9966 133.427 61.8921 133.427 61.7701C133.427 61.6481 133.427 61.5261 133.392 61.4216L133.288 61.0905C133.183 60.864 133.009 60.6723 132.783 60.5678C132.556 60.4632 132.295 60.4632 132.052 60.5678L132.069 60.5504Z" fill="#FDD86A"/>
<path d="M74.0778 71.4581L66.5917 73.7233C66.4698 73.7582 66.3653 73.793 66.2783 73.8627C66.1912 73.9324 66.1042 74.0196 66.052 74.1241C65.9997 74.2287 65.9649 74.3332 65.9475 74.4552C65.9475 74.5771 65.9475 74.6991 65.9823 74.8037L66.0868 75.1347C66.1738 75.3613 66.3479 75.5355 66.5743 75.64C66.8006 75.7446 67.0443 75.7446 67.2706 75.6749L74.7393 73.4097C74.8612 73.3749 74.9657 73.34 75.0527 73.2703C75.1398 73.2006 75.2268 73.1135 75.279 73.0089C75.3313 72.9044 75.3835 72.7998 75.3835 72.6779C75.3835 72.5559 75.3835 72.4339 75.3487 72.3294L75.2442 71.9809C75.1572 71.7544 74.9831 71.5801 74.7567 71.4756C74.5304 71.371 74.2867 71.371 74.0604 71.4407L74.0778 71.4581Z" fill="#FDD86A"/>
<path d="M64.2065 67.3633L59.123 68.8967C59.123 68.8967 59.0011 68.949 58.9314 68.9838C58.8792 69.0187 58.827 69.071 58.7922 69.1407C58.7574 69.2103 58.7399 69.2626 58.7225 69.3323C58.7225 69.402 58.7225 69.4717 58.7399 69.5414L58.8096 69.7679C58.8618 69.9073 58.9663 70.0119 59.0881 70.0642C59.21 70.1164 59.3667 70.1338 59.4886 70.0642L64.5721 68.5308C64.5721 68.5308 64.694 68.4785 64.7637 68.4437C64.8159 68.4088 64.8681 68.3565 64.9029 68.2868C64.9377 68.2346 64.9552 68.1649 64.9552 68.0952C64.9552 68.0255 64.9552 67.9558 64.9377 67.8861L64.8681 67.6596C64.8159 67.5376 64.7114 67.433 64.5896 67.3633C64.4677 67.3111 64.3284 67.2936 64.1891 67.3285L64.2065 67.3633Z" fill="#FDD86A"/>
<path d="M152.926 39.7977L147.842 41.3311C147.842 41.3311 147.72 41.3833 147.668 41.4182C147.616 41.453 147.563 41.5053 147.529 41.575C147.494 41.6273 147.476 41.697 147.459 41.7667C147.459 41.8364 147.459 41.9061 147.476 41.9758L147.546 42.2197C147.598 42.3417 147.703 42.4637 147.825 42.5159C147.946 42.5682 148.103 42.5856 148.225 42.5334L153.309 41C153.309 41 153.43 40.9477 153.483 40.9129C153.535 40.878 153.587 40.8258 153.622 40.7561C153.657 40.7038 153.674 40.6341 153.674 40.5644C153.674 40.4947 153.674 40.425 153.657 40.3553L153.587 40.1288C153.535 40.0068 153.43 39.8848 153.309 39.8326C153.187 39.7803 153.03 39.7629 152.908 39.8151L152.926 39.7977Z" fill="#FDD86A"/>
<path d="M182.853 27.2172L177.769 28.7505C177.769 28.7505 177.647 28.8028 177.595 28.8377C177.543 28.8725 177.491 28.9248 177.456 28.9945C177.421 29.0467 177.404 29.1164 177.386 29.1861C177.386 29.2558 177.386 29.3255 177.404 29.3952L177.473 29.6392C177.525 29.7786 177.63 29.8831 177.752 29.9354C177.874 29.9877 178.03 30.0051 178.152 29.9528L183.236 28.4195C183.236 28.4195 183.358 28.3672 183.427 28.3323C183.479 28.2975 183.532 28.2452 183.567 28.1755C183.601 28.1232 183.619 28.0535 183.619 27.9839C183.619 27.9142 183.619 27.8445 183.601 27.7748L183.532 27.5482C183.479 27.4263 183.375 27.3217 183.253 27.252C183.131 27.1997 182.975 27.1823 182.853 27.2346V27.2172Z" fill="#FDD86A"/>
<path d="M36.8038 77.7136C26.7933 63.4951 65.9997 6.29028 118.698 1.06291C146.206 -1.67274 168.89 10.6987 178.605 15.8912C189.416 21.6413 201.046 27.8793 200.785 35.9469C200.454 46.2971 180.868 53.3366 153.187 63.3209C119.882 75.3264 92.6711 80.031 66.5742 80.9023C48.6423 81.5121 39.6242 81.7212 36.8387 77.6962H36.8038V77.7136Z" fill="#F7B239"/>
<path d="M88.0402 65.2027C218.246 21.9898 122.337 6.74331 125.854 1.04548C126.272 0.365924 126.219 0.853812 131.721 0.209103C150.297 -1.91669 175.871 12.8071 182.609 16.0655C189.346 19.3413 201.22 31.2771 200.767 35.9643C200.193 41.9584 189.294 53.2321 170.387 59.8708C147.616 67.8513 88.7366 81.5295 71.2226 80.9371C65.5471 80.7454 59.976 81.5818 61.1076 80.728C64.6243 78.0969 74.0429 69.8377 88.0228 65.2027H88.0402Z" fill="#F89630"/>
<path d="M173.626 45.0599L169.587 46.2797C169.447 46.3145 169.308 46.3842 169.204 46.4713C169.082 46.5585 168.995 46.663 168.925 46.8024C168.855 46.9244 168.803 47.0638 168.786 47.2206C168.786 47.36 168.786 47.5168 168.821 47.6562L168.925 48.0047C169.03 48.2835 169.256 48.51 169.517 48.632C169.796 48.754 170.109 48.7714 170.387 48.6843L174.426 47.4645C174.566 47.4297 174.705 47.36 174.809 47.2729C174.931 47.1857 175.018 47.0812 175.088 46.9418C175.158 46.8198 175.21 46.6804 175.227 46.5236C175.227 46.3842 175.227 46.2274 175.192 46.088L175.088 45.7221C174.966 45.4433 174.757 45.2168 174.496 45.0948C174.218 44.9728 173.922 44.9554 173.626 45.0425V45.0599Z" fill="#FDD86A"/>
<path d="M150.767 15.8215L148.486 16.5185C148.347 16.5533 148.208 16.623 148.103 16.7102C147.981 16.7973 147.894 16.9018 147.825 17.0412C147.755 17.1632 147.703 17.3026 147.685 17.4594C147.685 17.5988 147.685 17.7556 147.72 17.895L147.825 18.2609C147.929 18.5397 148.155 18.7663 148.434 18.8882C148.712 19.0102 149.026 19.0276 149.304 18.9405L151.585 18.2435C151.724 18.2087 151.864 18.139 151.968 18.0519C152.09 17.9647 152.177 17.8602 152.247 17.7208C152.316 17.5988 152.368 17.4594 152.386 17.3026C152.386 17.1632 152.386 17.0064 152.351 16.867L152.247 16.5011C152.142 16.2223 151.916 15.9958 151.637 15.8564C151.359 15.7344 151.045 15.717 150.767 15.8041V15.8215Z" fill="#FDD86A"/>
<path d="M64.1542 66.3702L62.4655 66.8755C62.3262 66.9103 62.187 66.98 62.0825 67.0672C61.9606 67.1543 61.8736 67.2588 61.804 67.3982C61.7343 67.5376 61.6821 67.6596 61.6647 67.8164C61.6647 67.9558 61.6647 68.1126 61.6995 68.252L61.804 68.6179C61.9258 68.8967 62.1347 69.1233 62.4133 69.2452C62.6918 69.3672 62.9878 69.3846 63.2838 69.2975L64.9377 68.7922C65.0769 68.7573 65.2162 68.6876 65.3207 68.6005C65.4426 68.5134 65.5296 68.4088 65.5992 68.2695C65.6689 68.1475 65.7211 68.0081 65.7211 67.8513C65.7211 67.7119 65.7211 67.555 65.6863 67.4156L65.5818 67.0672C65.4774 66.7884 65.2685 66.5793 65.0073 66.4399C64.7462 66.3179 64.4328 66.2831 64.1542 66.3702Z" fill="#FDD86A"/>
<path d="M91.1042 28.4195L86.038 29.9528C85.8988 29.9877 85.7595 30.0574 85.6376 30.1445C85.5158 30.2316 85.4287 30.3536 85.3417 30.4756C85.272 30.5975 85.2198 30.7544 85.2024 30.8938C85.185 31.0332 85.2024 31.19 85.2372 31.3294L85.3417 31.643C85.4635 31.9218 85.6724 32.1658 85.951 32.2877C86.2296 32.4097 86.5429 32.4271 86.8389 32.34L91.9225 30.8066C92.0618 30.7718 92.201 30.7021 92.3229 30.615C92.4448 30.5279 92.5318 30.4059 92.6189 30.2839C92.6885 30.1619 92.7407 30.0051 92.7581 29.8657C92.7581 29.7089 92.7581 29.5695 92.7233 29.4301L92.6363 29.1165C92.5144 28.8202 92.2881 28.5937 92.0095 28.4718C91.731 28.3498 91.4002 28.3324 91.1042 28.4369V28.4195Z" fill="#FDD86A"/>
<path d="M146.275 44.6592L144.203 45.2864C144.064 45.3213 143.925 45.391 143.82 45.4781C143.699 45.5652 143.612 45.6698 143.542 45.8092C143.472 45.9312 143.42 46.0706 143.42 46.2274C143.42 46.3668 143.42 46.5236 143.455 46.663L143.559 47.0289C143.681 47.3077 143.89 47.5342 144.169 47.6562C144.447 47.7782 144.761 47.7956 145.039 47.7085L147.111 47.0812C147.25 47.0463 147.389 46.9766 147.494 46.8895C147.616 46.8024 147.703 46.6978 147.772 46.5584C147.842 46.4365 147.894 46.2971 147.912 46.1403C147.912 46.0009 147.912 45.844 147.877 45.7046L147.772 45.3387C147.651 45.0599 147.442 44.8334 147.163 44.7114C146.885 44.5895 146.571 44.572 146.293 44.6766L146.275 44.6592Z" fill="#FDD86A"/>
<path d="M136.091 59.5223L132.26 60.6723C132.121 60.7072 131.982 60.7769 131.86 60.864C131.738 60.9511 131.651 61.0731 131.564 61.1951C131.494 61.317 131.442 61.4739 131.425 61.6133C131.407 61.7526 131.425 61.9095 131.46 62.0489L131.564 62.3625C131.616 62.5193 131.703 62.6587 131.808 62.7807C131.912 62.9027 132.052 63.0072 132.191 63.0595C132.33 63.1292 132.504 63.164 132.661 63.164C132.818 63.164 132.992 63.1466 133.131 63.0769L136.961 61.9269C137.1 61.892 137.24 61.8223 137.361 61.7352C137.483 61.6481 137.57 61.5261 137.657 61.4042C137.727 61.2822 137.779 61.1254 137.797 60.986C137.797 60.8291 137.797 60.6897 137.762 60.5504L137.675 60.2367C137.623 60.0799 137.536 59.9405 137.431 59.8185C137.327 59.6966 137.187 59.592 137.048 59.5397C136.909 59.47 136.735 59.4352 136.578 59.4352C136.421 59.4352 136.247 59.4526 136.108 59.5223H136.091Z" fill="#FDD86A"/>
<path d="M114.05 38.8045L111.578 39.5538C111.473 39.5712 111.369 39.6235 111.282 39.6932C111.195 39.7629 111.125 39.85 111.056 39.9371C111.003 40.0416 110.969 40.1462 110.951 40.2507C110.934 40.3553 110.951 40.4773 110.986 40.5818L111.056 40.8258C111.09 40.9303 111.16 41.0348 111.23 41.122C111.299 41.2091 111.404 41.2788 111.508 41.3136C111.613 41.3659 111.717 41.3833 111.839 41.4008C111.944 41.4008 112.065 41.4008 112.17 41.3485L114.642 40.5992C114.746 40.5818 114.851 40.5295 114.938 40.4598C115.025 40.3901 115.095 40.303 115.164 40.2159C115.217 40.1113 115.251 40.0068 115.269 39.9022C115.269 39.7977 115.269 39.6757 115.234 39.5712L115.164 39.3272C115.129 39.2227 115.06 39.1181 114.99 39.031C114.921 38.9439 114.816 38.8742 114.712 38.8394C114.607 38.7871 114.503 38.7697 114.381 38.7522C114.276 38.7522 114.155 38.7522 114.05 38.8045Z" fill="#FDD86A"/>
<path d="M68.7329 45.2864L63.9105 46.7501C63.7886 46.785 63.6493 46.8372 63.5449 46.9244C63.4404 47.0115 63.3534 47.116 63.2837 47.2206C63.2141 47.3425 63.1793 47.4645 63.1619 47.6039C63.1619 47.7433 63.1619 47.8653 63.1967 48.0047L63.2837 48.3009C63.3882 48.5623 63.5797 48.7714 63.8408 48.8759C64.102 48.9805 64.3805 49.0153 64.6417 48.9282L69.4641 47.4645C69.586 47.4297 69.7079 47.3774 69.8297 47.2903C69.9342 47.2031 70.0212 47.0986 70.0909 46.9941C70.1605 46.8721 70.1953 46.7501 70.2127 46.6107C70.2127 46.4713 70.2127 46.3493 70.1779 46.2099L70.0909 45.9137C69.9864 45.6524 69.7949 45.4433 69.5338 45.3387C69.29 45.2167 68.9941 45.1993 68.7329 45.2864Z" fill="#FDD86A"/>
<path d="M133.27 8.4335L129.249 9.65322C129.127 9.67064 129.022 9.72292 128.918 9.79262C128.813 9.86231 128.744 9.94944 128.674 10.054C128.604 10.1585 128.57 10.2805 128.552 10.3851C128.552 10.507 128.552 10.629 128.587 10.7335L128.674 11.0123C128.779 11.2389 128.953 11.4131 129.179 11.5176C129.405 11.6222 129.666 11.6222 129.893 11.5525L133.914 10.3328C134.036 10.3154 134.158 10.2631 134.245 10.1934C134.35 10.1237 134.437 10.0191 134.489 9.91459C134.559 9.81004 134.593 9.68807 134.593 9.5661C134.593 9.44412 134.593 9.32215 134.541 9.20018L134.454 8.93881C134.35 8.72972 134.158 8.55547 133.932 8.46835C133.705 8.38123 133.462 8.3638 133.235 8.45093L133.27 8.4335Z" fill="#FDD86A"/>
<path d="M176.725 33.2461L174.931 33.7862C174.81 33.8037 174.705 33.8559 174.601 33.9256C174.496 33.9953 174.426 34.0825 174.357 34.187C174.287 34.2916 174.252 34.4135 174.235 34.5181C174.235 34.64 174.235 34.762 174.27 34.884L174.357 35.1628C174.461 35.4067 174.635 35.581 174.862 35.7029C175.088 35.8075 175.349 35.8249 175.593 35.7378L177.386 35.1976C177.508 35.1802 177.63 35.1279 177.717 35.0408C177.821 34.9711 177.891 34.8666 177.961 34.762C178.013 34.6575 178.065 34.5355 178.065 34.4135C178.065 34.2916 178.065 34.1696 178.013 34.0476L177.926 33.7688C177.821 33.5423 177.647 33.3681 177.421 33.2635C177.195 33.159 176.933 33.159 176.707 33.2287L176.725 33.2461Z" fill="#FDD86A"/>
<path d="M102.49 64.4535L98.7645 65.586C98.6426 65.6035 98.5382 65.6557 98.4337 65.7254C98.3293 65.7951 98.2596 65.8823 98.19 65.9868C98.1203 66.0914 98.0855 66.2133 98.0681 66.3179C98.0681 66.4399 98.0681 66.5618 98.1029 66.6664L98.19 66.9452C98.2944 67.1891 98.4685 67.3633 98.6949 67.4853C98.9212 67.6073 99.1823 67.6073 99.4261 67.5202L103.152 66.3876C103.274 66.3701 103.395 66.3179 103.482 66.2482C103.57 66.1785 103.674 66.0739 103.726 65.9694C103.778 65.8648 103.831 65.7429 103.831 65.6209C103.831 65.4989 103.831 65.377 103.778 65.255L103.691 64.9762C103.587 64.7497 103.413 64.5754 103.187 64.4709C102.96 64.3663 102.699 64.3663 102.473 64.4535H102.49Z" fill="#FDD86A"/>
<path d="M68.4023 31.765L65.9301 32.5142C65.8256 32.5317 65.7212 32.5839 65.6341 32.6536C65.5471 32.7233 65.4774 32.8105 65.4078 32.8976C65.3556 33.0021 65.3208 33.1067 65.3033 33.2112C65.3033 33.3158 65.3033 33.4377 65.3382 33.5423L65.4078 33.7862C65.4426 33.8908 65.5123 33.9953 65.5819 34.0824C65.6515 34.1696 65.756 34.2393 65.8605 34.2741C65.9649 34.309 66.0694 34.3438 66.1912 34.3612C66.2957 34.3612 66.4176 34.3612 66.522 34.309L68.9942 33.5597C69.0986 33.5423 69.2031 33.49 69.2901 33.4203C69.3772 33.3506 69.4468 33.2635 69.5165 33.1764C69.5687 33.0893 69.6035 32.9673 69.6209 32.8627C69.6209 32.7582 69.6209 32.6362 69.5861 32.5317L69.5165 32.2877C69.4816 32.1832 69.412 32.0786 69.3424 31.9915C69.2727 31.9044 69.1683 31.8347 69.0638 31.7998C68.9594 31.765 68.8549 31.7301 68.733 31.7127C68.6112 31.6953 68.5067 31.7127 68.4023 31.765Z" fill="#FDD86A"/>
<path d="M211.149 56.8059C211.204 48.0662 225.59 32.6352 233.012 41.7431C240.433 50.851 211.113 65.5491 211.149 56.8059Z" fill="#9CB942"/>
<path d="M214.381 66.2061C217.254 60.5779 231.6 55.2112 233.445 63.5575C235.29 71.9039 211.491 71.869 214.381 66.2061Z" fill="#9CB942"/>
<path d="M207.351 48.5153C204.971 46.2668 204.236 38.1611 208.514 38.3369C212.793 38.5127 209.731 50.7545 207.351 48.5153Z" fill="#9CB942"/>
<path d="M140.809 72.4687C147.546 68.3566 154.388 64.0178 159.019 57.4662C160.969 54.7131 162.309 50.4267 165.652 49.0327C169.499 47.4471 174.426 49.9388 177.647 51.9252C181.355 54.2252 184.385 57.4313 187.484 60.4632C189.172 62.1186 190.861 63.7739 192.55 65.4292C192.933 65.7951 193.351 66.1611 193.681 66.5618L193.925 66.8232C194.151 67.5202 194.291 67.6247 194.326 67.1194C194.952 66.858 193.542 66.9626 193.385 66.9974C192.759 67.102 192.132 67.2065 191.505 67.3285C188.25 67.9906 183.027 68.5482 182.365 72.4862C181.599 77.0166 181.617 81.8606 181.338 86.4432C180.659 97.351 180.276 108.259 180.137 119.184L184.419 118.609C183.27 114.549 182.47 110.419 182.296 106.203C182.121 102.212 182.713 98.3616 183.044 94.4063C183.375 90.4509 182.835 86.3736 182 82.4356C181.338 79.2643 180.868 75.3961 178.552 72.9218C176.376 70.6043 172.511 69.5588 169.43 69.3497C166.052 69.1058 163.284 70.9354 161.648 73.8453C160.864 75.2393 160.377 76.79 159.872 78.306C159.785 78.5673 159.524 79.0552 159.524 79.334C159.524 80.2575 161.108 80.6757 161.369 79.8219C161.543 79.2818 160.969 78.2014 160.742 77.6961C159.385 74.7862 156.407 73.1483 153.361 72.5907C149.026 71.7892 144.43 71.8763 140.025 71.8415C137.744 71.8415 135.464 71.8589 133.166 71.946C132.417 71.9634 127.264 72.6953 126.985 72.1203L125.68 75.3264C130.694 73.7233 135.969 73.8627 140.896 71.8589C143.333 70.8657 145.718 69.6982 148.295 69.1232C151.341 68.4437 153.622 69.2104 156.286 70.6217C158.323 71.7195 160.377 72.6604 162.745 72.765C165.112 72.8695 167.637 72.1551 169.97 71.4233C175.488 69.7157 180.694 69.3672 186.195 71.371C186.909 71.6324 187.797 71.3187 188.319 70.8134C189.851 69.3149 191.07 67.6073 191.958 65.6383C192.532 64.3315 192.115 62.8852 190.652 62.4322C184.089 60.3761 177.839 57.501 172.041 53.807C169.552 52.2214 167.132 50.0956 164.224 49.3464C160.969 48.4925 159.628 50.6532 158.549 53.3366C156.79 57.6753 153.657 64.7497 159.541 67.5027C162.1 68.705 165.025 68.0255 167.637 67.4156C171.206 66.5792 174.757 65.6209 178.256 64.558C180.172 63.9656 180.485 60.7594 178.256 60.3587C176.028 59.9579 173.834 59.5571 171.623 59.139C170.788 58.9821 169.97 58.8427 169.134 58.6859C168.873 58.6336 166.784 58.0064 166.575 58.1632C166.366 59.2261 166.575 59.4526 167.149 58.8602C167.654 58.6336 168.159 58.4245 168.681 58.2329C169.447 57.9541 170.248 57.6927 171.032 57.4662C172.285 57.1003 175.941 55.776 176.707 57.5882C177.769 60.1322 181.982 59.017 180.903 56.4381C179.614 53.354 176.829 52.1343 173.591 52.4653C170.596 52.779 165.826 53.8245 163.598 56.0897C161.369 58.3548 162.623 61.4041 165.356 62.3277C169.029 63.5648 173.277 63.8436 177.09 64.5406V60.3413C174.496 61.1428 171.885 61.8746 169.238 62.5367C167.097 63.0769 164.625 64.0004 162.379 63.7913C159.872 63.5648 160.272 61.1602 160.83 59.3481C161.16 58.2852 161.596 57.2571 162.013 56.2291C162.257 55.654 162.483 55.0616 162.727 54.4866C162.884 54.1207 163.336 53.476 163.041 53.5457C163.772 53.354 165.286 54.5737 165.878 54.9396C166.888 55.5843 167.846 56.2813 168.838 56.926C170.91 58.2851 173.034 59.5571 175.227 60.7246C179.771 63.1466 184.559 65.0982 189.468 66.6315L188.163 63.4254C187.431 65.0807 186.509 66.4398 185.22 67.7118L187.344 67.1543C182.226 65.2898 176.655 65.011 171.38 66.4224C168.803 67.1194 166.192 68.3565 163.493 68.3914C160.655 68.4262 158.462 66.6489 155.972 65.5512C150.889 63.3034 145.857 65.0459 141.035 67.0846C138.302 68.2346 135.62 69.1058 132.696 69.5588C129.945 69.977 127.194 70.2558 124.531 71.1096C123.12 71.5627 122.598 73.0263 123.225 74.3158C124.618 77.1037 128.03 76.5287 130.589 76.4067C134.733 76.1976 138.859 76.1453 143.002 76.2499C146.554 76.337 151.011 75.9537 154.336 77.3999C155.85 78.0446 156.564 78.9681 157.052 80.484C157.487 81.8606 157.783 82.9932 159.263 83.5856C162.536 84.9099 163.511 81.0416 164.259 78.7939C164.764 77.2954 165.321 75.518 166.592 74.4726C168.072 73.2703 169.935 73.7756 171.623 74.2112C173.312 74.6468 174.914 75.1347 175.854 76.6681C176.794 78.2014 177.003 80.3098 177.386 82C178.239 85.8334 178.935 89.6668 178.692 93.6222C178.431 97.9957 177.682 102.247 177.908 106.638C178.135 111.029 178.953 115.507 180.172 119.794C180.833 122.164 184.419 121.693 184.454 119.219C184.576 108.59 184.959 97.9435 185.603 87.3319C185.76 84.8925 185.917 82.453 186.091 80.0136C186.178 78.7764 186.265 77.5567 186.369 76.3196C186.439 75.518 186.3 73.6362 186.735 73.1309C187.205 72.5907 189.399 72.3119 190.025 72.1377C191.14 71.8415 192.254 71.5975 193.385 71.3884C195.3 71.0399 197.494 70.8657 198.312 68.7573C199.879 64.7322 194.082 60.8814 191.697 58.5465C188.389 55.3055 185.168 51.9078 181.39 49.2244C174.809 44.5372 164.921 41.2788 159.228 48.8933C157.852 50.7229 156.86 52.7964 155.589 54.6957C154.318 56.595 152.63 58.442 150.871 60.0625C147.163 63.4602 142.828 66.0914 138.545 68.7225C136.16 70.1861 138.336 73.9498 140.739 72.4862L140.809 72.4687Z" fill="#F9ED32"/>
<path d="M151.585 73.5839C154.928 74.1415 157.8 75.5181 160.22 77.8878C161.317 78.9681 162.797 78.5499 163.632 77.4522C164.956 75.7446 164.555 73.3226 163.232 71.7369C161.63 69.8028 159.141 69.524 156.773 69.646C153.605 69.8202 150.68 69.646 147.563 68.9838C145.074 68.4437 142.497 68.0778 140.286 69.6286C138.284 71.0225 139.485 74.1589 141.958 73.6014C148.904 72.068 157.191 70.0642 159.715 62.4671C160.342 60.6026 158.096 59.1215 156.512 60.0102C153.674 61.5784 151.045 63.408 148.521 65.4467C146.867 66.7884 148.66 69.8725 150.645 69.0884C153.187 68.0778 155.85 67.7641 158.514 68.496C161.178 69.2278 162.936 71.1619 165.426 71.9634C167.915 72.765 170.422 71.9983 172.964 72.1725C175.506 72.3468 177.125 74.4203 177.873 76.7726C178.431 78.5674 178.779 80.5538 180.781 81.303C182.783 82.0523 184.611 80.6583 185.273 78.8287C186.613 75.0824 185.551 69.7331 182.139 67.5028C181.216 66.8929 179.649 67.2588 179.162 68.2869C178.5 69.6982 178.152 70.9877 178.204 72.5559L180.38 70.3778L181.286 71.7021L181.791 71.4756C182.33 71.4407 182.974 71.1271 183.497 70.9877C184.681 70.6566 185.864 70.343 187.048 70.0642C189.503 69.4892 191.958 69.1232 194.5 69.1407C195.492 69.1407 196.293 68.4611 196.606 67.5376C197.337 65.3595 195.683 63.9133 194.134 62.6413C192.341 61.1602 190.443 59.8185 188.476 58.5814C184.402 56.02 180.067 53.9464 175.75 51.8729C173.626 50.8623 171.223 53.476 173.121 55.2881C177.09 59.0867 180.763 63.1989 184.036 67.6073L185.917 64.3315C177.682 63.7565 169.343 63.3034 161.317 65.6209L162.466 69.8202C168.751 67.9558 175.245 67.7816 181.756 67.6596C184.211 67.6073 184.698 64.0875 182.33 63.3731C175.976 61.4564 169.534 59.9056 163.006 58.7208C160.255 58.2155 159.193 61.9617 161.857 62.9201C163.841 63.6345 165.756 64.4709 167.654 65.4118L168.176 61.439C164.712 62.3102 161.265 62.6065 157.713 62.3625L159.245 66.0739C163.162 62.1883 167.741 59.017 168.281 53.0752C168.438 51.4547 166.314 50.3221 165.008 51.1934C162.24 53.0229 159.681 55.1139 157.33 57.4662L160.742 60.0973C161.387 58.7905 161.944 57.3442 162.814 56.1594L161.508 57.1526C160.638 57.3965 162.919 59.0693 163.458 59.4875C164.433 60.2367 165.443 60.864 166.575 61.3693C168.873 62.3799 171.171 62.6413 173.626 62.2405C174.74 62.0663 175.488 60.5852 175.14 59.5572C173.608 55.0093 171.171 50.9494 167.846 47.4819L166.314 51.1934C172.076 51.4722 176.324 56.8215 181.93 57.9715C184.315 58.4594 185.76 55.3404 183.601 53.9987C177.647 50.2524 171.136 45.0948 163.65 46.1054C160.272 46.5584 157.644 48.3357 155.554 50.9843C153.465 53.6328 151.585 56.2116 148.904 58.4071C146.084 60.742 143.159 63.1815 139.816 64.7323C136.212 66.405 132.052 66.5967 128.291 67.8338C124.531 69.071 121.171 70.3255 117.253 70.4649C113.563 70.5869 110.063 70.5695 106.616 72.0854C105.38 72.6256 105.189 74.6643 106.181 75.5006C108.67 77.6439 112.692 77.5567 115.826 77.7484C119.586 77.9749 123.364 77.8704 127.125 77.5567C134.75 76.8946 142.271 75.3264 149.722 73.6188C152.456 72.9915 151.289 68.7922 148.573 69.4195C142.045 70.918 135.481 72.3468 128.813 73.0438C125.61 73.3748 122.407 73.5665 119.186 73.5317C117.515 73.5142 115.843 73.4271 114.172 73.2877C112.901 73.1832 110.272 73.3051 109.262 72.4339L108.827 75.8491C112.17 74.3855 116 75.0302 119.534 74.6817C123.068 74.3332 126.184 73.1135 129.475 72.0331C132.974 70.8831 136.7 70.5869 140.147 69.2975C143.281 68.13 145.979 66.2482 148.608 64.2095C151.237 62.1708 153.866 60.2193 155.955 57.7276C157.87 55.445 159.297 52.2563 162.135 50.9843C168.699 48.0221 176.237 54.4866 181.425 57.7624L183.096 53.7896C176.986 52.5351 172.79 47.1683 166.314 46.8546C164.364 46.7675 163.528 49.2767 164.781 50.5661C167.584 53.476 169.674 56.8738 170.962 60.7072L172.477 58.0238C170.649 58.32 168.873 57.7799 167.306 56.8563C165.843 55.9851 164.903 54.6609 163.598 53.6502C160.011 50.8797 158.323 55.1836 156.999 57.867C155.937 60.0102 158.601 62.3451 160.412 60.4981C162.501 58.4071 164.729 56.5427 167.201 54.9048L163.928 53.0229C163.528 57.3791 158.984 60.1496 156.164 62.9375C154.754 64.3315 155.885 66.527 157.696 66.649C161.63 66.9103 165.513 66.527 169.325 65.5686C171.066 65.133 171.536 62.4322 169.848 61.5958C167.637 60.4807 165.356 59.5049 163.023 58.6685L161.874 62.8678C168.403 64.0527 174.844 65.6035 181.199 67.5202L181.773 63.2337C174.896 63.3557 167.967 63.5822 161.334 65.5512C158.653 66.3527 159.785 70.5346 162.483 69.7505C170.126 67.5376 178.082 68.0603 185.917 68.6179C187.466 68.7225 188.772 66.649 187.797 65.3421C184.298 60.6201 180.45 56.2116 176.202 52.1343L173.573 55.5495C176.986 57.1874 180.415 58.8253 183.706 60.7072C185.238 61.5784 186.735 62.5019 188.197 63.4951C189.085 64.105 189.956 64.7322 190.791 65.3944C191.192 65.708 191.575 66.0391 191.958 66.3702C192.515 67.0846 192.672 67.0497 192.445 66.3005L194.552 64.6974C191.923 64.6974 189.312 65.0285 186.735 65.6035C184.489 66.0914 181.982 66.5618 179.893 67.5202C176.428 69.0884 176.098 74.2286 180.433 74.6817C181.582 74.8036 182.644 73.5839 182.609 72.5036C182.591 71.7369 182.644 71.1271 182.974 70.4301L179.997 71.2142C181.46 72.1725 181.46 74.49 181.39 76.0408C181.39 76.1976 181.234 76.9991 181.303 77.1037L182.679 77.3825L182.522 76.9469C182.626 76.2673 181.982 75.0476 181.738 74.4203C180.346 70.9528 177.612 68.1997 173.782 67.8164C171.676 67.6073 169.465 68.2869 167.376 67.8861C165.286 67.4853 163.545 65.708 161.613 64.9065C157.783 63.3034 153.413 63.286 149.566 64.8194L151.689 68.4611C153.918 66.6664 156.303 65.0982 158.793 63.7042L155.589 61.2473C153.674 67.0149 145.997 68.1997 140.878 69.3323L142.549 73.3051C143.96 72.3294 145.579 72.9218 147.111 73.2354C148.765 73.5839 150.419 73.8453 152.107 73.9498C153.796 74.0544 155.485 73.9324 157.191 73.8801C157.765 73.8627 160.934 73.8453 159.942 75.1521L163.354 74.7165C160.429 71.8589 156.825 69.9596 152.786 69.2975C150.053 68.8444 148.869 73.0438 151.637 73.4968L151.585 73.5839Z" fill="#F9ED32"/>
<path d="M107.434 75.8317C114.677 74.8559 122.25 74.49 129.092 71.7369C135.934 68.9839 142.114 66.0565 148.364 62.711C151.185 61.1951 154.353 59.7837 156.651 57.5011C157.696 56.473 158.549 55.2707 159.663 54.295C160.986 53.1449 162.501 52.2389 164.015 51.3502C166.662 49.8168 169.691 47.7782 172.894 48.0918C176.272 48.4229 179.057 51.1237 181.408 53.3018C183.462 55.201 186.543 52.1343 184.489 50.2176C179.667 45.7569 174.217 42.0455 167.48 44.6766C164.451 45.8615 161.387 47.6213 158.74 49.5032C155.937 51.507 154.057 54.4692 151.08 56.1942C144.552 60.0102 137.727 63.3557 130.781 66.3353C127.212 67.8687 123.73 69.1755 119.865 69.768C115.739 70.3953 111.578 70.8831 107.434 71.4407C104.701 71.8066 104.666 76.1628 107.434 75.7969V75.8317Z" fill="#F9ED32"/>
<path d="M143.594 82.1568C143.646 82.4356 143.699 82.7144 143.751 83.0106L143.681 82.4356C143.82 83.4985 143.82 84.5788 143.681 85.6417L143.751 85.0667C143.612 86.0076 143.385 86.9311 143.02 87.8024H147.215C146.972 87.0357 146.797 86.269 146.676 85.4675L146.745 86.0425C146.589 84.8228 146.571 83.603 146.745 82.4007L146.676 82.9758C146.71 82.6795 146.763 82.4007 146.815 82.1045C146.919 81.5295 146.902 80.9545 146.589 80.4318C146.327 79.9787 145.805 79.5431 145.283 79.4386C144.203 79.1946 142.846 79.7696 142.602 80.9545C142.079 83.6205 142.167 86.3735 143.002 88.9698C143.281 89.8585 144.134 90.6077 145.109 90.5729C145.492 90.5729 145.857 90.4509 146.206 90.2767C146.728 89.9979 147.006 89.4925 147.198 88.9698C148.19 86.4432 148.33 83.6553 147.772 81.0242C147.529 79.909 146.171 79.1598 145.091 79.5083C143.907 79.8916 143.316 80.9894 143.577 82.1916L143.594 82.1568Z" fill="#F9ED32"/>
<path d="M134.872 80.3621V81.4075C134.872 81.7038 134.924 81.9825 135.063 82.2439C135.151 82.5053 135.307 82.7492 135.516 82.9409C135.708 83.15 135.951 83.3068 136.212 83.3939C136.474 83.5333 136.752 83.5856 137.048 83.5856L137.623 83.5159C137.988 83.4114 138.319 83.2197 138.58 82.9583L138.928 82.5227C139.12 82.1916 139.224 81.8083 139.224 81.425V80.3795C139.224 80.0833 139.172 79.8045 139.033 79.5431C138.946 79.2817 138.789 79.0378 138.58 78.8461C138.389 78.637 138.145 78.4802 137.884 78.3931C137.623 78.2537 137.344 78.2014 137.048 78.2014L136.474 78.2711C136.108 78.3757 135.777 78.5673 135.516 78.8287L135.168 79.2643C134.976 79.5954 134.872 79.9787 134.872 80.3621Z" fill="#F9ED32"/>
<path d="M63.336 169.158C66.905 167.119 68.9767 163.669 70.8221 160.114C72.9635 155.985 75.3312 152.012 78.2386 148.37C80.9023 145.06 84.2971 140.634 88.2839 138.909C92.2707 137.184 97.215 138.926 100.819 141.191C104.423 143.456 107.574 146.663 111.038 149.294C114.781 152.134 118.838 153.894 123.434 154.87C125.68 155.34 127.96 155.689 130.224 156.194C131.146 156.403 136.195 157.483 135.76 158.442C135.533 158.947 132.939 158.895 132.469 158.947C131.494 159.069 130.52 159.226 129.597 159.539C127.699 160.201 125.976 161.282 124.827 162.955C122.024 167.049 123.086 172.799 123.347 177.434C123.678 183.585 124.008 189.736 124.322 195.904L128.604 195.329C127.473 188.795 126.341 182.226 124.113 175.953C122.407 171.162 120.648 164.662 114.816 163.965C111.804 163.599 108.74 163.425 105.711 163.286C103.221 163.164 100.558 163.286 98.573 164.993C96.745 166.561 96.1008 168.949 95.9441 171.283C95.77 173.845 96.5012 176.615 94.917 178.863L98.3292 178.428C95.5611 176.215 95.683 172.015 92.8104 169.733C91.2087 168.461 89.2414 168.112 87.2568 168.147C84.8194 168.199 82.5388 168.408 80.1014 168.147C74.7741 167.589 70.2302 168.757 65.0596 169.907C63.9976 170.133 62.8485 170.186 61.7866 170.465L61.0031 170.517C61.5602 171.771 61.8214 171.893 61.7866 170.9C61.9607 170.674 62.1173 169.977 62.2392 169.75C63.2316 167.833 65.0421 166.422 66.3653 164.767C69.2553 161.177 70.3869 156.612 73.1028 152.918C75.8187 149.224 79.997 146.593 83.8619 144.171C85.951 142.864 88.1621 141.505 90.6168 141.069C93.559 140.529 95.6656 142.045 97.9636 143.666C102.159 146.645 105.728 150.13 109.524 153.58C117.34 160.655 127.473 163.198 137.779 161.108C139.712 160.724 139.781 158.058 138.302 157.135C134.193 154.556 129.022 155.654 124.444 155.079C119.865 154.504 113.841 153.441 110.882 149.677L109.349 153.388C112.048 153.441 114.294 155.009 116.453 156.473C117.584 157.239 118.733 158.023 119.865 158.808C120.857 159.487 122.772 160.306 123.399 161.317C124.026 162.327 122.842 163.425 122.372 164.331C121.815 165.411 121.362 166.561 121.084 167.746C120.509 170.168 120.561 172.625 121.084 175.03C121.606 177.434 125.453 176.912 125.366 174.455C125.21 170.081 122.18 166.23 118.82 163.617C117.045 162.24 115.112 161.874 112.918 161.787C110.133 161.683 107.347 161.648 104.562 161.578C100.453 161.491 96.3968 162.048 93.942 165.708C91.8877 168.774 91.7136 172.869 93.6287 176.04L97.3891 173.845C95.9789 171.615 94.5688 168.06 92.0618 166.892C89.3459 165.621 85.3417 165.917 82.3995 165.882C78.8305 165.83 75.2616 166.074 71.71 166.544C70.1606 166.753 68.6111 166.997 67.0617 167.293C65.7559 167.555 62.5874 168.914 61.4036 168.339L60.8813 172.312C67.6884 170.935 74.4955 169.506 81.3201 168.199C88.1446 166.892 94.9518 166.718 101.654 165.307C104.736 164.662 107.73 163.652 110.812 162.955C114.067 162.205 117.358 162.031 120.683 162.101C122.128 162.136 123.538 162.24 124.983 162.345C125.436 162.641 125.558 162.571 125.331 162.17L124.705 162.397C123.974 162.205 123.364 161.961 122.685 161.613C119.813 160.114 117.149 159.086 113.893 158.72C112.588 158.581 111.299 160.236 111.787 161.473C113.075 164.662 115.53 166.997 118.942 167.781L119.517 163.495C110.586 162.85 101.898 162.589 93.1412 164.749C91.0346 165.272 89.0848 165.551 86.9434 165.063C85.0457 164.627 83.2177 163.983 81.2679 163.721C77.2463 163.181 72.7546 164.227 68.9419 162.589L69.9342 165.045C71.8145 159.661 74.8611 154.748 78.8653 150.688C82.6606 146.837 88.3361 142.237 93.942 141.749C99.5479 141.261 101.167 147.081 103.657 150.862C104.962 152.848 106.564 154.591 108.688 155.689C110.812 156.786 113.859 157.222 115.199 159.33L116.505 156.124C111.508 157.204 106.372 156.786 101.306 157.292C96.2401 157.797 91.7658 159.034 87.0304 160.097C82.7129 161.073 78.4301 161.421 74.0429 161.909C70.1954 162.345 66.5742 163.251 63.6494 165.952L67.0617 168.583C71.2922 162.571 80.1885 162.502 86.7519 161.665C94.4469 160.689 102.142 159.696 109.837 158.72C111.682 158.494 113.162 155.654 110.934 154.66C104.544 151.82 96.9539 152.465 90.1467 152.953C83.8271 153.406 76.6717 153.371 71.0833 156.751C69.4468 157.745 69.8298 160.167 71.6056 160.724C76.7762 162.38 82.6258 160.933 87.7965 159.905C93.5938 158.755 99.2868 157.152 104.875 155.201C107.104 154.417 106.86 150.897 104.301 150.914C99.6001 150.949 94.917 151.158 90.2338 151.594C85.5506 152.029 80.6411 153.249 75.9928 152.36L76.9503 156.002C78.256 154.556 80.763 154.538 82.591 154.225C85.1502 153.807 87.7094 153.371 90.2512 152.953C95.2129 152.134 100.192 151.298 105.154 150.479C107.765 150.043 106.825 146.436 104.579 146.192C95.77 145.286 86.5952 144.519 78.2212 147.987L79.8925 151.96C83.2526 149.886 86.5778 147.499 90.1293 145.774C93.4197 144.171 96.9887 144.519 99.635 147.168L100.592 143.526C97.511 144.258 94.4469 144.31 91.3306 143.683L91.8529 147.656C92.1837 147.272 92.5667 147.185 93.0193 147.429C95.7004 148.248 96.8494 144.049 94.1684 143.23C92.5667 142.742 91.0172 142.934 89.6419 143.909C88.2665 144.885 88.1795 147.482 90.1642 147.882C94.0639 148.666 97.8592 148.632 101.742 147.725C103.361 147.342 103.831 145.216 102.699 144.084C99.6698 141.052 95.3348 139.71 91.1391 140.756C86.2992 141.958 81.8598 145.617 77.6815 148.196C75.6794 149.433 76.9851 153.162 79.3528 152.169C87.396 148.841 96.1182 149.66 104.562 150.531L103.987 146.244C98.4511 147.168 92.9149 148.091 87.3786 148.997C84.6801 149.451 81.9817 149.869 79.2832 150.339C77.2288 150.705 75.2964 151.28 73.8514 152.883C72.8416 153.998 73.1028 156.194 74.8089 156.525C79.6836 157.448 84.506 156.455 89.3807 155.985C94.2554 155.514 99.3042 155.27 104.266 155.235L103.691 150.949C98.6252 152.726 93.4546 154.207 88.1969 155.323C83.3918 156.351 77.577 158.023 72.7372 156.473L73.2595 160.445C78.1341 157.483 84.6105 157.64 90.1293 157.239C95.9615 156.821 103.204 155.915 108.723 158.354L109.82 154.295C101.01 155.427 92.2011 156.542 83.3744 157.675C75.8709 158.633 67.967 159.679 63.2838 166.335C61.804 168.426 64.9551 170.587 66.6961 168.966C69.4468 166.422 73.3813 166.213 76.9155 165.952C81.2679 165.621 85.4984 164.871 89.7463 163.878C94.238 162.833 98.7122 161.717 103.343 161.439C107.974 161.16 112.901 161.282 117.619 160.271C118.96 159.975 119.639 158.215 118.925 157.065C117.253 154.451 114.677 153.545 111.961 152.378C109.245 151.21 107.696 149.276 106.251 146.715C103.274 141.505 100.018 136.574 93.1934 137.393C86.3689 138.212 80.4844 142.812 75.9928 147.29C71.5011 151.768 67.8625 157.605 65.7037 163.808C65.4252 164.627 65.8778 165.917 66.6961 166.265C70.6132 167.938 74.5478 167.624 78.7087 167.781C82.8695 167.938 86.9434 170.116 91.3654 169.471C95.7874 168.827 100.227 167.468 104.91 167.293C109.593 167.119 114.607 167.45 119.447 167.799C121.884 167.973 122.407 164.07 120.022 163.512C118.211 163.094 116.627 162.014 115.913 160.236L113.806 162.989C115.965 163.233 117.898 163.93 119.795 164.941C121.292 165.742 122.842 166.649 124.6 166.649C127.438 166.649 130.363 164.017 129.458 161.02C128.552 158.023 124.879 157.762 122.198 157.675C118.072 157.536 113.963 157.675 109.924 158.564C105.885 159.452 102.02 160.811 97.9462 161.439C93.8724 162.066 89.6593 162.31 85.5506 162.937C76.8458 164.261 68.2281 166.265 59.6104 168.008C57.8346 168.374 57.4342 171.179 59.0881 171.98C61.8214 173.305 64.5025 172.12 67.3054 171.545C70.6132 170.848 73.9733 170.412 77.3507 170.221C80.7282 170.029 83.9489 170.081 87.2393 170.36C88.7192 170.482 89.9378 170.308 90.7735 171.597C91.6962 173.026 92.6015 174.49 93.5242 175.936C95.0214 178.288 98.7471 176.145 97.2847 173.74C96.1356 171.824 96.3097 169.349 97.7547 167.607C99.7394 165.22 103.378 165.795 106.129 165.864C107.8 165.899 109.471 165.952 111.143 165.986C112.71 166.021 114.363 165.847 115.756 166.683C118.159 168.13 120.822 171.475 120.927 174.315L125.21 173.74C124.496 170.499 125.279 167.746 126.898 164.941C128.43 162.292 128.361 159.731 125.906 157.675C123.451 155.619 120.422 153.789 117.689 151.977C115.112 150.269 112.414 148.945 109.262 148.876C107.191 148.841 106.634 151.21 107.73 152.587C110.707 156.368 116.157 157.797 120.666 158.686C123.277 159.208 125.923 159.504 128.57 159.557C131.216 159.609 133.775 159.313 136.038 160.724L136.561 156.751C131.634 157.745 126.515 157.536 121.745 155.932C116.975 154.329 113.145 150.949 109.437 147.394C107.591 145.617 105.676 143.944 103.639 142.376C101.393 140.634 99.0604 138.665 96.4664 137.462C91.7136 135.249 86.7867 137.131 82.591 139.658C78.3953 142.184 74.1822 144.885 70.9614 148.492C67.7406 152.099 66.3827 157.082 63.5275 161.125C61.2469 164.366 56.79 167.311 57.3297 171.824C57.939 176.912 65.8082 174.106 68.8026 173.357C71.7971 172.608 74.7915 171.963 77.9426 172.19C81.0938 172.416 83.7922 172.555 86.8215 172.416C89.8508 172.277 90.7213 173.462 91.7658 175.971C92.6189 177.992 93.3849 179.996 95.1433 181.407C96.3097 182.331 97.6851 182.209 98.5556 180.972C99.7394 179.299 100.122 177.347 100.175 175.326C100.227 173.305 99.8091 171.249 100.523 169.402C101.446 167.014 104.336 167.485 106.407 167.607C108.949 167.746 111.526 167.833 114.05 168.164C116.574 168.496 117.236 170.83 118.176 172.921C119.273 175.413 120.178 177.975 120.944 180.588C122.459 185.763 123.364 191.095 124.287 196.41C124.705 198.832 128.692 198.274 128.57 195.835C128.256 189.963 127.943 184.091 127.63 178.218C127.49 175.709 127.299 173.183 127.247 170.656C127.194 168.13 127.386 165.516 129.649 164.139C132.974 162.118 139.66 164.157 140.234 158.598C140.722 153.894 134.28 152.587 130.903 151.855C125.802 150.74 120.579 150.269 116.035 147.482C111.909 144.955 108.531 141.383 104.631 138.543C101.045 135.929 96.7276 133.908 92.2359 133.786C87.2045 133.629 83.4441 136.4 80.0144 139.78C76.045 143.7 72.5457 148.161 69.6731 152.935C67.1661 157.1 65.4948 162.798 61.0554 165.342C58.618 166.736 60.8116 170.499 63.249 169.105L63.336 169.158Z" fill="#ED1C24"/>
<path d="M98.9734 177.975C98.8341 175.587 99.3564 173.165 100.819 171.214C102.281 169.262 104.893 168.844 107.156 168.339C110.011 167.694 112.588 168.077 115.356 168.931C116.557 169.297 117.828 169.628 118.977 170.168C120.126 170.708 120.77 171.632 121.432 172.73C122.859 175.134 126.62 172.956 125.192 170.534C124.339 169.088 123.382 167.729 121.919 166.805C120.457 165.882 118.803 165.446 117.236 164.941C113.476 163.739 109.889 163.268 106.007 164.139C102.786 164.854 99.6002 165.725 97.4936 168.461C95.387 171.196 94.4295 174.594 94.6384 177.975C94.8125 180.762 99.1649 180.78 98.9908 177.975H98.9734Z" fill="#ED1C24"/>
<path d="M98.2422 179.142C98.573 177.678 98.4337 176.04 98.9386 174.629C99.3912 173.374 100.941 172.451 101.95 171.667C103.152 170.743 104.457 169.855 105.902 169.367C107.626 168.792 109.419 168.757 111.212 168.757C112.065 168.757 112.918 168.757 113.772 168.774C114.45 168.774 115.53 168.618 116.122 169.001C116.592 169.297 116.905 170.029 117.219 170.465C117.706 171.127 118.263 171.684 118.838 172.294C121.136 174.751 119.9 178.358 121.449 181.215L125.21 179.02C124.113 177.051 123.016 175.099 122.198 172.991C121.536 171.336 120.927 169.646 119.621 168.374C116.783 165.603 112.135 165.934 108.531 166.283C106.547 166.474 104.423 166.649 102.577 167.485C100.732 168.321 99.6872 169.837 98.5904 171.388C96.2053 174.768 95.3348 179.299 94.6732 183.306L98.3118 182.348C97.5806 181.756 97.8766 180.153 97.7373 179.264C97.5284 178.009 97.0931 176.807 96.8494 175.57C96.3097 172.921 96.7972 170.343 94.6906 168.234C92.7059 166.248 89.6244 169.332 91.6091 171.318C92.5318 172.242 92.2533 173.88 92.3926 175.082C92.5318 176.371 92.8974 177.574 93.2108 178.828C93.7853 181.076 93.2456 183.794 95.2477 185.432C96.3619 186.338 98.5904 186.251 98.8863 184.474C99.3912 181.337 99.9831 177.783 101.498 174.96C102.142 173.775 103.099 172.068 104.353 171.44C105.711 170.743 107.626 170.708 109.106 170.586C111.473 170.395 115.512 169.75 117.062 172.102C117.863 173.322 118.228 174.838 118.82 176.162C119.586 177.905 120.509 179.56 121.449 181.215C122.824 183.672 126.533 181.477 125.21 179.02C124.322 177.382 124.809 175.187 124.339 173.409C123.799 171.388 122.581 170.046 121.223 168.53C120.004 167.171 119.273 165.499 117.445 164.836C115.408 164.087 112.797 164.401 110.673 164.418C108.549 164.436 106.32 164.575 104.301 165.342C102.403 166.056 100.767 167.154 99.1649 168.391C97.7025 169.524 96.066 170.656 95.2303 172.346C94.3424 174.141 94.4991 176.11 94.0813 178.009C93.4545 180.745 97.6502 181.912 98.277 179.159L98.2422 179.142Z" fill="#ED1C24"/>
<path d="M112.71 175.727C112.797 177.678 112.71 179.63 112.466 181.564L112.535 180.989C112.518 181.163 112.483 181.337 112.466 181.512L116.749 182.087C116.679 181.407 116.557 180.919 116.261 180.309C116.122 180.031 115.965 179.769 115.843 179.49L116.07 180.013C116 179.839 115.965 179.665 115.93 179.473L116 180.048C115.93 179.281 115.965 178.497 115.983 177.731C116 176.964 115.983 176.145 116.017 175.361C116.035 174.228 115.008 173.13 113.841 173.183C112.675 173.235 111.682 174.141 111.665 175.361C111.648 176.581 111.63 177.696 111.63 178.863C111.63 179.543 111.63 180.257 111.787 180.919C111.943 181.529 112.292 182.052 112.553 182.609L112.326 182.087C112.396 182.244 112.448 182.4 112.466 182.557L112.396 181.982V182.087C112.466 182.644 112.605 183.219 113.04 183.62C113.406 183.951 113.806 184.16 114.294 184.213C114.781 184.265 115.269 184.213 115.687 183.951C116.122 183.672 116.609 183.202 116.679 182.644C117.027 180.344 117.184 178.044 117.079 175.709C117.027 174.577 116.122 173.479 114.903 173.531C113.771 173.584 112.675 174.49 112.727 175.709L112.71 175.727Z" fill="#ED1C24"/>
<path d="M85.272 177.399C85.272 177.399 85.2894 177.452 85.3068 177.469L85.0805 176.946C85.1675 177.156 85.2198 177.365 85.2546 177.574L85.185 176.999C85.2024 177.208 85.2198 177.417 85.185 177.626L85.2546 177.051C85.2546 177.051 85.2546 177.121 85.2546 177.156C85.1675 177.452 85.1501 177.731 85.2198 178.027C85.2198 178.323 85.3242 178.584 85.4809 178.828C85.6202 179.09 85.8117 179.281 86.038 179.438C86.2469 179.63 86.4907 179.769 86.7866 179.821L87.3612 179.891C87.7616 179.891 88.1272 179.787 88.458 179.595L88.8932 179.246C89.1543 178.968 89.3458 178.654 89.4503 178.288C89.5025 177.974 89.5548 177.678 89.5548 177.365C89.5548 177.138 89.5199 176.929 89.5025 176.703C89.4851 176.476 89.4503 176.267 89.3981 176.058C89.311 175.762 89.1718 175.483 89.0499 175.204C88.9106 174.943 88.7191 174.751 88.4928 174.594C88.2839 174.402 88.0401 174.263 87.7442 174.211C87.4482 174.124 87.1696 174.106 86.8737 174.176C86.5777 174.176 86.3166 174.28 86.0728 174.437L85.6376 174.786C85.3765 175.065 85.185 175.378 85.0805 175.744L85.0109 176.319C85.0109 176.72 85.1153 177.086 85.3068 177.417L85.272 177.399Z" fill="#ED1C24"/>
<path d="M126.742 165.638C127.664 164.645 128.256 163.46 129.005 162.345C129.075 162.24 129.144 162.153 129.196 162.066C129.336 161.892 129.283 161.944 129.075 162.223C129.127 162.17 129.179 162.101 129.231 162.048C129.405 161.839 129.597 161.665 129.806 161.473C130.102 161.195 129.371 161.752 129.719 161.543C129.841 161.473 129.98 161.386 130.102 161.317C130.432 161.125 129.614 161.456 129.997 161.369C130.171 161.334 130.328 161.282 130.502 161.247L129.928 161.317C130.328 161.264 130.728 161.282 131.129 161.317L130.554 161.247C131.042 161.317 131.529 161.439 132.017 161.561C133.114 161.857 134.437 161.195 134.698 160.045C134.959 158.895 134.35 157.675 133.183 157.361C132.156 157.1 131.077 156.838 130.015 156.943C128.709 157.082 127.63 157.588 126.655 158.459C125.958 159.086 125.419 159.87 124.931 160.672C124.705 161.055 124.478 161.439 124.235 161.822C124.113 161.996 123.991 162.17 123.869 162.345C123.73 162.571 124.182 161.979 123.939 162.258C123.852 162.362 123.765 162.449 123.678 162.554C122.912 163.39 122.79 164.819 123.678 165.638C124.513 166.405 125.941 166.527 126.759 165.638H126.742Z" fill="#ED1C24"/>
<path d="M128.674 164.767C128.796 164 128.709 164.627 128.709 164.627C128.622 164.68 129.075 164.575 129.162 164.558C129.875 164.401 130.607 164.314 131.32 164.209C132.731 163.983 134.158 163.756 135.568 163.547C136.978 163.338 138.51 163.059 139.99 162.85C141.348 162.658 142.637 162.78 143.977 162.745C145.631 162.711 147.198 161.334 146.71 159.574C146.293 158.041 144.604 157.361 143.176 157.152C140.634 156.769 138.423 156.089 136.299 154.608L136.735 158.023C136.595 158.18 136.108 158.215 136.091 158.232C136.091 158.285 136.787 158.598 136.839 158.616C137.414 158.912 137.971 159.208 138.545 159.522C139.677 160.114 140.826 160.724 141.958 161.317C143.002 161.857 144.325 161.578 144.935 160.533C145.509 159.557 145.196 158.11 144.151 157.553C142.497 156.682 140.843 155.81 139.189 154.939C137.414 153.998 135.255 153.179 133.653 154.939C132.643 156.037 132.922 157.535 134.088 158.354C135.551 159.365 137.17 160.149 138.876 160.689C139.66 160.933 140.46 161.125 141.279 161.229C141.662 161.282 142.079 161.334 142.428 161.386C142.602 161.421 142.811 161.508 142.985 161.526C143.263 161.526 143.072 161.944 142.724 161.229L142.428 160.132V160.289C142.515 159.923 142.619 159.557 142.706 159.191L142.619 159.313L143.403 158.529C144.029 158.424 144.169 158.372 143.786 158.372C143.559 158.337 143.316 158.32 143.089 158.302C142.619 158.267 142.149 158.285 141.679 158.302C140.774 158.354 139.886 158.476 138.998 158.598C137.17 158.86 135.342 159.173 133.514 159.452C131.686 159.731 130.015 159.958 128.274 160.271C126.533 160.585 124.757 161.717 124.444 163.582C124.252 164.749 124.74 165.934 125.958 166.265C127.003 166.544 128.448 165.917 128.639 164.749L128.674 164.767Z" fill="#ED1C24"/>
<path d="M63.7364 143.787C63.6668 144.833 63.9976 145.878 63.8757 146.924L63.9453 146.349C63.9279 146.506 63.8931 146.645 63.8583 146.802C63.8061 146.994 63.632 147.22 63.9279 146.697C63.8757 146.784 63.8061 146.906 63.7713 146.994C64.015 146.697 64.0498 146.645 63.9105 146.802C63.8583 146.854 63.8061 146.906 63.7538 146.959L67.1661 147.394C67.0617 147.238 66.9572 147.098 66.8702 146.924C66.8353 146.854 66.8005 146.784 66.7657 146.715C66.6438 146.506 66.9572 147.238 66.8179 146.837C66.6961 146.488 66.609 146.122 66.5568 145.756L66.6264 146.331C66.5568 145.791 66.5742 145.251 66.6264 144.728L66.5568 145.303C66.6438 144.659 66.8179 144.014 67.0268 143.387C67.1313 143.073 67.2532 142.759 67.375 142.463C67.4273 142.324 67.4795 142.202 67.5317 142.062C67.5665 141.975 67.6014 141.888 67.6362 141.801C67.7232 141.575 67.7058 141.627 67.5839 141.958L66.8005 142.742L66.8702 142.707L65.7733 143.003H65.843C65.4774 142.916 65.1118 142.812 64.7462 142.707C64.4328 142.533 64.2239 142.272 64.1194 141.958C64.0498 141.766 64.0324 141.749 64.1194 141.923C64.1717 142.045 64.2065 142.184 64.2587 142.306C64.3458 142.568 64.398 142.829 64.4328 143.09L64.3632 142.515C64.398 142.794 64.398 143.056 64.3632 143.334L64.4328 142.759C64.2935 143.822 63.9105 144.868 63.632 145.913C63.336 147.011 63.9976 148.335 65.1466 148.597C66.2956 148.858 67.4969 148.248 67.8277 147.081C68.0192 146.349 68.2281 145.634 68.4196 144.903C68.6807 143.909 68.7678 142.969 68.6285 141.958C68.4892 141.069 68.1585 140.076 67.5491 139.414C66.8353 138.63 65.5993 138.438 64.694 138.961C63.9628 139.362 63.719 140.006 63.4231 140.738C62.274 143.509 61.4906 146.959 63.4231 149.607C63.8409 150.182 64.2935 150.548 65.0073 150.653C65.7211 150.757 66.2956 150.513 66.8353 150.06C67.7929 149.224 68.1759 147.952 68.2455 146.732C68.2977 145.756 68.0192 144.798 68.0714 143.822C68.141 142.69 67.0268 141.592 65.8952 141.644C64.6591 141.697 63.7887 142.603 63.719 143.822L63.7364 143.787Z" fill="#ED1C24"/>
<path d="M55.8151 138.612C55.8673 139.414 55.8499 140.215 55.7454 141L55.8151 140.425C55.7976 140.564 55.7802 140.721 55.7454 140.86L58.4265 139.344H58.3917C58.5658 139.414 58.7399 139.484 58.914 139.553H58.8965C59.0358 139.658 59.1925 139.762 59.3318 139.884H59.3144C59.4362 140.006 59.5407 140.163 59.6626 140.303C59.6626 140.303 59.6452 140.268 59.6277 140.25L59.8541 140.773C59.8541 140.773 59.8541 140.738 59.8541 140.703L59.9237 141.278C59.9237 141.278 59.9237 141.191 59.9237 141.139L59.8541 141.714C59.9063 141.4 59.9933 141.104 60.063 140.808C60.1326 140.494 60.2023 140.181 60.2719 139.85C60.3938 139.275 60.359 138.682 60.0456 138.177C59.9063 137.915 59.7148 137.724 59.4885 137.567C59.2796 137.375 59.0358 137.236 58.7399 137.184C58.1828 137.062 57.556 137.079 57.0685 137.41C56.5985 137.706 56.1981 138.159 56.0762 138.717C55.9717 139.187 55.8673 139.658 55.7628 140.128C55.7454 140.233 55.7106 140.337 55.6932 140.459C55.6584 140.599 55.6584 140.721 55.6235 140.878C55.6061 141.017 55.5713 141.139 55.5887 141.278C55.5887 141.731 55.7106 142.115 55.9195 142.498C56.2155 143.038 56.7552 143.387 57.3123 143.561C57.6082 143.648 57.8868 143.666 58.1828 143.596C58.4787 143.596 58.7399 143.491 58.9836 143.334C59.4362 143.038 59.8889 142.585 59.9759 142.028C60.1674 140.895 60.2719 139.762 60.2023 138.63C60.2023 138.334 60.15 138.055 60.0108 137.793C59.9237 137.532 59.767 137.288 59.5581 137.096C59.3666 136.887 59.1229 136.731 58.8617 136.643C58.6006 136.504 58.322 136.452 58.0261 136.452C57.469 136.469 56.877 136.661 56.494 137.096C56.111 137.532 55.8151 138.055 55.8499 138.63L55.8151 138.612Z" fill="#ED1C24"/>
<path d="M162.901 145.478C167.741 144.328 170.805 140.459 174.322 137.271C176.69 135.127 179.11 133.803 181.895 136.121C183.671 137.602 184.855 139.675 186.718 141.104C187.501 141.714 188.476 142.01 189.277 142.585C191.244 144.014 187.762 144.293 186.944 144.38C185.064 144.589 183.323 145.094 182.33 146.854C181.303 148.701 181.477 151.088 181.425 153.127C181.355 155.932 181.286 158.755 181.199 161.561L183.218 161.003C181.112 157.675 180.972 153.911 180.38 150.13C180.032 147.847 177.856 144.484 175.14 146.332C174.653 146.663 174.357 147.098 174.113 147.638C173.974 147.952 173.939 148.283 173.817 148.597C173.765 148.928 173.608 149.189 173.312 149.416L173.155 149.015C172.685 148.527 172.511 147.917 171.937 147.447C171.397 147.011 170.77 146.732 170.126 146.471C168.246 145.687 166.279 144.955 164.259 144.676C162.24 144.397 160.185 144.972 158.235 144.363L157.94 146.506C159.506 146.366 161.073 146.244 162.64 146.105C164.015 145.983 164.068 143.927 162.64 143.927C160.76 143.927 158.88 143.927 156.982 143.927L157.278 146.07C161.683 145.147 166.209 146.628 170.318 144.223C173.66 142.272 175.924 138.926 179.371 137.114C180.607 136.452 179.51 134.57 178.274 135.232C174.966 136.992 172.755 140.111 169.639 142.097C165.722 144.606 161.021 143.056 156.703 143.979C155.485 144.241 155.781 146.122 156.999 146.122C158.88 146.122 160.76 146.122 162.658 146.122V143.944C161.091 144.084 159.524 144.206 157.957 144.345C156.756 144.45 156.442 146.105 157.661 146.488C159.367 147.028 160.986 146.697 162.727 146.75C164.625 146.802 166.435 147.394 168.211 148.074C169.029 148.388 170.144 148.684 170.77 149.329C171.275 149.834 171.345 150.601 171.78 151.141C172.477 152.012 173.608 152.116 174.513 151.524C174.949 151.245 175.262 150.844 175.506 150.391C175.802 149.834 175.941 148.318 176.62 148.109C178.344 147.586 178.465 152.343 178.587 153.232C178.988 156.368 179.632 159.452 181.338 162.153C181.912 163.059 183.34 162.693 183.357 161.595C183.445 158.354 183.514 155.096 183.601 151.855C183.636 150.635 183.532 149.085 184.176 147.969C184.977 146.593 186.526 146.628 187.919 146.453C189.642 146.244 192.114 145.617 192.114 143.439C192.114 140.93 189.12 140.39 187.605 139.065C185.708 137.41 184.454 135.18 182.313 133.768C180.346 132.462 178.082 132.235 175.941 133.333C170.805 135.999 168.194 141.975 162.274 143.387C160.917 143.718 161.491 145.809 162.849 145.495L162.901 145.478Z" fill="white"/>
<path d="M167.759 146.767C168.681 146.819 169.761 146.872 170.544 147.412C171.275 147.917 171.589 148.841 172.302 149.363C174.148 150.705 175.245 148.422 175.889 146.976C176.341 145.913 177.195 146.105 178.187 146.349C178.848 146.523 179.144 146.732 179.44 147.36C179.684 147.882 179.893 148.422 180.102 148.963C180.955 151.297 181.408 153.754 180.798 156.211L182.94 156.507C182.853 154.852 181.965 153.563 181.373 152.064C180.781 150.566 180.468 148.928 180.259 147.29C179.893 144.188 176.585 143.596 174.322 145.286C174.078 145.478 173.852 145.722 173.591 145.896C173.225 146.157 173.312 146.21 173.051 145.826C172.651 145.216 172.424 144.659 171.832 144.206C171.171 143.7 170.457 143.404 170.405 142.463C170.353 141.662 170.857 140.947 171.449 140.459C172.076 139.954 172.807 139.588 173.486 139.153C174.2 138.682 174.879 138.159 175.628 137.741C176.376 137.323 177.229 137.062 178.1 136.87C178.97 136.678 180.067 136.295 180.781 136.922C182.139 138.125 183.392 139.431 184.82 140.564C185.551 141.156 186.3 141.714 187.066 142.254C187.431 142.516 187.814 142.777 188.197 143.021C188.354 143.125 188.528 143.23 188.685 143.334C188.789 143.404 188.911 143.474 189.016 143.544C189.312 143.787 189.312 143.631 188.981 143.091L189.486 142.446C188.963 142.829 187.605 142.69 186.944 142.742C186.178 142.812 185.342 142.812 184.611 143.091C183.062 143.666 181.982 145.739 181.007 146.976L182.818 148.039C184.42 143.212 181.477 138.821 178.657 135.162C177.995 134.291 176.742 134.587 176.637 135.72C176.429 137.689 177.16 139.728 177.839 141.557C178.552 143.474 179.406 145.321 180.293 147.168C180.833 148.283 182.661 147.499 182.278 146.331C181.425 143.753 180.363 141.244 179.057 138.856C178.57 137.968 176.881 138.299 177.038 139.414C177.282 141.174 177.63 142.881 178.169 144.554C178.605 145.896 180.572 145.338 180.276 143.979C179.719 141.435 178.761 139.031 177.038 137.027C176.359 136.243 175.279 136.957 175.175 137.793C174.931 139.989 175.541 142.115 176.185 144.188C176.62 145.547 178.518 144.972 178.291 143.613C178.013 141.94 177.229 140.459 176.046 139.24C175.349 138.508 174.27 139.118 174.183 140.006C174.061 141.348 174.043 142.69 174.13 144.031L176.272 143.735C175.784 142.463 175.21 141.261 174.496 140.111C173.939 139.205 172.459 139.553 172.477 140.669C172.494 142.394 172.703 144.101 173.103 145.774L175.088 144.938C174.392 143.892 173.608 142.916 172.72 142.028C172.128 141.453 171.136 141.714 170.91 142.516C170.544 143.788 170.718 145.077 171.432 146.21C172.076 147.22 173.782 146.593 173.417 145.373C173.138 144.415 172.86 143.474 172.581 142.516C172.459 142.115 172.302 141.697 172.233 141.278C172.006 140.128 172.546 141 172.685 140.093C172.546 141.017 173.382 141.801 174.287 141.331C175.575 140.651 176.742 139.832 177.821 138.856C178.344 138.403 179.023 137.55 179.667 138.177C180.137 138.63 180.415 139.518 180.763 140.059C182.33 142.498 184.768 144.415 187.797 144.31C188.667 144.275 189.085 143.422 188.737 142.672C188.267 141.679 187.205 141.296 186.248 140.895C185.656 140.651 185.064 140.425 184.472 140.215C184.141 140.093 183.81 139.989 183.479 139.867L182.975 139.64C182.679 139.379 182.452 139.501 182.33 140.006L181.268 139.728C181.947 140.494 183.932 142.411 183.566 143.596L184.071 142.951C184.298 142.899 184.228 142.899 183.862 142.916C183.619 142.759 183.462 142.812 183.41 143.038L182.348 143.317L182.644 143.631C183.375 144.833 185.255 143.735 184.524 142.533C184.106 141.853 183.636 141.522 182.922 141.226C182.539 141.069 182.156 141.278 181.86 141.505C181.025 142.167 181.042 143.456 181.721 144.241C182.4 145.025 183.897 145.373 184.855 145.007C187.762 143.892 183.828 139.327 182.818 138.194C182.557 137.898 182.121 137.828 181.756 137.915C180.102 138.334 180.154 140.337 181.373 141.226C182.156 141.801 183.183 142.062 184.089 142.394C184.855 142.672 186.491 142.986 186.874 143.787L187.814 142.15C186.073 142.219 184.611 141.365 183.479 140.076C182.504 138.961 182.069 137.306 180.92 136.347C179.771 135.389 178.378 135.668 177.299 136.469C175.906 137.497 174.775 138.647 173.225 139.466L174.827 140.703C175.175 138.49 172.285 137.654 170.788 138.996C169.952 139.745 169.935 140.878 170.161 141.906C170.474 143.282 170.962 144.641 171.345 146L173.33 145.164C172.912 144.519 172.807 143.909 173.034 143.16L171.223 143.648C171.989 144.397 172.668 145.216 173.26 146.122C173.939 147.15 175.541 146.506 175.245 145.286C174.896 143.787 174.722 142.306 174.705 140.756L172.685 141.313C173.295 142.306 173.834 143.334 174.235 144.415C174.635 145.495 176.463 145.443 176.376 144.119C176.289 142.794 176.307 141.435 176.429 140.093L174.566 140.86C175.506 141.836 176.028 142.951 176.254 144.275L178.361 143.7C177.752 141.784 177.195 139.919 177.421 137.881L175.558 138.647C177.02 140.355 177.752 142.463 178.239 144.641L180.346 144.066C179.876 142.568 179.493 141.052 179.301 139.501L177.282 140.059C178.5 142.289 179.493 144.589 180.276 147.011L182.261 146.175C181.46 144.502 180.659 142.829 180.015 141.087C179.406 139.431 178.709 137.602 178.901 135.824L176.881 136.382C179.318 139.553 182.226 143.352 180.816 147.586C180.485 148.562 181.965 149.52 182.626 148.649C183.375 147.691 184.089 146.506 184.959 145.652C185.777 144.868 187.188 145.042 188.267 144.955C189.085 144.885 190.13 144.955 190.774 144.38C191.418 143.805 191.401 142.812 190.774 142.219C190.078 141.54 189.068 141.069 188.267 140.512C187.292 139.815 186.335 139.065 185.412 138.281C184.576 137.567 183.758 136.818 182.975 136.051C182.191 135.284 181.408 134.535 180.206 134.518C178.1 134.465 175.715 135.284 173.974 136.399C172.981 137.027 171.989 137.689 170.997 138.334C170.144 138.891 169.36 139.553 168.873 140.459C167.967 142.167 168.263 144.328 169.83 145.53C170.248 145.844 170.701 146.035 170.997 146.471C171.258 146.872 171.397 147.325 171.693 147.708C172.268 148.475 173.121 148.788 174.043 148.422C175.123 147.987 175.697 146.75 176.899 146.593C178.431 146.384 178.239 148.144 178.396 149.189C178.587 150.479 178.953 151.733 179.44 152.935C179.928 154.138 180.781 155.305 180.868 156.612C180.938 157.797 182.696 158.145 183.009 156.908C183.497 154.887 183.445 152.848 183.009 150.827C182.766 149.782 182.435 148.754 182.034 147.743C181.704 146.906 181.39 145.931 180.746 145.286C179.684 144.223 177.369 143.805 175.958 144.223C174.043 144.781 174.235 146.906 172.912 148.057L173.678 147.743C173.469 147.743 172.929 146.732 172.755 146.541C172.389 146.105 171.954 145.756 171.449 145.495C170.335 144.92 169.082 144.798 167.846 144.728C166.453 144.641 166.453 146.819 167.846 146.906L167.759 146.767Z" fill="white"/>
<path d="M160.655 144.484C158.653 144.537 156.669 144.432 154.684 144.188L154.98 146.331C155.763 146.035 156.529 146.122 157.348 146.07C158.166 146.018 158.845 145.861 159.593 145.652C161.143 145.199 162.727 144.955 164.294 144.589C165.861 144.223 167.219 143.456 168.734 143.003C170.039 142.62 171.31 142.446 172.355 141.505C173.399 140.564 171.85 139.031 170.823 139.972C169.935 140.773 168.455 140.773 167.358 141.191C165.931 141.749 164.607 142.306 163.11 142.637C161.613 142.969 160.168 143.23 158.723 143.648C157.278 144.066 155.781 143.735 154.388 144.258C153.204 144.694 153.465 146.244 154.684 146.401C156.669 146.645 158.653 146.732 160.655 146.697C162.048 146.663 162.066 144.484 160.655 144.519V144.484Z" fill="white"/>
<path d="M171.885 148.91C171.885 148.91 171.397 148.754 171.554 148.823C171.658 148.875 171.467 148.754 171.467 148.754C171.467 148.754 171.345 148.562 171.397 148.666C171.449 148.771 171.362 148.562 171.362 148.562C171.362 148.562 171.397 148.666 171.397 148.684C171.432 148.806 171.38 148.597 171.397 148.597C171.397 148.597 171.397 148.858 171.397 148.893C171.397 149.329 171.432 149.747 171.502 150.165C171.554 150.513 171.641 150.862 171.763 151.21C171.885 151.576 172.024 151.977 172.25 152.291C172.564 152.761 173.034 153.11 173.626 153.127C174.218 153.144 174.757 152.796 175.088 152.308C175.349 151.907 175.401 151.419 175.436 150.949C175.436 150.914 175.436 150.862 175.436 150.827C175.436 150.705 175.436 150.897 175.436 150.897C175.419 150.844 175.471 150.688 175.488 150.635C175.523 150.444 175.575 150.269 175.645 150.078C175.906 149.241 176.185 148.422 176.498 147.603C176.707 147.063 176.272 146.384 175.732 146.262C175.105 146.122 174.601 146.453 174.392 147.028C174.078 147.882 173.765 148.754 173.504 149.625C173.452 149.816 173.399 150.025 173.347 150.217C173.312 150.391 173.295 150.583 173.277 150.775C173.277 150.862 173.277 151.019 173.243 151.106C173.26 150.949 173.26 150.932 173.243 151.071V151.158C173.19 151.28 173.19 151.263 173.243 151.123C173.173 151.228 173.19 151.21 173.295 151.071C173.208 151.158 173.225 151.141 173.347 151.036C173.434 150.984 173.539 150.949 173.643 150.949C173.747 150.949 173.852 150.966 173.956 151.019C174.078 151.123 174.113 151.141 174.061 151.088C174.009 151.036 174.026 151.054 174.13 151.176C174.113 151.141 174.078 151.106 174.061 151.071C174.009 150.984 173.956 150.897 173.922 150.792C173.991 151.054 173.922 150.757 173.887 150.688C173.852 150.601 173.817 150.496 173.782 150.409C173.713 150.182 173.66 149.973 173.626 149.747C173.626 149.677 173.556 149.416 173.626 149.694C173.608 149.59 173.608 149.468 173.591 149.346C173.556 148.875 173.626 148.37 173.452 147.917C173.347 147.621 173.208 147.377 172.981 147.168C172.686 146.872 172.32 146.767 171.919 146.732C171.658 146.697 171.328 146.872 171.153 147.046C170.962 147.238 170.823 147.551 170.84 147.813C170.858 148.074 170.945 148.388 171.153 148.579C171.38 148.788 171.624 148.858 171.919 148.893L171.885 148.91Z" fill="white"/>
<path d="M166.731 150.688C166.749 151.123 166.731 151.576 166.679 152.012L166.714 151.716C166.662 152.064 166.592 152.413 166.505 152.744L168.107 152.099H168.072C168.072 152.099 168.211 152.204 168.298 152.256H168.281C168.281 152.256 168.403 152.378 168.455 152.448V152.413C168.455 152.413 168.507 152.587 168.542 152.674C168.49 152.535 168.49 152.395 168.455 152.256C168.438 152.099 168.403 151.96 168.385 151.803C168.333 151.507 168.281 151.21 168.229 150.914L168.263 151.21C168.263 151.106 168.246 150.984 168.263 150.879L168.229 151.176C168.229 151.176 168.246 151.054 168.281 151.001L168.176 151.263C168.176 151.263 168.211 151.193 168.229 151.176C168.385 150.949 168.403 150.583 168.333 150.339C168.263 150.095 168.072 149.816 167.828 149.694C167.567 149.555 167.271 149.485 166.993 149.59C166.714 149.694 166.505 149.851 166.348 150.095C166.157 150.391 166.07 150.792 166.087 151.141C166.105 151.454 166.174 151.785 166.227 152.099C166.261 152.343 166.314 152.604 166.348 152.848C166.366 152.97 166.383 153.092 166.418 153.214C166.488 153.528 166.714 153.859 167.01 153.998C167.323 154.155 167.654 154.19 167.985 154.051C168.298 153.911 168.525 153.667 168.612 153.336C168.855 152.482 168.96 151.576 168.908 150.705C168.908 150.409 168.803 150.147 168.594 149.938C168.403 149.747 168.089 149.607 167.828 149.625C167.567 149.642 167.254 149.729 167.062 149.938C166.871 150.147 166.731 150.426 166.749 150.705L166.731 150.688Z" fill="white"/>
<path d="M184.646 148.353C184.716 148.91 184.82 149.468 184.977 150.008C185.046 150.269 185.238 150.513 185.482 150.653C185.603 150.74 185.743 150.775 185.882 150.775C186.021 150.81 186.178 150.792 186.317 150.757C186.578 150.67 186.839 150.513 186.961 150.252C187.083 149.991 187.153 149.694 187.066 149.416C186.944 148.98 186.839 148.544 186.787 148.091L186.822 148.388C186.822 148.388 186.822 148.353 186.822 148.335C186.822 148.178 186.805 148.039 186.735 147.917C186.683 147.778 186.613 147.673 186.509 147.569C186.404 147.464 186.3 147.394 186.161 147.342C186.039 147.272 185.899 147.238 185.743 147.255C185.464 147.255 185.168 147.36 184.977 147.569L184.803 147.795C184.698 147.969 184.663 148.144 184.646 148.353Z" fill="white"/>
</g>
<defs>
<radialGradient id="paint0_radial_285_1916" cx="0" cy="0" r="1" gradientUnits="userSpaceOnUse" gradientTransform="translate(128.444 165.399) scale(112.879 30.5575)">
<stop stop-color="#010101" stop-opacity="0.5"/>
<stop offset="0.02" stop-color="#010101" stop-opacity="0.47"/>
<stop offset="1" stop-color="#010101" stop-opacity="0"/>
</radialGradient>
<radialGradient id="paint1_radial_285_1916" cx="0" cy="0" r="1" gradientUnits="userSpaceOnUse" gradientTransform="translate(64.5233 195.8) scale(18.294 9.89715)">
<stop stop-color="#010101" stop-opacity="0.5"/>
<stop offset="0.02" stop-color="#010101" stop-opacity="0.47"/>
<stop offset="1" stop-color="#010101" stop-opacity="0"/>
</radialGradient>
<clipPath id="clip0_285_1916">
<rect width="257" height="205" fill="white"/>
</clipPath>
</defs>
</svg>
